{"id": "T0", "fps": {"num": 24, "den": 1}, "width": 1280, "height": 720, "sample_rate": 44100, "channels": 2, "channel_layout": 3, "settings": {}, "clips": [{"alpha": {"Points": [{"co": {"X": 1.0, "Y": 1.0}, "interpolation": 2}]}, "anchor": 0, "channel_filter": {"Points": [{"co": {"X": 1.0, "Y": -1.0}, "interpolation": 2}]}, "channel_mapping": {"Points": [{"co": {"X": 1.0, "Y": -1.0}, "interpolation": 2}]}, "crop_height": {"Points": [{"co": {"X": 1.0, "Y": -1.0}, "interpolation": 2}]}, "crop_width": {"Points": [{"co": {"X": 1.0, "Y": -1.0}, "interpolation": 2}]}, "crop_x": {"Points": [{"co": {"X": 1.0, "Y": 0.0}, "interpolation": 2}]}, "crop_y": {"Points": [{"co": {"X": 1.0, "Y": 0.0}, "interpolation": 2}]}, "display": 0, "duration": 169.1199951171875, "effects": [], "end": 150.6, "gravity": 4, "has_audio": {"Points": [{"co": {"X": 1.0, "Y": -1.0}, "interpolation": 2}]}, "has_video": {"Points": [{"co": {"X": 1.0, "Y": -1.0}, "interpolation": 2}]}, "id": "Z8W6Z4YAV4", "layer": 0, "location_x": {"Points": [{"co": {"X": 1.0, "Y": 0.0}, "interpolation": 2}]}, "location_y": {"Points": [{"co": {"X": 1.0, "Y": 0.0}, "interpolation": 2}]}, "mixing": 0, "perspective_c1_x": {"Points": [{"co": {"X": 1.0, "Y": -1.0}, "interpolation": 2}]}, "perspective_c1_y": {"Points": [{"co": {"X": 1.0, "Y": -1.0}, "interpolation": 2}]}, "perspective_c2_x": {"Points": [{"co": {"X": 1.0, "Y": -1.0}, "interpolation": 2}]}, "perspective_c2_y": {"Points": [{"co": {"X": 1.0, "Y": -1.0}, "interpolation": 2}]}, "perspective_c3_x": {"Points": [{"co": {"X": 1.0, "Y": -1.0}, "interpolation": 2}]}, "perspective_c3_y": {"Points": [{"co": {"X": 1.0, "Y": -1.0}, "interpolation": 2}]}, "perspective_c4_x": {"Points": [{"co": {"X": 1.0, "Y": -1.0}, "interpolation": 2}]}, "perspective_c4_y": {"Points": [{"co": {"X": 1.0, "Y": -1.0}, "interpolation": 2}]}, "position": 0, "reader": {"acodec": "pcm_s16le", "audio_bit_rate": 1536000, "audio_stream_index": 1, "audio_timebase": {"den": 48000, "num": 1}, "channel_layout": 3, "channels": 2, "display_ratio": {"den": 9, "num": 16}, "duration": 169.1199951171875, "file_size": "964560360", "fps": {"den": 1, "num": 25}, "has_audio": true, "has_single_image": false, "has_video": true, "height": 1080, "interlaced_frame": false, "metadata": {"com.apple.quicktime.make": "Canon", "com.apple.quicktime.model": "Canon EOS 700D", "com.apple.quicktime.rating.user": "0.000000", "compatible_brands": "qt  CAEP", "creation_time": "2018-09-19T17:53:38.000000Z", "language": "eng", "major_brand": "qt", "minor_version": "537331968"}, "path": "..\\MVI_1094.MOV", "pixel_format": 12, "pixel_ratio": {"den": 1, "num": 1}, "sample_rate": 48000, "top_field_first": true, "type": "FFmpegReader", "vcodec": "h264", "video_bit_rate": 45627263, "video_length": "4228", "video_stream_index": 0, "video_timebase": {"den": 25000, "num": 1}, "width": 1920}, "rotation": {"Points": [{"co": {"X": 1.0, "Y": 0.0}, "interpolation": 2}]}, "scale": 1, "scale_x": {"Points": [{"co": {"X": 1.0, "Y": 1.0}, "interpolation": 2}]}, "scale_y": {"Points": [{"co": {"X": 1.0, "Y": 1.0}, "interpolation": 2}]}, "shear_x": {"Points": [{"co": {"X": 1.0, "Y": 0.0}, "interpolation": 2}]}, "shear_y": {"Points": [{"co": {"X": 1.0, "Y": 0.0}, "interpolation": 2}]}, "start": 94, "time": {"Points": [{"co": {"X": 1.0, "Y": 1.0}, "interpolation": 2}]}, "volume": {"Points": [{"co": {"X": 1.0, "Y": 1.0}, "interpolation": 2}]}, "wave_color": {"alpha": {"Points": [{"co": {"X": 1.0, "Y": 255.0}, "handle_left": {"X": 0.5, "Y": 1.0}, "handle_right": {"X": 0.5, "Y": 0.0}, "handle_type": 0, "interpolation": 0}]}, "blue": {"Points": [{"co": {"X": 1.0, "Y": 255.0}, "handle_left": {"X": 0.5, "Y": 1.0}, "handle_right": {"X": 0.5, "Y": 0.0}, "handle_type": 0, "interpolation": 0}]}, "green": {"Points": [{"co": {"X": 1.0, "Y": 123.0}, "handle_left": {"X": 0.5, "Y": 1.0}, "handle_right": {"X": 0.5, "Y": 0.0}, "handle_type": 0, "interpolation": 0}]}, "red": {"Points": [{"co": {"X": 1.0, "Y": 0.0}, "handle_left": {"X": 0.5, "Y": 1.0}, "handle_right": {"X": 0.5, "Y": 0.0}, "handle_type": 0, "interpolation": 0}]}}, "waveform": false, "file_id": "G9CEIUAJTC", "title": "MVI_1094.MOV", "image": "..\\..\\.openshot_qt\\thumbnail\\G9CEIUAJTC.png"}, {"alpha": {"Points": [{"co": {"X": 1.0, "Y": 1.0}, "interpolation": 2}]}, "anchor": 0, "channel_filter": {"Points": [{"co": {"X": 1.0, "Y": -1.0}, "interpolation": 2}]}, "channel_mapping": {"Points": [{"co": {"X": 1.0, "Y": -1.0}, "interpolation": 2}]}, "crop_height": {"Points": [{"co": {"X": 1.0, "Y": -1.0}, "interpolation": 2}]}, "crop_width": {"Points": [{"co": {"X": 1.0, "Y": -1.0}, "interpolation": 2}]}, "crop_x": {"Points": [{"co": {"X": 1.0, "Y": 0.0}, "interpolation": 2}]}, "crop_y": {"Points": [{"co": {"X": 1.0, "Y": 0.0}, "interpolation": 2}]}, "display": 0, "duration": 126.2399978637695, "effects": [], "end": 71.92, "gravity": 4, "has_audio": {"Points": [{"co": {"X": 1.0, "Y": -1.0}, "interpolation": 2}]}, "has_video": {"Points": [{"co": {"X": 1.0, "Y": -1.0}, "interpolation": 2}]}, "id": "UH27R29ADE", "layer": 1, "location_x": {"Points": [{"co": {"X": 1.0, "Y": 0.0}, "interpolation": 2}]}, "location_y": {"Points": [{"co": {"X": 1.0, "Y": 0.0}, "interpolation": 2}]}, "mixing": 0, "perspective_c1_x": {"Points": [{"co": {"X": 1.0, "Y": -1.0}, "interpolation": 2}]}, "perspective_c1_y": {"Points": [{"co": {"X": 1.0, "Y": -1.0}, "interpolation": 2}]}, "perspective_c2_x": {"Points": [{"co": {"X": 1.0, "Y": -1.0}, "interpolation": 2}]}, "perspective_c2_y": {"Points": [{"co": {"X": 1.0, "Y": -1.0}, "interpolation": 2}]}, "perspective_c3_x": {"Points": [{"co": {"X": 1.0, "Y": -1.0}, "interpolation": 2}]}, "perspective_c3_y": {"Points": [{"co": {"X": 1.0, "Y": -1.0}, "interpolation": 2}]}, "perspective_c4_x": {"Points": [{"co": {"X": 1.0, "Y": -1.0}, "interpolation": 2}]}, "perspective_c4_y": {"Points": [{"co": {"X": 1.0, "Y": -1.0}, "interpolation": 2}]}, "position": 56.6, "reader": {"acodec": "pcm_s16le", "audio_bit_rate": 1536000, "audio_stream_index": 1, "audio_timebase": {"den": 48000, "num": 1}, "channel_layout": 3, "channels": 2, "display_ratio": {"den": 9, "num": 16}, "duration": 126.2399978637695, "file_size": "717454036", "fps": {"den": 1, "num": 25}, "has_audio": true, "has_single_image": false, "has_video": true, "height": 1080, "interlaced_frame": false, "metadata": {"com.apple.quicktime.make": "Canon", "com.apple.quicktime.model": "Canon EOS 700D", "com.apple.quicktime.rating.user": "0.000000", "compatible_brands": "qt  CAEP", "creation_time": "2018-09-19T18:12:35.000000Z", "language": "eng", "major_brand": "qt", "minor_version": "537331968"}, "path": "..\\MVI_1100.MOV", "pixel_format": 12, "pixel_ratio": {"den": 1, "num": 1}, "sample_rate": 48000, "top_field_first": true, "type": "FFmpegReader", "vcodec": "h264", "video_bit_rate": 45466035, "video_length": "3156", "video_stream_index": 0, "video_timebase": {"den": 25000, "num": 1}, "width": 1920}, "rotation": {"Points": [{"co": {"X": 1.0, "Y": 0.0}, "interpolation": 2}]}, "scale": 1, "scale_x": {"Points": [{"co": {"X": 1.0, "Y": 1.0}, "interpolation": 2}]}, "scale_y": {"Points": [{"co": {"X": 1.0, "Y": 1.0}, "interpolation": 2}]}, "shear_x": {"Points": [{"co": {"X": 1.0, "Y": 0.0}, "interpolation": 2}]}, "shear_y": {"Points": [{"co": {"X": 1.0, "Y": 0.0}, "interpolation": 2}]}, "start": 52.92, "time": {"Points": [{"co": {"X": 1.0, "Y": 1.0}, "interpolation": 2}]}, "volume": {"Points": [{"co": {"X": 1.0, "Y": 1.0}, "interpolation": 2}]}, "wave_color": {"alpha": {"Points": [{"co": {"X": 1.0, "Y": 255.0}, "handle_left": {"X": 0.5, "Y": 1.0}, "handle_right": {"X": 0.5, "Y": 0.0}, "handle_type": 0, "interpolation": 0}]}, "blue": {"Points": [{"co": {"X": 1.0, "Y": 255.0}, "handle_left": {"X": 0.5, "Y": 1.0}, "handle_right": {"X": 0.5, "Y": 0.0}, "handle_type": 0, "interpolation": 0}]}, "green": {"Points": [{"co": {"X": 1.0, "Y": 123.0}, "handle_left": {"X": 0.5, "Y": 1.0}, "handle_right": {"X": 0.5, "Y": 0.0}, "handle_type": 0, "interpolation": 0}]}, "red": {"Points": [{"co": {"X": 1.0, "Y": 0.0}, "handle_left": {"X": 0.5, "Y": 1.0}, "handle_right": {"X": 0.5, "Y": 0.0}, "handle_type": 0, "interpolation": 0}]}}, "waveform": false, "file_id": "QUUHNKYT4W", "title": "MVI_1100.MOV", "image": "..\\..\\.openshot_qt\\thumbnail\\QUUHNKYT4W.png"}, {"alpha": {"Points": [{"co": {"X": 1.0, "Y": 1.0}, "interpolation": 2}]}, "anchor": 0, "channel_filter": {"Points": [{"co": {"X": 1.0, "Y": -1.0}, "interpolation": 2}]}, "channel_mapping": {"Points": [{"co": {"X": 1.0, "Y": -1.0}, "interpolation": 2}]}, "crop_height": {"Points": [{"co": {"X": 1.0, "Y": -1.0}, "interpolation": 2}]}, "crop_width": {"Points": [{"co": {"X": 1.0, "Y": -1.0}, "interpolation": 2}]}, "crop_x": {"Points": [{"co": {"X": 1.0, "Y": 0.0}, "interpolation": 2}]}, "crop_y": {"Points": [{"co": {"X": 1.0, "Y": 0.0}, "interpolation": 2}]}, "display": 0, "duration": 199.7200012207031, "effects": [], "end": 122.88, "gravity": 4, "has_audio": {"Points": [{"co": {"X": 1.0, "Y": -1.0}, "interpolation": 2}]}, "has_video": {"Points": [{"co": {"X": 1.0, "Y": -1.0}, "interpolation": 2}]}, "id": "24RIOWUAHO", "layer": 0, "location_x": {"Points": [{"co": {"X": 1.0, "Y": 0.0}, "interpolation": 2}]}, "location_y": {"Points": [{"co": {"X": 1.0, "Y": 0.0}, "interpolation": 2}]}, "mixing": 0, "perspective_c1_x": {"Points": [{"co": {"X": 1.0, "Y": -1.0}, "interpolation": 2}]}, "perspective_c1_y": {"Points": [{"co": {"X": 1.0, "Y": -1.0}, "interpolation": 2}]}, "perspective_c2_x": {"Points": [{"co": {"X": 1.0, "Y": -1.0}, "interpolation": 2}]}, "perspective_c2_y": {"Points": [{"co": {"X": 1.0, "Y": -1.0}, "interpolation": 2}]}, "perspective_c3_x": {"Points": [{"co": {"X": 1.0, "Y": -1.0}, "interpolation": 2}]}, "perspective_c3_y": {"Points": [{"co": {"X": 1.0, "Y": -1.0}, "interpolation": 2}]}, "perspective_c4_x": {"Points": [{"co": {"X": 1.0, "Y": -1.0}, "interpolation": 2}]}, "perspective_c4_y": {"Points": [{"co": {"X": 1.0, "Y": -1.0}, "interpolation": 2}]}, "position": 75.6, "reader": {"acodec": "pcm_s16le", "audio_bit_rate": 1536000, "audio_stream_index": 1, "audio_timebase": {"den": 48000, "num": 1}, "channel_layout": 3, "channels": 2, "display_ratio": {"den": 9, "num": 16}, "duration": 199.7200012207031, "file_size": "1134495908", "fps": {"den": 1, "num": 25}, "has_audio": true, "has_single_image": false, "has_video": true, "height": 1080, "interlaced_frame": false, "metadata": {"com.apple.quicktime.make": "Canon", "com.apple.quicktime.model": "Canon EOS 700D", "com.apple.quicktime.rating.user": "0.000000", "compatible_brands": "qt  CAEP", "creation_time": "2018-09-19T18:07:25.000000Z", "language": "eng", "major_brand": "qt", "minor_version": "537331968"}, "path": "..\\MVI_1099.MOV", "pixel_format": 12, "pixel_ratio": {"den": 1, "num": 1}, "sample_rate": 48000, "top_field_first": true, "type": "FFmpegReader", "vcodec": "h264", "video_bit_rate": 45443457, "video_length": "4993", "video_stream_index": 0, "video_timebase": {"den": 25000, "num": 1}, "width": 1920}, "rotation": {"Points": [{"co": {"X": 1.0, "Y": 0.0}, "interpolation": 2}]}, "scale": 1, "scale_x": {"Points": [{"co": {"X": 1.0, "Y": 1.0}, "interpolation": 2}]}, "scale_y": {"Points": [{"co": {"X": 1.0, "Y": 1.0}, "interpolation": 2}]}, "shear_x": {"Points": [{"co": {"X": 1.0, "Y": 0.0}, "interpolation": 2}]}, "shear_y": {"Points": [{"co": {"X": 1.0, "Y": 0.0}, "interpolation": 2}]}, "start": 106.8, "time": {"Points": [{"co": {"X": 1.0, "Y": 1.0}, "interpolation": 2}]}, "volume": {"Points": [{"co": {"X": 1.0, "Y": 1.0}, "interpolation": 2}]}, "wave_color": {"alpha": {"Points": [{"co": {"X": 1.0, "Y": 255.0}, "handle_left": {"X": 0.5, "Y": 1.0}, "handle_right": {"X": 0.5, "Y": 0.0}, "handle_type": 0, "interpolation": 0}]}, "blue": {"Points": [{"co": {"X": 1.0, "Y": 255.0}, "handle_left": {"X": 0.5, "Y": 1.0}, "handle_right": {"X": 0.5, "Y": 0.0}, "handle_type": 0, "interpolation": 0}]}, "green": {"Points": [{"co": {"X": 1.0, "Y": 123.0}, "handle_left": {"X": 0.5, "Y": 1.0}, "handle_right": {"X": 0.5, "Y": 0.0}, "handle_type": 0, "interpolation": 0}]}, "red": {"Points": [{"co": {"X": 1.0, "Y": 0.0}, "handle_left": {"X": 0.5, "Y": 1.0}, "handle_right": {"X": 0.5, "Y": 0.0}, "handle_type": 0, "interpolation": 0}]}}, "waveform": false, "file_id": "DNDKK8784V", "title": "MVI_1099.MOV", "image": "..\\..\\.openshot_qt\\thumbnail\\DNDKK8784V.png"}, {"alpha": {"Points": [{"co": {"X": 1.0, "Y": 1.0}, "interpolation": 2}]}, "anchor": 0, "channel_filter": {"Points": [{"co": {"X": 1.0, "Y": -1.0}, "interpolation": 2}]}, "channel_mapping": {"Points": [{"co": {"X": 1.0, "Y": -1.0}, "interpolation": 2}]}, "crop_height": {"Points": [{"co": {"X": 1.0, "Y": -1.0}, "interpolation": 2}]}, "crop_width": {"Points": [{"co": {"X": 1.0, "Y": -1.0}, "interpolation": 2}]}, "crop_x": {"Points": [{"co": {"X": 1.0, "Y": 0.0}, "interpolation": 2}]}, "crop_y": {"Points": [{"co": {"X": 1.0, "Y": 0.0}, "interpolation": 2}]}, "display": 0, "duration": 97.68000030517578, "effects": [], "end": 59.32, "gravity": 4, "has_audio": {"Points": [{"co": {"X": 1.0, "Y": -1.0}, "interpolation": 2}]}, "has_video": {"Points": [{"co": {"X": 1.0, "Y": -1.0}, "interpolation": 2}]}, "id": "NREVZV5KE4", "layer": 1, "location_x": {"Points": [{"co": {"X": 1.0, "Y": 0.0}, "interpolation": 2}]}, "location_y": {"Points": [{"co": {"X": 1.0, "Y": 0.0}, "interpolation": 2}]}, "mixing": 0, "perspective_c1_x": {"Points": [{"co": {"X": 1.0, "Y": -1.0}, "interpolation": 2}]}, "perspective_c1_y": {"Points": [{"co": {"X": 1.0, "Y": -1.0}, "interpolation": 2}]}, "perspective_c2_x": {"Points": [{"co": {"X": 1.0, "Y": -1.0}, "interpolation": 2}]}, "perspective_c2_y": {"Points": [{"co": {"X": 1.0, "Y": -1.0}, "interpolation": 2}]}, "perspective_c3_x": {"Points": [{"co": {"X": 1.0, "Y": -1.0}, "interpolation": 2}]}, "perspective_c3_y": {"Points": [{"co": {"X": 1.0, "Y": -1.0}, "interpolation": 2}]}, "perspective_c4_x": {"Points": [{"co": {"X": 1.0, "Y": -1.0}, "interpolation": 2}]}, "perspective_c4_y": {"Points": [{"co": {"X": 1.0, "Y": -1.0}, "interpolation": 2}]}, "position": 91.68, "reader": {"acodec": "pcm_s16le", "audio_bit_rate": 1536000, "audio_stream_index": 1, "audio_timebase": {"den": 48000, "num": 1}, "channel_layout": 3, "channels": 2, "display_ratio": {"den": 9, "num": 16}, "duration": 97.68000030517578, "file_size": "553430096", "fps": {"den": 1, "num": 25}, "has_audio": true, "has_single_image": false, "has_video": true, "height": 1080, "interlaced_frame": false, "metadata": {"com.apple.quicktime.make": "Canon", "com.apple.quicktime.model": "Canon EOS 700D", "com.apple.quicktime.rating.user": "0.000000", "compatible_brands": "qt  CAEP", "creation_time": "2018-09-19T18:15:00.000000Z", "language": "eng", "major_brand": "qt", "minor_version": "537331968"}, "path": "..\\MVI_1101.MOV", "pixel_format": 12, "pixel_ratio": {"den": 1, "num": 1}, "sample_rate": 48000, "top_field_first": true, "type": "FFmpegReader", "vcodec": "h264", "video_bit_rate": 45325970, "video_length": "2442", "video_stream_index": 0, "video_timebase": {"den": 25000, "num": 1}, "width": 1920}, "rotation": {"Points": [{"co": {"X": 1.0, "Y": 0.0}, "interpolation": 2}]}, "scale": 1, "scale_x": {"Points": [{"co": {"X": 1.0, "Y": 1.0}, "interpolation": 2}]}, "scale_y": {"Points": [{"co": {"X": 1.0, "Y": 1.0}, "interpolation": 2}]}, "shear_x": {"Points": [{"co": {"X": 1.0, "Y": 0.0}, "interpolation": 2}]}, "shear_y": {"Points": [{"co": {"X": 1.0, "Y": 0.0}, "interpolation": 2}]}, "start": 45.4, "time": {"Points": [{"co": {"X": 1.0, "Y": 1.0}, "interpolation": 2}]}, "volume": {"Points": [{"co": {"X": 1.0, "Y": 1.0}, "interpolation": 2}]}, "wave_color": {"alpha": {"Points": [{"co": {"X": 1.0, "Y": 255.0}, "handle_left": {"X": 0.5, "Y": 1.0}, "handle_right": {"X": 0.5, "Y": 0.0}, "handle_type": 0, "interpolation": 0}]}, "blue": {"Points": [{"co": {"X": 1.0, "Y": 255.0}, "handle_left": {"X": 0.5, "Y": 1.0}, "handle_right": {"X": 0.5, "Y": 0.0}, "handle_type": 0, "interpolation": 0}]}, "green": {"Points": [{"co": {"X": 1.0, "Y": 123.0}, "handle_left": {"X": 0.5, "Y": 1.0}, "handle_right": {"X": 0.5, "Y": 0.0}, "handle_type": 0, "interpolation": 0}]}, "red": {"Points": [{"co": {"X": 1.0, "Y": 0.0}, "handle_left": {"X": 0.5, "Y": 1.0}, "handle_right": {"X": 0.5, "Y": 0.0}, "handle_type": 0, "interpolation": 0}]}}, "waveform": false, "file_id": "Z21W6844ZK", "title": "MVI_1101.MOV", "image": "..\\..\\.openshot_qt\\thumbnail\\Z21W6844ZK.png"}, {"alpha": {"Points": [{"co": {"X": 1.0, "Y": 1.0}, "interpolation": 2}]}, "anchor": 0, "channel_filter": {"Points": [{"co": {"X": 1.0, "Y": -1.0}, "interpolation": 2}]}, "channel_mapping": {"Points": [{"co": {"X": 1.0, "Y": -1.0}, "interpolation": 2}]}, "crop_height": {"Points": [{"co": {"X": 1.0, "Y": -1.0}, "interpolation": 2}]}, "crop_width": {"Points": [{"co": {"X": 1.0, "Y": -1.0}, "interpolation": 2}]}, "crop_x": {"Points": [{"co": {"X": 1.0, "Y": 0.0}, "interpolation": 2}]}, "crop_y": {"Points": [{"co": {"X": 1.0, "Y": 0.0}, "interpolation": 2}]}, "display": 0, "duration": 189.5599975585938, "effects": [], "end": 105.24, "gravity": 4, "has_audio": {"Points": [{"co": {"X": 1.0, "Y": -1.0}, "interpolation": 2}]}, "has_video": {"Points": [{"co": {"X": 1.0, "Y": -1.0}, "interpolation": 2}]}, "id": "YA4WC2YJB6", "layer": 0, "location_x": {"Points": [{"co": {"X": 1.0, "Y": 0.0}, "interpolation": 2}]}, "location_y": {"Points": [{"co": {"X": 1.0, "Y": 0.0}, "interpolation": 2}]}, "mixing": 0, "perspective_c1_x": {"Points": [{"co": {"X": 1.0, "Y": -1.0}, "interpolation": 2}]}, "perspective_c1_y": {"Points": [{"co": {"X": 1.0, "Y": -1.0}, "interpolation": 2}]}, "perspective_c2_x": {"Points": [{"co": {"X": 1.0, "Y": -1.0}, "interpolation": 2}]}, "perspective_c2_y": {"Points": [{"co": {"X": 1.0, "Y": -1.0}, "interpolation": 2}]}, "perspective_c3_x": {"Points": [{"co": {"X": 1.0, "Y": -1.0}, "interpolation": 2}]}, "perspective_c3_y": {"Points": [{"co": {"X": 1.0, "Y": -1.0}, "interpolation": 2}]}, "perspective_c4_x": {"Points": [{"co": {"X": 1.0, "Y": -1.0}, "interpolation": 2}]}, "perspective_c4_y": {"Points": [{"co": {"X": 1.0, "Y": -1.0}, "interpolation": 2}]}, "position": 105.6, "reader": {"acodec": "pcm_s16le", "audio_bit_rate": 1536000, "audio_stream_index": 1, "audio_timebase": {"den": 48000, "num": 1}, "channel_layout": 3, "channels": 2, "display_ratio": {"den": 9, "num": 16}, "duration": 189.5599975585938, "file_size": "1086576176", "fps": {"den": 1, "num": 25}, "has_audio": true, "has_single_image": false, "has_video": true, "height": 1080, "interlaced_frame": false, "metadata": {"com.apple.quicktime.make": "Canon", "com.apple.quicktime.model": "Canon EOS 700D", "com.apple.quicktime.rating.user": "0.000000", "compatible_brands": "qt  CAEP", "creation_time": "2018-09-19T17:59:33.000000Z", "language": "eng", "major_brand": "qt", "minor_version": "537331968"}, "path": "..\\MVI_1096.MOV", "pixel_format": 12, "pixel_ratio": {"den": 1, "num": 1}, "sample_rate": 48000, "top_field_first": true, "type": "FFmpegReader", "vcodec": "h264", "video_bit_rate": 45856770, "video_length": "4739", "video_stream_index": 0, "video_timebase": {"den": 25000, "num": 1}, "width": 1920}, "rotation": {"Points": [{"co": {"X": 1.0, "Y": 0.0}, "interpolation": 2}]}, "scale": 1, "scale_x": {"Points": [{"co": {"X": 1.0, "Y": 1.0}, "interpolation": 2}]}, "scale_y": {"Points": [{"co": {"X": 1.0, "Y": 1.0}, "interpolation": 2}]}, "shear_x": {"Points": [{"co": {"X": 1.0, "Y": 0.0}, "interpolation": 2}]}, "shear_y": {"Points": [{"co": {"X": 1.0, "Y": 0.0}, "interpolation": 2}]}, "start": 84.28, "time": {"Points": [{"co": {"X": 1.0, "Y": 1.0}, "interpolation": 2}]}, "volume": {"Points": [{"co": {"X": 1.0, "Y": 1.0}, "interpolation": 2}]}, "wave_color": {"alpha": {"Points": [{"co": {"X": 1.0, "Y": 255.0}, "handle_left": {"X": 0.5, "Y": 1.0}, "handle_right": {"X": 0.5, "Y": 0.0}, "handle_type": 0, "interpolation": 0}]}, "blue": {"Points": [{"co": {"X": 1.0, "Y": 255.0}, "handle_left": {"X": 0.5, "Y": 1.0}, "handle_right": {"X": 0.5, "Y": 0.0}, "handle_type": 0, "interpolation": 0}]}, "green": {"Points": [{"co": {"X": 1.0, "Y": 123.0}, "handle_left": {"X": 0.5, "Y": 1.0}, "handle_right": {"X": 0.5, "Y": 0.0}, "handle_type": 0, "interpolation": 0}]}, "red": {"Points": [{"co": {"X": 1.0, "Y": 0.0}, "handle_left": {"X": 0.5, "Y": 1.0}, "handle_right": {"X": 0.5, "Y": 0.0}, "handle_type": 0, "interpolation": 0}]}}, "waveform": false, "file_id": "GKPXCFB7UV", "title": "MVI_1096.MOV", "image": "..\\..\\.openshot_qt\\thumbnail\\GKPXCFB7UV.png"}, {"alpha": {"Points": [{"co": {"X": 1.0, "Y": 1.0}, "interpolation": 2}]}, "anchor": 0, "channel_filter": {"Points": [{"co": {"X": 1.0, "Y": -1.0}, "interpolation": 2}]}, "channel_mapping": {"Points": [{"co": {"X": 1.0, "Y": -1.0}, "interpolation": 2}]}, "crop_height": {"Points": [{"co": {"X": 1.0, "Y": -1.0}, "interpolation": 2}]}, "crop_width": {"Points": [{"co": {"X": 1.0, "Y": -1.0}, "interpolation": 2}]}, "crop_x": {"Points": [{"co": {"X": 1.0, "Y": 0.0}, "interpolation": 2}]}, "crop_y": {"Points": [{"co": {"X": 1.0, "Y": 0.0}, "interpolation": 2}]}, "display": 0, "duration": 19.92000007629395, "effects": [], "end": 18.16, "gravity": 4, "has_audio": {"Points": [{"co": {"X": 1.0, "Y": -1.0}, "interpolation": 2}]}, "has_video": {"Points": [{"co": {"X": 1.0, "Y": -1.0}, "interpolation": 2}]}, "id": "6STXBLLU22", "layer": 1, "location_x": {"Points": [{"co": {"X": 1.0, "Y": 0.0}, "interpolation": 2}]}, "location_y": {"Points": [{"co": {"X": 1.0, "Y": 0.0}, "interpolation": 2}]}, "mixing": 0, "perspective_c1_x": {"Points": [{"co": {"X": 1.0, "Y": -1.0}, "interpolation": 2}]}, "perspective_c1_y": {"Points": [{"co": {"X": 1.0, "Y": -1.0}, "interpolation": 2}]}, "perspective_c2_x": {"Points": [{"co": {"X": 1.0, "Y": -1.0}, "interpolation": 2}]}, "perspective_c2_y": {"Points": [{"co": {"X": 1.0, "Y": -1.0}, "interpolation": 2}]}, "perspective_c3_x": {"Points": [{"co": {"X": 1.0, "Y": -1.0}, "interpolation": 2}]}, "perspective_c3_y": {"Points": [{"co": {"X": 1.0, "Y": -1.0}, "interpolation": 2}]}, "perspective_c4_x": {"Points": [{"co": {"X": 1.0, "Y": -1.0}, "interpolation": 2}]}, "perspective_c4_y": {"Points": [{"co": {"X": 1.0, "Y": -1.0}, "interpolation": 2}]}, "position": 126.25, "reader": {"acodec": "pcm_s16le", "audio_bit_rate": 1536000, "audio_stream_index": 1, "audio_timebase": {"den": 48000, "num": 1}, "channel_layout": 3, "channels": 2, "display_ratio": {"den": 9, "num": 16}, "duration": 19.92000007629395, "file_size": "115743512", "fps": {"den": 1, "num": 25}, "has_audio": true, "has_single_image": false, "has_video": true, "height": 1080, "interlaced_frame": false, "metadata": {"com.apple.quicktime.make": "Canon", "com.apple.quicktime.model": "Canon EOS 700D", "com.apple.quicktime.rating.user": "0.000000", "compatible_brands": "qt  CAEP", "creation_time": "2018-09-19T18:31:27.000000Z", "language": "eng", "major_brand": "qt", "minor_version": "537331968"}, "path": "..\\MVI_1104.MOV", "pixel_format": 12, "pixel_ratio": {"den": 1, "num": 1}, "sample_rate": 48000, "top_field_first": true, "type": "FFmpegReader", "vcodec": "h264", "video_bit_rate": 46483338, "video_length": "498", "video_stream_index": 0, "video_timebase": {"den": 25000, "num": 1}, "width": 1920}, "rotation": {"Points": [{"co": {"X": 1.0, "Y": 0.0}, "interpolation": 2}]}, "scale": 1, "scale_x": {"Points": [{"co": {"X": 1.0, "Y": 1.0}, "interpolation": 2}]}, "scale_y": {"Points": [{"co": {"X": 1.0, "Y": 1.0}, "interpolation": 2}]}, "shear_x": {"Points": [{"co": {"X": 1.0, "Y": 0.0}, "interpolation": 2}]}, "shear_y": {"Points": [{"co": {"X": 1.0, "Y": 0.0}, "interpolation": 2}]}, "start": 2.76, "time": {"Points": [{"co": {"X": 1.0, "Y": 1.0}, "interpolation": 2}]}, "volume": {"Points": [{"co": {"X": 1.0, "Y": 1.0}, "interpolation": 2}]}, "wave_color": {"alpha": {"Points": [{"co": {"X": 1.0, "Y": 255.0}, "handle_left": {"X": 0.5, "Y": 1.0}, "handle_right": {"X": 0.5, "Y": 0.0}, "handle_type": 0, "interpolation": 0}]}, "blue": {"Points": [{"co": {"X": 1.0, "Y": 255.0}, "handle_left": {"X": 0.5, "Y": 1.0}, "handle_right": {"X": 0.5, "Y": 0.0}, "handle_type": 0, "interpolation": 0}]}, "green": {"Points": [{"co": {"X": 1.0, "Y": 123.0}, "handle_left": {"X": 0.5, "Y": 1.0}, "handle_right": {"X": 0.5, "Y": 0.0}, "handle_type": 0, "interpolation": 0}]}, "red": {"Points": [{"co": {"X": 1.0, "Y": 0.0}, "handle_left": {"X": 0.5, "Y": 1.0}, "handle_right": {"X": 0.5, "Y": 0.0}, "handle_type": 0, "interpolation": 0}]}}, "waveform": false, "file_id": "2NNMP6SN00", "title": "MVI_1104.MOV", "image": "..\\..\\.openshot_qt\\thumbnail\\2NNMP6SN00.png"}], "effects": [], "export_path": "", "import_path": "C:/Users/jcrem/Desktop", "files": [{"acodec": "pcm_s16le", "audio_bit_rate": 1536000, "audio_stream_index": 1, "audio_timebase": {"den": 48000, "num": 1}, "channel_layout": 3, "channels": 2, "display_ratio": {"den": 9, "num": 16}, "duration": 169.1199951171875, "file_size": "964560360", "fps": {"den": 1, "num": 25}, "has_audio": true, "has_single_image": false, "has_video": true, "height": 1080, "interlaced_frame": false, "metadata": {"com.apple.quicktime.make": "Canon", "com.apple.quicktime.model": "Canon EOS 700D", "com.apple.quicktime.rating.user": "0.000000", "compatible_brands": "qt  CAEP", "creation_time": "2018-09-19T17:53:38.000000Z", "language": "eng", "major_brand": "qt", "minor_version": "537331968"}, "path": "..\\MVI_1094.MOV", "pixel_format": 12, "pixel_ratio": {"den": 1, "num": 1}, "sample_rate": 48000, "top_field_first": true, "type": "FFmpegReader", "vcodec": "h264", "video_bit_rate": 45627263, "video_length": "4228", "video_stream_index": 0, "video_timebase": {"den": 25000, "num": 1}, "width": 1920, "media_type": "video", "id": "QID10QKEBS"}, {"acodec": "pcm_s16le", "audio_bit_rate": 1536000, "audio_stream_index": 1, "audio_timebase": {"den": 48000, "num": 1}, "channel_layout": 3, "channels": 2, "display_ratio": {"den": 9, "num": 16}, "duration": 169.1199951171875, "file_size": "964560360", "fps": {"den": 1, "num": 25}, "has_audio": true, "has_single_image": false, "has_video": true, "height": 1080, "interlaced_frame": false, "metadata": {"com.apple.quicktime.make": "Canon", "com.apple.quicktime.model": "Canon EOS 700D", "com.apple.quicktime.rating.user": "0.000000", "compatible_brands": "qt  CAEP", "creation_time": "2018-09-19T17:53:38.000000Z", "language": "eng", "major_brand": "qt", "minor_version": "537331968"}, "path": "..\\MVI_1094.MOV", "pixel_format": 12, "pixel_ratio": {"den": 1, "num": 1}, "sample_rate": 48000, "top_field_first": true, "type": "FFmpegReader", "vcodec": "h264", "video_bit_rate": 45627263, "video_length": "4228", "video_stream_index": 0, "video_timebase": {"den": 25000, "num": 1}, "width": 1920, "media_type": "video", "id": "G9CEIUAJTC", "start": 94.0, "end": 150.6, "name": "Configuration"}, {"acodec": "pcm_s16le", "audio_bit_rate": 1536000, "audio_stream_index": 1, "audio_timebase": {"den": 48000, "num": 1}, "channel_layout": 3, "channels": 2, "display_ratio": {"den": 9, "num": 16}, "duration": 126.2399978637695, "file_size": "717454036", "fps": {"den": 1, "num": 25}, "has_audio": true, "has_single_image": false, "has_video": true, "height": 1080, "interlaced_frame": false, "metadata": {"com.apple.quicktime.make": "Canon", "com.apple.quicktime.model": "Canon EOS 700D", "com.apple.quicktime.rating.user": "0.000000", "compatible_brands": "qt  CAEP", "creation_time": "2018-09-19T18:12:35.000000Z", "language": "eng", "major_brand": "qt", "minor_version": "537331968"}, "path": "..\\MVI_1100.MOV", "pixel_format": 12, "pixel_ratio": {"den": 1, "num": 1}, "sample_rate": 48000, "top_field_first": true, "type": "FFmpegReader", "vcodec": "h264", "video_bit_rate": 45466035, "video_length": "3156", "video_stream_index": 0, "video_timebase": {"den": 25000, "num": 1}, "width": 1920, "media_type": "video", "id": "0CAS2RD4ZH"}, {"acodec": "pcm_s16le", "audio_bit_rate": 1536000, "audio_stream_index": 1, "audio_timebase": {"den": 48000, "num": 1}, "channel_layout": 3, "channels": 2, "display_ratio": {"den": 9, "num": 16}, "duration": 126.2399978637695, "file_size": "717454036", "fps": {"den": 1, "num": 25}, "has_audio": true, "has_single_image": false, "has_video": true, "height": 1080, "interlaced_frame": false, "metadata": {"com.apple.quicktime.make": "Canon", "com.apple.quicktime.model": "Canon EOS 700D", "com.apple.quicktime.rating.user": "0.000000", "compatible_brands": "qt  CAEP", "creation_time": "2018-09-19T18:12:35.000000Z", "language": "eng", "major_brand": "qt", "minor_version": "537331968"}, "path": "..\\MVI_1100.MOV", "pixel_format": 12, "pixel_ratio": {"den": 1, "num": 1}, "sample_rate": 48000, "top_field_first": true, "type": "FFmpegReader", "vcodec": "h264", "video_bit_rate": 45466035, "video_length": "3156", "video_stream_index": 0, "video_timebase": {"den": 25000, "num": 1}, "width": 1920, "media_type": "video", "id": "QUUHNKYT4W", "start": 52.92, "end": 71.92, "name": "Analyse_01"}, {"acodec": "pcm_s16le", "audio_bit_rate": 1536000, "audio_stream_index": 1, "audio_timebase": {"den": 48000, "num": 1}, "channel_layout": 3, "channels": 2, "display_ratio": {"den": 9, "num": 16}, "duration": 199.7200012207031, "file_size": "1134495908", "fps": {"den": 1, "num": 25}, "has_audio": true, "has_single_image": false, "has_video": true, "height": 1080, "interlaced_frame": false, "metadata": {"com.apple.quicktime.make": "Canon", "com.apple.quicktime.model": "Canon EOS 700D", "com.apple.quicktime.rating.user": "0.000000", "compatible_brands": "qt  CAEP", "creation_time": "2018-09-19T18:07:25.000000Z", "language": "eng", "major_brand": "qt", "minor_version": "537331968"}, "path": "..\\MVI_1099.MOV", "pixel_format": 12, "pixel_ratio": {"den": 1, "num": 1}, "sample_rate": 48000, "top_field_first": true, "type": "FFmpegReader", "vcodec": "h264", "video_bit_rate": 45443457, "video_length": "4993", "video_stream_index": 0, "video_timebase": {"den": 25000, "num": 1}, "width": 1920, "media_type": "video", "id": "064I6PNM96"}, {"acodec": "pcm_s16le", "audio_bit_rate": 1536000, "audio_stream_index": 1, "audio_timebase": {"den": 48000, "num": 1}, "channel_layout": 3, "channels": 2, "display_ratio": {"den": 9, "num": 16}, "duration": 199.7200012207031, "file_size": "1134495908", "fps": {"den": 1, "num": 25}, "has_audio": true, "has_single_image": false, "has_video": true, "height": 1080, "interlaced_frame": false, "metadata": {"com.apple.quicktime.make": "Canon", "com.apple.quicktime.model": "Canon EOS 700D", "com.apple.quicktime.rating.user": "0.000000", "compatible_brands": "qt  CAEP", "creation_time": "2018-09-19T18:07:25.000000Z", "language": "eng", "major_brand": "qt", "minor_version": "537331968"}, "path": "..\\MVI_1099.MOV", "pixel_format": 12, "pixel_ratio": {"den": 1, "num": 1}, "sample_rate": 48000, "top_field_first": true, "type": "FFmpegReader", "vcodec": "h264", "video_bit_rate": 45443457, "video_length": "4993", "video_stream_index": 0, "video_timebase": {"den": 25000, "num": 1}, "width": 1920, "media_type": "video", "id": "DNDKK8784V", "start": 106.8, "end": 122.88, "name": "Nounours"}, {"acodec": "pcm_s16le", "audio_bit_rate": 1536000, "audio_stream_index": 1, "audio_timebase": {"den": 48000, "num": 1}, "channel_layout": 3, "channels": 2, "display_ratio": {"den": 9, "num": 16}, "duration": 97.68000030517578, "file_size": "553430096", "fps": {"den": 1, "num": 25}, "has_audio": true, "has_single_image": false, "has_video": true, "height": 1080, "interlaced_frame": false, "metadata": {"com.apple.quicktime.make": "Canon", "com.apple.quicktime.model": "Canon EOS 700D", "com.apple.quicktime.rating.user": "0.000000", "compatible_brands": "qt  CAEP", "creation_time": "2018-09-19T18:15:00.000000Z", "language": "eng", "major_brand": "qt", "minor_version": "537331968"}, "path": "..\\MVI_1101.MOV", "pixel_format": 12, "pixel_ratio": {"den": 1, "num": 1}, "sample_rate": 48000, "top_field_first": true, "type": "FFmpegReader", "vcodec": "h264", "video_bit_rate": 45325970, "video_length": "2442", "video_stream_index": 0, "video_timebase": {"den": 25000, "num": 1}, "width": 1920, "media_type": "video", "id": "AQJTZ7FVMD"}, {"acodec": "pcm_s16le", "audio_bit_rate": 1536000, "audio_stream_index": 1, "audio_timebase": {"den": 48000, "num": 1}, "channel_layout": 3, "channels": 2, "display_ratio": {"den": 9, "num": 16}, "duration": 97.68000030517578, "file_size": "553430096", "fps": {"den": 1, "num": 25}, "has_audio": true, "has_single_image": false, "has_video": true, "height": 1080, "interlaced_frame": false, "metadata": {"com.apple.quicktime.make": "Canon", "com.apple.quicktime.model": "Canon EOS 700D", "com.apple.quicktime.rating.user": "0.000000", "compatible_brands": "qt  CAEP", "creation_time": "2018-09-19T18:15:00.000000Z", "language": "eng", "major_brand": "qt", "minor_version": "537331968"}, "path": "..\\MVI_1101.MOV", "pixel_format": 12, "pixel_ratio": {"den": 1, "num": 1}, "sample_rate": 48000, "top_field_first": true, "type": "FFmpegReader", "vcodec": "h264", "video_bit_rate": 45325970, "video_length": "2442", "video_stream_index": 0, "video_timebase": {"den": 25000, "num": 1}, "width": 1920, "media_type": "video", "id": "Z21W6844ZK", "start": 45.4, "end": 59.32, "name": "Analyse_3"}, {"acodec": "pcm_s16le", "audio_bit_rate": 1536000, "audio_stream_index": 1, "audio_timebase": {"den": 48000, "num": 1}, "channel_layout": 3, "channels": 2, "display_ratio": {"den": 9, "num": 16}, "duration": 189.5599975585938, "file_size": "1086576176", "fps": {"den": 1, "num": 25}, "has_audio": true, "has_single_image": false, "has_video": true, "height": 1080, "interlaced_frame": false, "metadata": {"com.apple.quicktime.make": "Canon", "com.apple.quicktime.model": "Canon EOS 700D", "com.apple.quicktime.rating.user": "0.000000", "compatible_brands": "qt  CAEP", "creation_time": "2018-09-19T17:59:33.000000Z", "language": "eng", "major_brand": "qt", "minor_version": "537331968"}, "path": "..\\MVI_1096.MOV", "pixel_format": 12, "pixel_ratio": {"den": 1, "num": 1}, "sample_rate": 48000, "top_field_first": true, "type": "FFmpegReader", "vcodec": "h264", "video_bit_rate": 45856770, "video_length": "4739", "video_stream_index": 0, "video_timebase": {"den": 25000, "num": 1}, "width": 1920, "media_type": "video", "id": "G80KP7BOGP"}, {"acodec": "pcm_s16le", "audio_bit_rate": 1536000, "audio_stream_index": 1, "audio_timebase": {"den": 48000, "num": 1}, "channel_layout": 3, "channels": 2, "display_ratio": {"den": 9, "num": 16}, "duration": 189.5599975585938, "file_size": "1086576176", "fps": {"den": 1, "num": 25}, "has_audio": true, "has_single_image": false, "has_video": true, "height": 1080, "interlaced_frame": false, "metadata": {"com.apple.quicktime.make": "Canon", "com.apple.quicktime.model": "Canon EOS 700D", "com.apple.quicktime.rating.user": "0.000000", "compatible_brands": "qt  CAEP", "creation_time": "2018-09-19T17:59:33.000000Z", "language": "eng", "major_brand": "qt", "minor_version": "537331968"}, "path": "..\\MVI_1096.MOV", "pixel_format": 12, "pixel_ratio": {"den": 1, "num": 1}, "sample_rate": 48000, "top_field_first": true, "type": "FFmpegReader", "vcodec": "h264", "video_bit_rate": 45856770, "video_length": "4739", "video_stream_index": 0, "video_timebase": {"den": 25000, "num": 1}, "width": 1920, "media_type": "video", "id": "GKPXCFB7UV", "start": 84.28, "end": 105.24, "name": "Analyse_4"}, {"acodec": "pcm_s16le", "audio_bit_rate": 1536000, "audio_stream_index": 1, "audio_timebase": {"den": 48000, "num": 1}, "channel_layout": 3, "channels": 2, "display_ratio": {"den": 9, "num": 16}, "duration": 19.92000007629395, "file_size": "115743512", "fps": {"den": 1, "num": 25}, "has_audio": true, "has_single_image": false, "has_video": true, "height": 1080, "interlaced_frame": false, "metadata": {"com.apple.quicktime.make": "Canon", "com.apple.quicktime.model": "Canon EOS 700D", "com.apple.quicktime.rating.user": "0.000000", "compatible_brands": "qt  CAEP", "creation_time": "2018-09-19T18:31:27.000000Z", "language": "eng", "major_brand": "qt", "minor_version": "537331968"}, "path": "..\\MVI_1104.MOV", "pixel_format": 12, "pixel_ratio": {"den": 1, "num": 1}, "sample_rate": 48000, "top_field_first": true, "type": "FFmpegReader", "vcodec": "h264", "video_bit_rate": 46483338, "video_length": "498", "video_stream_index": 0, "video_timebase": {"den": 25000, "num": 1}, "width": 1920, "media_type": "video", "id": "8MNNJXP0NJ"}, {"acodec": "pcm_s16le", "audio_bit_rate": 1536000, "audio_stream_index": 1, "audio_timebase": {"den": 48000, "num": 1}, "channel_layout": 3, "channels": 2, "display_ratio": {"den": 9, "num": 16}, "duration": 19.92000007629395, "file_size": "115743512", "fps": {"den": 1, "num": 25}, "has_audio": true, "has_single_image": false, "has_video": true, "height": 1080, "interlaced_frame": false, "metadata": {"com.apple.quicktime.make": "Canon", "com.apple.quicktime.model": "Canon EOS 700D", "com.apple.quicktime.rating.user": "0.000000", "compatible_brands": "qt  CAEP", "creation_time": "2018-09-19T18:31:27.000000Z", "language": "eng", "major_brand": "qt", "minor_version": "537331968"}, "path": "..\\MVI_1104.MOV", "pixel_format": 12, "pixel_ratio": {"den": 1, "num": 1}, "sample_rate": 48000, "top_field_first": true, "type": "FFmpegReader", "vcodec": "h264", "video_bit_rate": 46483338, "video_length": "498", "video_stream_index": 0, "video_timebase": {"den": 25000, "num": 1}, "width": 1920, "media_type": "video", "id": "2NNMP6SN00", "start": 2.76, "end": 18.16, "name": "Analyse_5"}], "duration": 300, "scale": 16, "tick_pixels": 100, "playhead_position": 0, "profile": "HDV 720 24p", "layers": [{"id": "L0", "label": "", "number": 0, "y": 0, "lock": false}, {"id": "L1", "label": "", "number": 1, "y": 0, "lock": false}, {"id": "L2", "label": "", "number": 2, "y": 0, "lock": false}, {"id": "L3", "label": "", "number": 3, "y": 0, "lock": false}, {"id": "L4", "label": "", "number": 4, "y": 0, "lock": false}], "markers": [], "progress": [], "history": {"undo": [{"type": "insert", "key": ["files"], "value": {"acodec": "pcm_s16le", "audio_bit_rate": 1536000, "audio_stream_index": 1, "audio_timebase": {"den": 48000, "num": 1}, "channel_layout": 3, "channels": 2, "display_ratio": {"den": 9, "num": 16}, "duration": 189.5599975585938, "file_size": "1086576176", "fps": {"den": 1, "num": 25}, "has_audio": true, "has_single_image": false, "has_video": true, "height": 1080, "interlaced_frame": false, "metadata": {"com.apple.quicktime.make": "Canon", "com.apple.quicktime.model": "Canon EOS 700D", "com.apple.quicktime.rating.user": "0.000000", "compatible_brands": "qt  CAEP", "creation_time": "2018-09-19T17:59:33.000000Z", "language": "eng", "major_brand": "qt", "minor_version": "537331968"}, "path": "C:/Users/jcrem/Desktop/MVI_1096.MOV", "pixel_format": 12, "pixel_ratio": {"den": 1, "num": 1}, "sample_rate": 48000, "top_field_first": true, "type": "FFmpegReader", "vcodec": "h264", "video_bit_rate": 45856770, "video_length": "4739", "video_stream_index": 0, "video_timebase": {"den": 25000, "num": 1}, "width": 1920, "media_type": "video", "id": "G80KP7BOGP"}, "partial": false, "old_values": [{"acodec": "pcm_s16le", "audio_bit_rate": 1536000, "audio_stream_index": 1, "audio_timebase": {"den": 48000, "num": 1}, "channel_layout": 3, "channels": 2, "display_ratio": {"den": 9, "num": 16}, "duration": 169.1199951171875, "file_size": "964560360", "fps": {"den": 1, "num": 25}, "has_audio": true, "has_single_image": false, "has_video": true, "height": 1080, "interlaced_frame": false, "metadata": {"com.apple.quicktime.make": "Canon", "com.apple.quicktime.model": "Canon EOS 700D", "com.apple.quicktime.rating.user": "0.000000", "compatible_brands": "qt  CAEP", "creation_time": "2018-09-19T17:53:38.000000Z", "language": "eng", "major_brand": "qt", "minor_version": "537331968"}, "path": "C:/Users/jcrem/Desktop/MVI_1094.MOV", "pixel_format": 12, "pixel_ratio": {"den": 1, "num": 1}, "sample_rate": 48000, "top_field_first": true, "type": "FFmpegReader", "vcodec": "h264", "video_bit_rate": 45627263, "video_length": "4228", "video_stream_index": 0, "video_timebase": {"den": 25000, "num": 1}, "width": 1920, "media_type": "video", "id": "QID10QKEBS"}, {"acodec": "pcm_s16le", "audio_bit_rate": 1536000, "audio_stream_index": 1, "audio_timebase": {"den": 48000, "num": 1}, "channel_layout": 3, "channels": 2, "display_ratio": {"den": 9, "num": 16}, "duration": 169.1199951171875, "file_size": "964560360", "fps": {"den": 1, "num": 25}, "has_audio": true, "has_single_image": false, "has_video": true, "height": 1080, "interlaced_frame": false, "metadata": {"com.apple.quicktime.make": "Canon", "com.apple.quicktime.model": "Canon EOS 700D", "com.apple.quicktime.rating.user": "0.000000", "compatible_brands": "qt  CAEP", "creation_time": "2018-09-19T17:53:38.000000Z", "language": "eng", "major_brand": "qt", "minor_version": "537331968"}, "path": "C:/Users/jcrem/Desktop/MVI_1094.MOV", "pixel_format": 12, "pixel_ratio": {"den": 1, "num": 1}, "sample_rate": 48000, "top_field_first": true, "type": "FFmpegReader", "vcodec": "h264", "video_bit_rate": 45627263, "video_length": "4228", "video_stream_index": 0, "video_timebase": {"den": 25000, "num": 1}, "width": 1920, "media_type": "video", "id": "G9CEIUAJTC", "start": 94.0, "end": 150.6, "name": "Configuration"}, {"acodec": "pcm_s16le", "audio_bit_rate": 1536000, "audio_stream_index": 1, "audio_timebase": {"den": 48000, "num": 1}, "channel_layout": 3, "channels": 2, "display_ratio": {"den": 9, "num": 16}, "duration": 126.2399978637695, "file_size": "717454036", "fps": {"den": 1, "num": 25}, "has_audio": true, "has_single_image": false, "has_video": true, "height": 1080, "interlaced_frame": false, "metadata": {"com.apple.quicktime.make": "Canon", "com.apple.quicktime.model": "Canon EOS 700D", "com.apple.quicktime.rating.user": "0.000000", "compatible_brands": "qt  CAEP", "creation_time": "2018-09-19T18:12:35.000000Z", "language": "eng", "major_brand": "qt", "minor_version": "537331968"}, "path": "C:/Users/jcrem/Desktop/MVI_1100.MOV", "pixel_format": 12, "pixel_ratio": {"den": 1, "num": 1}, "sample_rate": 48000, "top_field_first": true, "type": "FFmpegReader", "vcodec": "h264", "video_bit_rate": 45466035, "video_length": "3156", "video_stream_index": 0, "video_timebase": {"den": 25000, "num": 1}, "width": 1920, "media_type": "video", "id": "0CAS2RD4ZH"}, {"acodec": "pcm_s16le", "audio_bit_rate": 1536000, "audio_stream_index": 1, "audio_timebase": {"den": 48000, "num": 1}, "channel_layout": 3, "channels": 2, "display_ratio": {"den": 9, "num": 16}, "duration": 126.2399978637695, "file_size": "717454036", "fps": {"den": 1, "num": 25}, "has_audio": true, "has_single_image": false, "has_video": true, "height": 1080, "interlaced_frame": false, "metadata": {"com.apple.quicktime.make": "Canon", "com.apple.quicktime.model": "Canon EOS 700D", "com.apple.quicktime.rating.user": "0.000000", "compatible_brands": "qt  CAEP", "creation_time": "2018-09-19T18:12:35.000000Z", "language": "eng", "major_brand": "qt", "minor_version": "537331968"}, "path": "C:/Users/jcrem/Desktop/MVI_1100.MOV", "pixel_format": 12, "pixel_ratio": {"den": 1, "num": 1}, "sample_rate": 48000, "top_field_first": true, "type": "FFmpegReader", "vcodec": "h264", "video_bit_rate": 45466035, "video_length": "3156", "video_stream_index": 0, "video_timebase": {"den": 25000, "num": 1}, "width": 1920, "media_type": "video", "id": "QUUHNKYT4W", "start": 52.92, "end": 71.92, "name": "Analyse_01"}, {"acodec": "pcm_s16le", "audio_bit_rate": 1536000, "audio_stream_index": 1, "audio_timebase": {"den": 48000, "num": 1}, "channel_layout": 3, "channels": 2, "display_ratio": {"den": 9, "num": 16}, "duration": 199.7200012207031, "file_size": "1134495908", "fps": {"den": 1, "num": 25}, "has_audio": true, "has_single_image": false, "has_video": true, "height": 1080, "interlaced_frame": false, "metadata": {"com.apple.quicktime.make": "Canon", "com.apple.quicktime.model": "Canon EOS 700D", "com.apple.quicktime.rating.user": "0.000000", "compatible_brands": "qt  CAEP", "creation_time": "2018-09-19T18:07:25.000000Z", "language": "eng", "major_brand": "qt", "minor_version": "537331968"}, "path": "C:/Users/jcrem/Desktop/MVI_1099.MOV", "pixel_format": 12, "pixel_ratio": {"den": 1, "num": 1}, "sample_rate": 48000, "top_field_first": true, "type": "FFmpegReader", "vcodec": "h264", "video_bit_rate": 45443457, "video_length": "4993", "video_stream_index": 0, "video_timebase": {"den": 25000, "num": 1}, "width": 1920, "media_type": "video", "id": "064I6PNM96"}, {"acodec": "pcm_s16le", "audio_bit_rate": 1536000, "audio_stream_index": 1, "audio_timebase": {"den": 48000, "num": 1}, "channel_layout": 3, "channels": 2, "display_ratio": {"den": 9, "num": 16}, "duration": 199.7200012207031, "file_size": "1134495908", "fps": {"den": 1, "num": 25}, "has_audio": true, "has_single_image": false, "has_video": true, "height": 1080, "interlaced_frame": false, "metadata": {"com.apple.quicktime.make": "Canon", "com.apple.quicktime.model": "Canon EOS 700D", "com.apple.quicktime.rating.user": "0.000000", "compatible_brands": "qt  CAEP", "creation_time": "2018-09-19T18:07:25.000000Z", "language": "eng", "major_brand": "qt", "minor_version": "537331968"}, "path": "C:/Users/jcrem/Desktop/MVI_1099.MOV", "pixel_format": 12, "pixel_ratio": {"den": 1, "num": 1}, "sample_rate": 48000, "top_field_first": true, "type": "FFmpegReader", "vcodec": "h264", "video_bit_rate": 45443457, "video_length": "4993", "video_stream_index": 0, "video_timebase": {"den": 25000, "num": 1}, "width": 1920, "media_type": "video", "id": "DNDKK8784V", "start": 106.8, "end": 122.88, "name": "Nounours"}, {"acodec": "pcm_s16le", "audio_bit_rate": 1536000, "audio_stream_index": 1, "audio_timebase": {"den": 48000, "num": 1}, "channel_layout": 3, "channels": 2, "display_ratio": {"den": 9, "num": 16}, "duration": 97.68000030517578, "file_size": "553430096", "fps": {"den": 1, "num": 25}, "has_audio": true, "has_single_image": false, "has_video": true, "height": 1080, "interlaced_frame": false, "metadata": {"com.apple.quicktime.make": "Canon", "com.apple.quicktime.model": "Canon EOS 700D", "com.apple.quicktime.rating.user": "0.000000", "compatible_brands": "qt  CAEP", "creation_time": "2018-09-19T18:15:00.000000Z", "language": "eng", "major_brand": "qt", "minor_version": "537331968"}, "path": "C:/Users/jcrem/Desktop/MVI_1101.MOV", "pixel_format": 12, "pixel_ratio": {"den": 1, "num": 1}, "sample_rate": 48000, "top_field_first": true, "type": "FFmpegReader", "vcodec": "h264", "video_bit_rate": 45325970, "video_length": "2442", "video_stream_index": 0, "video_timebase": {"den": 25000, "num": 1}, "width": 1920, "media_type": "video", "id": "AQJTZ7FVMD"}, {"acodec": "pcm_s16le", "audio_bit_rate": 1536000, "audio_stream_index": 1, "audio_timebase": {"den": 48000, "num": 1}, "channel_layout": 3, "channels": 2, "display_ratio": {"den": 9, "num": 16}, "duration": 97.68000030517578, "file_size": "553430096", "fps": {"den": 1, "num": 25}, "has_audio": true, "has_single_image": false, "has_video": true, "height": 1080, "interlaced_frame": false, "metadata": {"com.apple.quicktime.make": "Canon", "com.apple.quicktime.model": "Canon EOS 700D", "com.apple.quicktime.rating.user": "0.000000", "compatible_brands": "qt  CAEP", "creation_time": "2018-09-19T18:15:00.000000Z", "language": "eng", "major_brand": "qt", "minor_version": "537331968"}, "path": "C:/Users/jcrem/Desktop/MVI_1101.MOV", "pixel_format": 12, "pixel_ratio": {"den": 1, "num": 1}, "sample_rate": 48000, "top_field_first": true, "type": "FFmpegReader", "vcodec": "h264", "video_bit_rate": 45325970, "video_length": "2442", "video_stream_index": 0, "video_timebase": {"den": 25000, "num": 1}, "width": 1920, "media_type": "video", "id": "Z21W6844ZK", "start": 45.4, "end": 59.32, "name": "Analyse_3"}]}, {"type": "update", "key": ["import_path"], "value": "C:/Users/jcrem/Desktop", "partial": false, "old_values": "C:/Users/jcrem/Desktop"}, {"type": "insert", "key": ["files"], "value": {"acodec": "pcm_s16le", "audio_bit_rate": 1536000, "audio_stream_index": 1, "audio_timebase": {"den": 48000, "num": 1}, "channel_layout": 3, "channels": 2, "display_ratio": {"den": 9, "num": 16}, "duration": 189.5599975585938, "file_size": "1086576176", "fps": {"den": 1, "num": 25}, "has_audio": true, "has_single_image": false, "has_video": true, "height": 1080, "interlaced_frame": false, "metadata": {"com.apple.quicktime.make": "Canon", "com.apple.quicktime.model": "Canon EOS 700D", "com.apple.quicktime.rating.user": "0.000000", "compatible_brands": "qt  CAEP", "creation_time": "2018-09-19T17:59:33.000000Z", "language": "eng", "major_brand": "qt", "minor_version": "537331968"}, "path": "C:/Users/jcrem/Desktop/MVI_1096.MOV", "pixel_format": 12, "pixel_ratio": {"den": 1, "num": 1}, "sample_rate": 48000, "top_field_first": true, "type": "FFmpegReader", "vcodec": "h264", "video_bit_rate": 45856770, "video_length": "4739", "video_stream_index": 0, "video_timebase": {"den": 25000, "num": 1}, "width": 1920, "media_type": "video", "id": "GKPXCFB7UV", "start": 84.28, "end": 105.24, "name": "Analyse_4"}, "partial": false, "old_values": [{"acodec": "pcm_s16le", "audio_bit_rate": 1536000, "audio_stream_index": 1, "audio_timebase": {"den": 48000, "num": 1}, "channel_layout": 3, "channels": 2, "display_ratio": {"den": 9, "num": 16}, "duration": 169.1199951171875, "file_size": "964560360", "fps": {"den": 1, "num": 25}, "has_audio": true, "has_single_image": false, "has_video": true, "height": 1080, "interlaced_frame": false, "metadata": {"com.apple.quicktime.make": "Canon", "com.apple.quicktime.model": "Canon EOS 700D", "com.apple.quicktime.rating.user": "0.000000", "compatible_brands": "qt  CAEP", "creation_time": "2018-09-19T17:53:38.000000Z", "language": "eng", "major_brand": "qt", "minor_version": "537331968"}, "path": "C:/Users/jcrem/Desktop/MVI_1094.MOV", "pixel_format": 12, "pixel_ratio": {"den": 1, "num": 1}, "sample_rate": 48000, "top_field_first": true, "type": "FFmpegReader", "vcodec": "h264", "video_bit_rate": 45627263, "video_length": "4228", "video_stream_index": 0, "video_timebase": {"den": 25000, "num": 1}, "width": 1920, "media_type": "video", "id": "QID10QKEBS"}, {"acodec": "pcm_s16le", "audio_bit_rate": 1536000, "audio_stream_index": 1, "audio_timebase": {"den": 48000, "num": 1}, "channel_layout": 3, "channels": 2, "display_ratio": {"den": 9, "num": 16}, "duration": 169.1199951171875, "file_size": "964560360", "fps": {"den": 1, "num": 25}, "has_audio": true, "has_single_image": false, "has_video": true, "height": 1080, "interlaced_frame": false, "metadata": {"com.apple.quicktime.make": "Canon", "com.apple.quicktime.model": "Canon EOS 700D", "com.apple.quicktime.rating.user": "0.000000", "compatible_brands": "qt  CAEP", "creation_time": "2018-09-19T17:53:38.000000Z", "language": "eng", "major_brand": "qt", "minor_version": "537331968"}, "path": "C:/Users/jcrem/Desktop/MVI_1094.MOV", "pixel_format": 12, "pixel_ratio": {"den": 1, "num": 1}, "sample_rate": 48000, "top_field_first": true, "type": "FFmpegReader", "vcodec": "h264", "video_bit_rate": 45627263, "video_length": "4228", "video_stream_index": 0, "video_timebase": {"den": 25000, "num": 1}, "width": 1920, "media_type": "video", "id": "G9CEIUAJTC", "start": 94.0, "end": 150.6, "name": "Configuration"}, {"acodec": "pcm_s16le", "audio_bit_rate": 1536000, "audio_stream_index": 1, "audio_timebase": {"den": 48000, "num": 1}, "channel_layout": 3, "channels": 2, "display_ratio": {"den": 9, "num": 16}, "duration": 126.2399978637695, "file_size": "717454036", "fps": {"den": 1, "num": 25}, "has_audio": true, "has_single_image": false, "has_video": true, "height": 1080, "interlaced_frame": false, "metadata": {"com.apple.quicktime.make": "Canon", "com.apple.quicktime.model": "Canon EOS 700D", "com.apple.quicktime.rating.user": "0.000000", "compatible_brands": "qt  CAEP", "creation_time": "2018-09-19T18:12:35.000000Z", "language": "eng", "major_brand": "qt", "minor_version": "537331968"}, "path": "C:/Users/jcrem/Desktop/MVI_1100.MOV", "pixel_format": 12, "pixel_ratio": {"den": 1, "num": 1}, "sample_rate": 48000, "top_field_first": true, "type": "FFmpegReader", "vcodec": "h264", "video_bit_rate": 45466035, "video_length": "3156", "video_stream_index": 0, "video_timebase": {"den": 25000, "num": 1}, "width": 1920, "media_type": "video", "id": "0CAS2RD4ZH"}, {"acodec": "pcm_s16le", "audio_bit_rate": 1536000, "audio_stream_index": 1, "audio_timebase": {"den": 48000, "num": 1}, "channel_layout": 3, "channels": 2, "display_ratio": {"den": 9, "num": 16}, "duration": 126.2399978637695, "file_size": "717454036", "fps": {"den": 1, "num": 25}, "has_audio": true, "has_single_image": false, "has_video": true, "height": 1080, "interlaced_frame": false, "metadata": {"com.apple.quicktime.make": "Canon", "com.apple.quicktime.model": "Canon EOS 700D", "com.apple.quicktime.rating.user": "0.000000", "compatible_brands": "qt  CAEP", "creation_time": "2018-09-19T18:12:35.000000Z", "language": "eng", "major_brand": "qt", "minor_version": "537331968"}, "path": "C:/Users/jcrem/Desktop/MVI_1100.MOV", "pixel_format": 12, "pixel_ratio": {"den": 1, "num": 1}, "sample_rate": 48000, "top_field_first": true, "type": "FFmpegReader", "vcodec": "h264", "video_bit_rate": 45466035, "video_length": "3156", "video_stream_index": 0, "video_timebase": {"den": 25000, "num": 1}, "width": 1920, "media_type": "video", "id": "QUUHNKYT4W", "start": 52.92, "end": 71.92, "name": "Analyse_01"}, {"acodec": "pcm_s16le", "audio_bit_rate": 1536000, "audio_stream_index": 1, "audio_timebase": {"den": 48000, "num": 1}, "channel_layout": 3, "channels": 2, "display_ratio": {"den": 9, "num": 16}, "duration": 199.7200012207031, "file_size": "1134495908", "fps": {"den": 1, "num": 25}, "has_audio": true, "has_single_image": false, "has_video": true, "height": 1080, "interlaced_frame": false, "metadata": {"com.apple.quicktime.make": "Canon", "com.apple.quicktime.model": "Canon EOS 700D", "com.apple.quicktime.rating.user": "0.000000", "compatible_brands": "qt  CAEP", "creation_time": "2018-09-19T18:07:25.000000Z", "language": "eng", "major_brand": "qt", "minor_version": "537331968"}, "path": "C:/Users/jcrem/Desktop/MVI_1099.MOV", "pixel_format": 12, "pixel_ratio": {"den": 1, "num": 1}, "sample_rate": 48000, "top_field_first": true, "type": "FFmpegReader", "vcodec": "h264", "video_bit_rate": 45443457, "video_length": "4993", "video_stream_index": 0, "video_timebase": {"den": 25000, "num": 1}, "width": 1920, "media_type": "video", "id": "064I6PNM96"}, {"acodec": "pcm_s16le", "audio_bit_rate": 1536000, "audio_stream_index": 1, "audio_timebase": {"den": 48000, "num": 1}, "channel_layout": 3, "channels": 2, "display_ratio": {"den": 9, "num": 16}, "duration": 199.7200012207031, "file_size": "1134495908", "fps": {"den": 1, "num": 25}, "has_audio": true, "has_single_image": false, "has_video": true, "height": 1080, "interlaced_frame": false, "metadata": {"com.apple.quicktime.make": "Canon", "com.apple.quicktime.model": "Canon EOS 700D", "com.apple.quicktime.rating.user": "0.000000", "compatible_brands": "qt  CAEP", "creation_time": "2018-09-19T18:07:25.000000Z", "language": "eng", "major_brand": "qt", "minor_version": "537331968"}, "path": "C:/Users/jcrem/Desktop/MVI_1099.MOV", "pixel_format": 12, "pixel_ratio": {"den": 1, "num": 1}, "sample_rate": 48000, "top_field_first": true, "type": "FFmpegReader", "vcodec": "h264", "video_bit_rate": 45443457, "video_length": "4993", "video_stream_index": 0, "video_timebase": {"den": 25000, "num": 1}, "width": 1920, "media_type": "video", "id": "DNDKK8784V", "start": 106.8, "end": 122.88, "name": "Nounours"}, {"acodec": "pcm_s16le", "audio_bit_rate": 1536000, "audio_stream_index": 1, "audio_timebase": {"den": 48000, "num": 1}, "channel_layout": 3, "channels": 2, "display_ratio": {"den": 9, "num": 16}, "duration": 97.68000030517578, "file_size": "553430096", "fps": {"den": 1, "num": 25}, "has_audio": true, "has_single_image": false, "has_video": true, "height": 1080, "interlaced_frame": false, "metadata": {"com.apple.quicktime.make": "Canon", "com.apple.quicktime.model": "Canon EOS 700D", "com.apple.quicktime.rating.user": "0.000000", "compatible_brands": "qt  CAEP", "creation_time": "2018-09-19T18:15:00.000000Z", "language": "eng", "major_brand": "qt", "minor_version": "537331968"}, "path": "C:/Users/jcrem/Desktop/MVI_1101.MOV", "pixel_format": 12, "pixel_ratio": {"den": 1, "num": 1}, "sample_rate": 48000, "top_field_first": true, "type": "FFmpegReader", "vcodec": "h264", "video_bit_rate": 45325970, "video_length": "2442", "video_stream_index": 0, "video_timebase": {"den": 25000, "num": 1}, "width": 1920, "media_type": "video", "id": "AQJTZ7FVMD"}, {"acodec": "pcm_s16le", "audio_bit_rate": 1536000, "audio_stream_index": 1, "audio_timebase": {"den": 48000, "num": 1}, "channel_layout": 3, "channels": 2, "display_ratio": {"den": 9, "num": 16}, "duration": 97.68000030517578, "file_size": "553430096", "fps": {"den": 1, "num": 25}, "has_audio": true, "has_single_image": false, "has_video": true, "height": 1080, "interlaced_frame": false, "metadata": {"com.apple.quicktime.make": "Canon", "com.apple.quicktime.model": "Canon EOS 700D", "com.apple.quicktime.rating.user": "0.000000", "compatible_brands": "qt  CAEP", "creation_time": "2018-09-19T18:15:00.000000Z", "language": "eng", "major_brand": "qt", "minor_version": "537331968"}, "path": "C:/Users/jcrem/Desktop/MVI_1101.MOV", "pixel_format": 12, "pixel_ratio": {"den": 1, "num": 1}, "sample_rate": 48000, "top_field_first": true, "type": "FFmpegReader", "vcodec": "h264", "video_bit_rate": 45325970, "video_length": "2442", "video_stream_index": 0, "video_timebase": {"den": 25000, "num": 1}, "width": 1920, "media_type": "video", "id": "Z21W6844ZK", "start": 45.4, "end": 59.32, "name": "Analyse_3"}, {"acodec": "pcm_s16le", "audio_bit_rate": 1536000, "audio_stream_index": 1, "audio_timebase": {"den": 48000, "num": 1}, "channel_layout": 3, "channels": 2, "display_ratio": {"den": 9, "num": 16}, "duration": 189.5599975585938, "file_size": "1086576176", "fps": {"den": 1, "num": 25}, "has_audio": true, "has_single_image": false, "has_video": true, "height": 1080, "interlaced_frame": false, "metadata": {"com.apple.quicktime.make": "Canon", "com.apple.quicktime.model": "Canon EOS 700D", "com.apple.quicktime.rating.user": "0.000000", "compatible_brands": "qt  CAEP", "creation_time": "2018-09-19T17:59:33.000000Z", "language": "eng", "major_brand": "qt", "minor_version": "537331968"}, "path": "C:/Users/jcrem/Desktop/MVI_1096.MOV", "pixel_format": 12, "pixel_ratio": {"den": 1, "num": 1}, "sample_rate": 48000, "top_field_first": true, "type": "FFmpegReader", "vcodec": "h264", "video_bit_rate": 45856770, "video_length": "4739", "video_stream_index": 0, "video_timebase": {"den": 25000, "num": 1}, "width": 1920, "media_type": "video", "id": "G80KP7BOGP"}]}, {"type": "insert", "key": ["clips"], "value": {"alpha": {"Points": [{"co": {"X": 1.0, "Y": 1.0}, "interpolation": 2}]}, "anchor": 0, "channel_filter": {"Points": [{"co": {"X": 1.0, "Y": -1.0}, "interpolation": 2}]}, "channel_mapping": {"Points": [{"co": {"X": 1.0, "Y": -1.0}, "interpolation": 2}]}, "crop_height": {"Points": [{"co": {"X": 1.0, "Y": -1.0}, "interpolation": 2}]}, "crop_width": {"Points": [{"co": {"X": 1.0, "Y": -1.0}, "interpolation": 2}]}, "crop_x": {"Points": [{"co": {"X": 1.0, "Y": 0.0}, "interpolation": 2}]}, "crop_y": {"Points": [{"co": {"X": 1.0, "Y": 0.0}, "interpolation": 2}]}, "display": 0, "duration": 189.5599975585938, "effects": [], "end": 105.24, "gravity": 4, "has_audio": {"Points": [{"co": {"X": 1.0, "Y": -1.0}, "interpolation": 2}]}, "has_video": {"Points": [{"co": {"X": 1.0, "Y": -1.0}, "interpolation": 2}]}, "id": "YA4WC2YJB6", "layer": 0, "location_x": {"Points": [{"co": {"X": 1.0, "Y": 0.0}, "interpolation": 2}]}, "location_y": {"Points": [{"co": {"X": 1.0, "Y": 0.0}, "interpolation": 2}]}, "mixing": 0, "perspective_c1_x": {"Points": [{"co": {"X": 1.0, "Y": -1.0}, "interpolation": 2}]}, "perspective_c1_y": {"Points": [{"co": {"X": 1.0, "Y": -1.0}, "interpolation": 2}]}, "perspective_c2_x": {"Points": [{"co": {"X": 1.0, "Y": -1.0}, "interpolation": 2}]}, "perspective_c2_y": {"Points": [{"co": {"X": 1.0, "Y": -1.0}, "interpolation": 2}]}, "perspective_c3_x": {"Points": [{"co": {"X": 1.0, "Y": -1.0}, "interpolation": 2}]}, "perspective_c3_y": {"Points": [{"co": {"X": 1.0, "Y": -1.0}, "interpolation": 2}]}, "perspective_c4_x": {"Points": [{"co": {"X": 1.0, "Y": -1.0}, "interpolation": 2}]}, "perspective_c4_y": {"Points": [{"co": {"X": 1.0, "Y": -1.0}, "interpolation": 2}]}, "position": 105.6, "reader": {"acodec": "pcm_s16le", "audio_bit_rate": 1536000, "audio_stream_index": 1, "audio_timebase": {"den": 48000, "num": 1}, "channel_layout": 3, "channels": 2, "display_ratio": {"den": 9, "num": 16}, "duration": 189.5599975585938, "file_size": "1086576176", "fps": {"den": 1, "num": 25}, "has_audio": true, "has_single_image": false, "has_video": true, "height": 1080, "interlaced_frame": false, "metadata": {"com.apple.quicktime.make": "Canon", "com.apple.quicktime.model": "Canon EOS 700D", "com.apple.quicktime.rating.user": "0.000000", "compatible_brands": "qt  CAEP", "creation_time": "2018-09-19T17:59:33.000000Z", "language": "eng", "major_brand": "qt", "minor_version": "537331968"}, "path": "C:/Users/jcrem/Desktop/MVI_1096.MOV", "pixel_format": 12, "pixel_ratio": {"den": 1, "num": 1}, "sample_rate": 48000, "top_field_first": true, "type": "FFmpegReader", "vcodec": "h264", "video_bit_rate": 45856770, "video_length": "4739", "video_stream_index": 0, "video_timebase": {"den": 25000, "num": 1}, "width": 1920}, "rotation": {"Points": [{"co": {"X": 1.0, "Y": 0.0}, "interpolation": 2}]}, "scale": 1, "scale_x": {"Points": [{"co": {"X": 1.0, "Y": 1.0}, "interpolation": 2}]}, "scale_y": {"Points": [{"co": {"X": 1.0, "Y": 1.0}, "interpolation": 2}]}, "shear_x": {"Points": [{"co": {"X": 1.0, "Y": 0.0}, "interpolation": 2}]}, "shear_y": {"Points": [{"co": {"X": 1.0, "Y": 0.0}, "interpolation": 2}]}, "start": 84.28, "time": {"Points": [{"co": {"X": 1.0, "Y": 1.0}, "interpolation": 2}]}, "volume": {"Points": [{"co": {"X": 1.0, "Y": 1.0}, "interpolation": 2}]}, "wave_color": {"alpha": {"Points": [{"co": {"X": 1.0, "Y": 255.0}, "handle_left": {"X": 0.5, "Y": 1.0}, "handle_right": {"X": 0.5, "Y": 0.0}, "handle_type": 0, "interpolation": 0}]}, "blue": {"Points": [{"co": {"X": 1.0, "Y": 255.0}, "handle_left": {"X": 0.5, "Y": 1.0}, "handle_right": {"X": 0.5, "Y": 0.0}, "handle_type": 0, "interpolation": 0}]}, "green": {"Points": [{"co": {"X": 1.0, "Y": 123.0}, "handle_left": {"X": 0.5, "Y": 1.0}, "handle_right": {"X": 0.5, "Y": 0.0}, "handle_type": 0, "interpolation": 0}]}, "red": {"Points": [{"co": {"X": 1.0, "Y": 0.0}, "handle_left": {"X": 0.5, "Y": 1.0}, "handle_right": {"X": 0.5, "Y": 0.0}, "handle_type": 0, "interpolation": 0}]}}, "waveform": false, "file_id": "GKPXCFB7UV", "title": "MVI_1096.MOV", "image": "C:\\Users\\jcrem\\.openshot_qt\\thumbnail\\GKPXCFB7UV.png"}, "partial": false, "old_values": [{"alpha": {"Points": [{"co": {"X": 1.0, "Y": 1.0}, "interpolation": 2}]}, "anchor": 0, "channel_filter": {"Points": [{"co": {"X": 1.0, "Y": -1.0}, "interpolation": 2}]}, "channel_mapping": {"Points": [{"co": {"X": 1.0, "Y": -1.0}, "interpolation": 2}]}, "crop_height": {"Points": [{"co": {"X": 1.0, "Y": -1.0}, "interpolation": 2}]}, "crop_width": {"Points": [{"co": {"X": 1.0, "Y": -1.0}, "interpolation": 2}]}, "crop_x": {"Points": [{"co": {"X": 1.0, "Y": 0.0}, "interpolation": 2}]}, "crop_y": {"Points": [{"co": {"X": 1.0, "Y": 0.0}, "interpolation": 2}]}, "display": 0, "duration": 169.1199951171875, "effects": [], "end": 150.6, "gravity": 4, "has_audio": {"Points": [{"co": {"X": 1.0, "Y": -1.0}, "interpolation": 2}]}, "has_video": {"Points": [{"co": {"X": 1.0, "Y": -1.0}, "interpolation": 2}]}, "id": "Z8W6Z4YAV4", "layer": 0, "location_x": {"Points": [{"co": {"X": 1.0, "Y": 0.0}, "interpolation": 2}]}, "location_y": {"Points": [{"co": {"X": 1.0, "Y": 0.0}, "interpolation": 2}]}, "mixing": 0, "perspective_c1_x": {"Points": [{"co": {"X": 1.0, "Y": -1.0}, "interpolation": 2}]}, "perspective_c1_y": {"Points": [{"co": {"X": 1.0, "Y": -1.0}, "interpolation": 2}]}, "perspective_c2_x": {"Points": [{"co": {"X": 1.0, "Y": -1.0}, "interpolation": 2}]}, "perspective_c2_y": {"Points": [{"co": {"X": 1.0, "Y": -1.0}, "interpolation": 2}]}, "perspective_c3_x": {"Points": [{"co": {"X": 1.0, "Y": -1.0}, "interpolation": 2}]}, "perspective_c3_y": {"Points": [{"co": {"X": 1.0, "Y": -1.0}, "interpolation": 2}]}, "perspective_c4_x": {"Points": [{"co": {"X": 1.0, "Y": -1.0}, "interpolation": 2}]}, "perspective_c4_y": {"Points": [{"co": {"X": 1.0, "Y": -1.0}, "interpolation": 2}]}, "position": 0, "reader": {"acodec": "pcm_s16le", "audio_bit_rate": 1536000, "audio_stream_index": 1, "audio_timebase": {"den": 48000, "num": 1}, "channel_layout": 3, "channels": 2, "display_ratio": {"den": 9, "num": 16}, "duration": 169.1199951171875, "file_size": "964560360", "fps": {"den": 1, "num": 25}, "has_audio": true, "has_single_image": false, "has_video": true, "height": 1080, "interlaced_frame": false, "metadata": {"com.apple.quicktime.make": "Canon", "com.apple.quicktime.model": "Canon EOS 700D", "com.apple.quicktime.rating.user": "0.000000", "compatible_brands": "qt  CAEP", "creation_time": "2018-09-19T17:53:38.000000Z", "language": "eng", "major_brand": "qt", "minor_version": "537331968"}, "path": "C:/Users/jcrem/Desktop/MVI_1094.MOV", "pixel_format": 12, "pixel_ratio": {"den": 1, "num": 1}, "sample_rate": 48000, "top_field_first": true, "type": "FFmpegReader", "vcodec": "h264", "video_bit_rate": 45627263, "video_length": "4228", "video_stream_index": 0, "video_timebase": {"den": 25000, "num": 1}, "width": 1920}, "rotation": {"Points": [{"co": {"X": 1.0, "Y": 0.0}, "interpolation": 2}]}, "scale": 1, "scale_x": {"Points": [{"co": {"X": 1.0, "Y": 1.0}, "interpolation": 2}]}, "scale_y": {"Points": [{"co": {"X": 1.0, "Y": 1.0}, "interpolation": 2}]}, "shear_x": {"Points": [{"co": {"X": 1.0, "Y": 0.0}, "interpolation": 2}]}, "shear_y": {"Points": [{"co": {"X": 1.0, "Y": 0.0}, "interpolation": 2}]}, "start": 94, "time": {"Points": [{"co": {"X": 1.0, "Y": 1.0}, "interpolation": 2}]}, "volume": {"Points": [{"co": {"X": 1.0, "Y": 1.0}, "interpolation": 2}]}, "wave_color": {"alpha": {"Points": [{"co": {"X": 1.0, "Y": 255.0}, "handle_left": {"X": 0.5, "Y": 1.0}, "handle_right": {"X": 0.5, "Y": 0.0}, "handle_type": 0, "interpolation": 0}]}, "blue": {"Points": [{"co": {"X": 1.0, "Y": 255.0}, "handle_left": {"X": 0.5, "Y": 1.0}, "handle_right": {"X": 0.5, "Y": 0.0}, "handle_type": 0, "interpolation": 0}]}, "green": {"Points": [{"co": {"X": 1.0, "Y": 123.0}, "handle_left": {"X": 0.5, "Y": 1.0}, "handle_right": {"X": 0.5, "Y": 0.0}, "handle_type": 0, "interpolation": 0}]}, "red": {"Points": [{"co": {"X": 1.0, "Y": 0.0}, "handle_left": {"X": 0.5, "Y": 1.0}, "handle_right": {"X": 0.5, "Y": 0.0}, "handle_type": 0, "interpolation": 0}]}}, "waveform": false, "file_id": "G9CEIUAJTC", "title": "MVI_1094.MOV", "image": "C:\\Users\\jcrem\\.openshot_qt\\thumbnail\\G9CEIUAJTC.png"}, {"alpha": {"Points": [{"co": {"X": 1.0, "Y": 1.0}, "interpolation": 2}]}, "anchor": 0, "channel_filter": {"Points": [{"co": {"X": 1.0, "Y": -1.0}, "interpolation": 2}]}, "channel_mapping": {"Points": [{"co": {"X": 1.0, "Y": -1.0}, "interpolation": 2}]}, "crop_height": {"Points": [{"co": {"X": 1.0, "Y": -1.0}, "interpolation": 2}]}, "crop_width": {"Points": [{"co": {"X": 1.0, "Y": -1.0}, "interpolation": 2}]}, "crop_x": {"Points": [{"co": {"X": 1.0, "Y": 0.0}, "interpolation": 2}]}, "crop_y": {"Points": [{"co": {"X": 1.0, "Y": 0.0}, "interpolation": 2}]}, "display": 0, "duration": 126.2399978637695, "effects": [], "end": 71.92, "gravity": 4, "has_audio": {"Points": [{"co": {"X": 1.0, "Y": -1.0}, "interpolation": 2}]}, "has_video": {"Points": [{"co": {"X": 1.0, "Y": -1.0}, "interpolation": 2}]}, "id": "UH27R29ADE", "layer": 1, "location_x": {"Points": [{"co": {"X": 1.0, "Y": 0.0}, "interpolation": 2}]}, "location_y": {"Points": [{"co": {"X": 1.0, "Y": 0.0}, "interpolation": 2}]}, "mixing": 0, "perspective_c1_x": {"Points": [{"co": {"X": 1.0, "Y": -1.0}, "interpolation": 2}]}, "perspective_c1_y": {"Points": [{"co": {"X": 1.0, "Y": -1.0}, "interpolation": 2}]}, "perspective_c2_x": {"Points": [{"co": {"X": 1.0, "Y": -1.0}, "interpolation": 2}]}, "perspective_c2_y": {"Points": [{"co": {"X": 1.0, "Y": -1.0}, "interpolation": 2}]}, "perspective_c3_x": {"Points": [{"co": {"X": 1.0, "Y": -1.0}, "interpolation": 2}]}, "perspective_c3_y": {"Points": [{"co": {"X": 1.0, "Y": -1.0}, "interpolation": 2}]}, "perspective_c4_x": {"Points": [{"co": {"X": 1.0, "Y": -1.0}, "interpolation": 2}]}, "perspective_c4_y": {"Points": [{"co": {"X": 1.0, "Y": -1.0}, "interpolation": 2}]}, "position": 56.6, "reader": {"acodec": "pcm_s16le", "audio_bit_rate": 1536000, "audio_stream_index": 1, "audio_timebase": {"den": 48000, "num": 1}, "channel_layout": 3, "channels": 2, "display_ratio": {"den": 9, "num": 16}, "duration": 126.2399978637695, "file_size": "717454036", "fps": {"den": 1, "num": 25}, "has_audio": true, "has_single_image": false, "has_video": true, "height": 1080, "interlaced_frame": false, "metadata": {"com.apple.quicktime.make": "Canon", "com.apple.quicktime.model": "Canon EOS 700D", "com.apple.quicktime.rating.user": "0.000000", "compatible_brands": "qt  CAEP", "creation_time": "2018-09-19T18:12:35.000000Z", "language": "eng", "major_brand": "qt", "minor_version": "537331968"}, "path": "C:/Users/jcrem/Desktop/MVI_1100.MOV", "pixel_format": 12, "pixel_ratio": {"den": 1, "num": 1}, "sample_rate": 48000, "top_field_first": true, "type": "FFmpegReader", "vcodec": "h264", "video_bit_rate": 45466035, "video_length": "3156", "video_stream_index": 0, "video_timebase": {"den": 25000, "num": 1}, "width": 1920}, "rotation": {"Points": [{"co": {"X": 1.0, "Y": 0.0}, "interpolation": 2}]}, "scale": 1, "scale_x": {"Points": [{"co": {"X": 1.0, "Y": 1.0}, "interpolation": 2}]}, "scale_y": {"Points": [{"co": {"X": 1.0, "Y": 1.0}, "interpolation": 2}]}, "shear_x": {"Points": [{"co": {"X": 1.0, "Y": 0.0}, "interpolation": 2}]}, "shear_y": {"Points": [{"co": {"X": 1.0, "Y": 0.0}, "interpolation": 2}]}, "start": 52.92, "time": {"Points": [{"co": {"X": 1.0, "Y": 1.0}, "interpolation": 2}]}, "volume": {"Points": [{"co": {"X": 1.0, "Y": 1.0}, "interpolation": 2}]}, "wave_color": {"alpha": {"Points": [{"co": {"X": 1.0, "Y": 255.0}, "handle_left": {"X": 0.5, "Y": 1.0}, "handle_right": {"X": 0.5, "Y": 0.0}, "handle_type": 0, "interpolation": 0}]}, "blue": {"Points": [{"co": {"X": 1.0, "Y": 255.0}, "handle_left": {"X": 0.5, "Y": 1.0}, "handle_right": {"X": 0.5, "Y": 0.0}, "handle_type": 0, "interpolation": 0}]}, "green": {"Points": [{"co": {"X": 1.0, "Y": 123.0}, "handle_left": {"X": 0.5, "Y": 1.0}, "handle_right": {"X": 0.5, "Y": 0.0}, "handle_type": 0, "interpolation": 0}]}, "red": {"Points": [{"co": {"X": 1.0, "Y": 0.0}, "handle_left": {"X": 0.5, "Y": 1.0}, "handle_right": {"X": 0.5, "Y": 0.0}, "handle_type": 0, "interpolation": 0}]}}, "waveform": false, "file_id": "QUUHNKYT4W", "title": "MVI_1100.MOV", "image": "C:\\Users\\jcrem\\.openshot_qt\\thumbnail\\QUUHNKYT4W.png"}, {"alpha": {"Points": [{"co": {"X": 1.0, "Y": 1.0}, "interpolation": 2}]}, "anchor": 0, "channel_filter": {"Points": [{"co": {"X": 1.0, "Y": -1.0}, "interpolation": 2}]}, "channel_mapping": {"Points": [{"co": {"X": 1.0, "Y": -1.0}, "interpolation": 2}]}, "crop_height": {"Points": [{"co": {"X": 1.0, "Y": -1.0}, "interpolation": 2}]}, "crop_width": {"Points": [{"co": {"X": 1.0, "Y": -1.0}, "interpolation": 2}]}, "crop_x": {"Points": [{"co": {"X": 1.0, "Y": 0.0}, "interpolation": 2}]}, "crop_y": {"Points": [{"co": {"X": 1.0, "Y": 0.0}, "interpolation": 2}]}, "display": 0, "duration": 199.7200012207031, "effects": [], "end": 122.88, "gravity": 4, "has_audio": {"Points": [{"co": {"X": 1.0, "Y": -1.0}, "interpolation": 2}]}, "has_video": {"Points": [{"co": {"X": 1.0, "Y": -1.0}, "interpolation": 2}]}, "id": "24RIOWUAHO", "layer": 0, "location_x": {"Points": [{"co": {"X": 1.0, "Y": 0.0}, "interpolation": 2}]}, "location_y": {"Points": [{"co": {"X": 1.0, "Y": 0.0}, "interpolation": 2}]}, "mixing": 0, "perspective_c1_x": {"Points": [{"co": {"X": 1.0, "Y": -1.0}, "interpolation": 2}]}, "perspective_c1_y": {"Points": [{"co": {"X": 1.0, "Y": -1.0}, "interpolation": 2}]}, "perspective_c2_x": {"Points": [{"co": {"X": 1.0, "Y": -1.0}, "interpolation": 2}]}, "perspective_c2_y": {"Points": [{"co": {"X": 1.0, "Y": -1.0}, "interpolation": 2}]}, "perspective_c3_x": {"Points": [{"co": {"X": 1.0, "Y": -1.0}, "interpolation": 2}]}, "perspective_c3_y": {"Points": [{"co": {"X": 1.0, "Y": -1.0}, "interpolation": 2}]}, "perspective_c4_x": {"Points": [{"co": {"X": 1.0, "Y": -1.0}, "interpolation": 2}]}, "perspective_c4_y": {"Points": [{"co": {"X": 1.0, "Y": -1.0}, "interpolation": 2}]}, "position": 75.6, "reader": {"acodec": "pcm_s16le", "audio_bit_rate": 1536000, "audio_stream_index": 1, "audio_timebase": {"den": 48000, "num": 1}, "channel_layout": 3, "channels": 2, "display_ratio": {"den": 9, "num": 16}, "duration": 199.7200012207031, "file_size": "1134495908", "fps": {"den": 1, "num": 25}, "has_audio": true, "has_single_image": false, "has_video": true, "height": 1080, "interlaced_frame": false, "metadata": {"com.apple.quicktime.make": "Canon", "com.apple.quicktime.model": "Canon EOS 700D", "com.apple.quicktime.rating.user": "0.000000", "compatible_brands": "qt  CAEP", "creation_time": "2018-09-19T18:07:25.000000Z", "language": "eng", "major_brand": "qt", "minor_version": "537331968"}, "path": "C:/Users/jcrem/Desktop/MVI_1099.MOV", "pixel_format": 12, "pixel_ratio": {"den": 1, "num": 1}, "sample_rate": 48000, "top_field_first": true, "type": "FFmpegReader", "vcodec": "h264", "video_bit_rate": 45443457, "video_length": "4993", "video_stream_index": 0, "video_timebase": {"den": 25000, "num": 1}, "width": 1920}, "rotation": {"Points": [{"co": {"X": 1.0, "Y": 0.0}, "interpolation": 2}]}, "scale": 1, "scale_x": {"Points": [{"co": {"X": 1.0, "Y": 1.0}, "interpolation": 2}]}, "scale_y": {"Points": [{"co": {"X": 1.0, "Y": 1.0}, "interpolation": 2}]}, "shear_x": {"Points": [{"co": {"X": 1.0, "Y": 0.0}, "interpolation": 2}]}, "shear_y": {"Points": [{"co": {"X": 1.0, "Y": 0.0}, "interpolation": 2}]}, "start": 106.8, "time": {"Points": [{"co": {"X": 1.0, "Y": 1.0}, "interpolation": 2}]}, "volume": {"Points": [{"co": {"X": 1.0, "Y": 1.0}, "interpolation": 2}]}, "wave_color": {"alpha": {"Points": [{"co": {"X": 1.0, "Y": 255.0}, "handle_left": {"X": 0.5, "Y": 1.0}, "handle_right": {"X": 0.5, "Y": 0.0}, "handle_type": 0, "interpolation": 0}]}, "blue": {"Points": [{"co": {"X": 1.0, "Y": 255.0}, "handle_left": {"X": 0.5, "Y": 1.0}, "handle_right": {"X": 0.5, "Y": 0.0}, "handle_type": 0, "interpolation": 0}]}, "green": {"Points": [{"co": {"X": 1.0, "Y": 123.0}, "handle_left": {"X": 0.5, "Y": 1.0}, "handle_right": {"X": 0.5, "Y": 0.0}, "handle_type": 0, "interpolation": 0}]}, "red": {"Points": [{"co": {"X": 1.0, "Y": 0.0}, "handle_left": {"X": 0.5, "Y": 1.0}, "handle_right": {"X": 0.5, "Y": 0.0}, "handle_type": 0, "interpolation": 0}]}}, "waveform": false, "file_id": "DNDKK8784V", "title": "MVI_1099.MOV", "image": "C:\\Users\\jcrem\\.openshot_qt\\thumbnail\\DNDKK8784V.png"}, {"alpha": {"Points": [{"co": {"X": 1.0, "Y": 1.0}, "interpolation": 2}]}, "anchor": 0, "channel_filter": {"Points": [{"co": {"X": 1.0, "Y": -1.0}, "interpolation": 2}]}, "channel_mapping": {"Points": [{"co": {"X": 1.0, "Y": -1.0}, "interpolation": 2}]}, "crop_height": {"Points": [{"co": {"X": 1.0, "Y": -1.0}, "interpolation": 2}]}, "crop_width": {"Points": [{"co": {"X": 1.0, "Y": -1.0}, "interpolation": 2}]}, "crop_x": {"Points": [{"co": {"X": 1.0, "Y": 0.0}, "interpolation": 2}]}, "crop_y": {"Points": [{"co": {"X": 1.0, "Y": 0.0}, "interpolation": 2}]}, "display": 0, "duration": 97.68000030517578, "effects": [], "end": 59.32, "gravity": 4, "has_audio": {"Points": [{"co": {"X": 1.0, "Y": -1.0}, "interpolation": 2}]}, "has_video": {"Points": [{"co": {"X": 1.0, "Y": -1.0}, "interpolation": 2}]}, "id": "NREVZV5KE4", "layer": 1, "location_x": {"Points": [{"co": {"X": 1.0, "Y": 0.0}, "interpolation": 2}]}, "location_y": {"Points": [{"co": {"X": 1.0, "Y": 0.0}, "interpolation": 2}]}, "mixing": 0, "perspective_c1_x": {"Points": [{"co": {"X": 1.0, "Y": -1.0}, "interpolation": 2}]}, "perspective_c1_y": {"Points": [{"co": {"X": 1.0, "Y": -1.0}, "interpolation": 2}]}, "perspective_c2_x": {"Points": [{"co": {"X": 1.0, "Y": -1.0}, "interpolation": 2}]}, "perspective_c2_y": {"Points": [{"co": {"X": 1.0, "Y": -1.0}, "interpolation": 2}]}, "perspective_c3_x": {"Points": [{"co": {"X": 1.0, "Y": -1.0}, "interpolation": 2}]}, "perspective_c3_y": {"Points": [{"co": {"X": 1.0, "Y": -1.0}, "interpolation": 2}]}, "perspective_c4_x": {"Points": [{"co": {"X": 1.0, "Y": -1.0}, "interpolation": 2}]}, "perspective_c4_y": {"Points": [{"co": {"X": 1.0, "Y": -1.0}, "interpolation": 2}]}, "position": 91.68, "reader": {"acodec": "pcm_s16le", "audio_bit_rate": 1536000, "audio_stream_index": 1, "audio_timebase": {"den": 48000, "num": 1}, "channel_layout": 3, "channels": 2, "display_ratio": {"den": 9, "num": 16}, "duration": 97.68000030517578, "file_size": "553430096", "fps": {"den": 1, "num": 25}, "has_audio": true, "has_single_image": false, "has_video": true, "height": 1080, "interlaced_frame": false, "metadata": {"com.apple.quicktime.make": "Canon", "com.apple.quicktime.model": "Canon EOS 700D", "com.apple.quicktime.rating.user": "0.000000", "compatible_brands": "qt  CAEP", "creation_time": "2018-09-19T18:15:00.000000Z", "language": "eng", "major_brand": "qt", "minor_version": "537331968"}, "path": "C:/Users/jcrem/Desktop/MVI_1101.MOV", "pixel_format": 12, "pixel_ratio": {"den": 1, "num": 1}, "sample_rate": 48000, "top_field_first": true, "type": "FFmpegReader", "vcodec": "h264", "video_bit_rate": 45325970, "video_length": "2442", "video_stream_index": 0, "video_timebase": {"den": 25000, "num": 1}, "width": 1920}, "rotation": {"Points": [{"co": {"X": 1.0, "Y": 0.0}, "interpolation": 2}]}, "scale": 1, "scale_x": {"Points": [{"co": {"X": 1.0, "Y": 1.0}, "interpolation": 2}]}, "scale_y": {"Points": [{"co": {"X": 1.0, "Y": 1.0}, "interpolation": 2}]}, "shear_x": {"Points": [{"co": {"X": 1.0, "Y": 0.0}, "interpolation": 2}]}, "shear_y": {"Points": [{"co": {"X": 1.0, "Y": 0.0}, "interpolation": 2}]}, "start": 45.4, "time": {"Points": [{"co": {"X": 1.0, "Y": 1.0}, "interpolation": 2}]}, "volume": {"Points": [{"co": {"X": 1.0, "Y": 1.0}, "interpolation": 2}]}, "wave_color": {"alpha": {"Points": [{"co": {"X": 1.0, "Y": 255.0}, "handle_left": {"X": 0.5, "Y": 1.0}, "handle_right": {"X": 0.5, "Y": 0.0}, "handle_type": 0, "interpolation": 0}]}, "blue": {"Points": [{"co": {"X": 1.0, "Y": 255.0}, "handle_left": {"X": 0.5, "Y": 1.0}, "handle_right": {"X": 0.5, "Y": 0.0}, "handle_type": 0, "interpolation": 0}]}, "green": {"Points": [{"co": {"X": 1.0, "Y": 123.0}, "handle_left": {"X": 0.5, "Y": 1.0}, "handle_right": {"X": 0.5, "Y": 0.0}, "handle_type": 0, "interpolation": 0}]}, "red": {"Points": [{"co": {"X": 1.0, "Y": 0.0}, "handle_left": {"X": 0.5, "Y": 1.0}, "handle_right": {"X": 0.5, "Y": 0.0}, "handle_type": 0, "interpolation": 0}]}}, "waveform": false, "file_id": "Z21W6844ZK", "title": "MVI_1101.MOV", "image": "C:\\Users\\jcrem\\.openshot_qt\\thumbnail\\Z21W6844ZK.png"}]}, {"type": "update", "key": ["clips", {"id": "YA4WC2YJB6"}], "value": {"id": "YA4WC2YJB6", "layer": 0, "position": 105.6, "image": "C:\\Users\\jcrem\\.openshot_qt\\thumbnail\\GKPXCFB7UV.png", "start": 84.28, "end": 105.24}, "partial": false, "old_values": {"alpha": {"Points": [{"co": {"X": 1.0, "Y": 1.0}, "interpolation": 2}]}, "anchor": 0, "channel_filter": {"Points": [{"co": {"X": 1.0, "Y": -1.0}, "interpolation": 2}]}, "channel_mapping": {"Points": [{"co": {"X": 1.0, "Y": -1.0}, "interpolation": 2}]}, "crop_height": {"Points": [{"co": {"X": 1.0, "Y": -1.0}, "interpolation": 2}]}, "crop_width": {"Points": [{"co": {"X": 1.0, "Y": -1.0}, "interpolation": 2}]}, "crop_x": {"Points": [{"co": {"X": 1.0, "Y": 0.0}, "interpolation": 2}]}, "crop_y": {"Points": [{"co": {"X": 1.0, "Y": 0.0}, "interpolation": 2}]}, "display": 0, "duration": 189.5599975585938, "effects": [], "end": 105.24, "gravity": 4, "has_audio": {"Points": [{"co": {"X": 1.0, "Y": -1.0}, "interpolation": 2}]}, "has_video": {"Points": [{"co": {"X": 1.0, "Y": -1.0}, "interpolation": 2}]}, "id": "YA4WC2YJB6", "layer": 4, "location_x": {"Points": [{"co": {"X": 1.0, "Y": 0.0}, "interpolation": 2}]}, "location_y": {"Points": [{"co": {"X": 1.0, "Y": 0.0}, "interpolation": 2}]}, "mixing": 0, "perspective_c1_x": {"Points": [{"co": {"X": 1.0, "Y": -1.0}, "interpolation": 2}]}, "perspective_c1_y": {"Points": [{"co": {"X": 1.0, "Y": -1.0}, "interpolation": 2}]}, "perspective_c2_x": {"Points": [{"co": {"X": 1.0, "Y": -1.0}, "interpolation": 2}]}, "perspective_c2_y": {"Points": [{"co": {"X": 1.0, "Y": -1.0}, "interpolation": 2}]}, "perspective_c3_x": {"Points": [{"co": {"X": 1.0, "Y": -1.0}, "interpolation": 2}]}, "perspective_c3_y": {"Points": [{"co": {"X": 1.0, "Y": -1.0}, "interpolation": 2}]}, "perspective_c4_x": {"Points": [{"co": {"X": 1.0, "Y": -1.0}, "interpolation": 2}]}, "perspective_c4_y": {"Points": [{"co": {"X": 1.0, "Y": -1.0}, "interpolation": 2}]}, "position": 71.2, "reader": {"acodec": "pcm_s16le", "audio_bit_rate": 1536000, "audio_stream_index": 1, "audio_timebase": {"den": 48000, "num": 1}, "channel_layout": 3, "channels": 2, "display_ratio": {"den": 9, "num": 16}, "duration": 189.5599975585938, "file_size": "1086576176", "fps": {"den": 1, "num": 25}, "has_audio": true, "has_single_image": false, "has_video": true, "height": 1080, "interlaced_frame": false, "metadata": {"com.apple.quicktime.make": "Canon", "com.apple.quicktime.model": "Canon EOS 700D", "com.apple.quicktime.rating.user": "0.000000", "compatible_brands": "qt  CAEP", "creation_time": "2018-09-19T17:59:33.000000Z", "language": "eng", "major_brand": "qt", "minor_version": "537331968"}, "path": "C:/Users/jcrem/Desktop/MVI_1096.MOV", "pixel_format": 12, "pixel_ratio": {"den": 1, "num": 1}, "sample_rate": 48000, "top_field_first": true, "type": "FFmpegReader", "vcodec": "h264", "video_bit_rate": 45856770, "video_length": "4739", "video_stream_index": 0, "video_timebase": {"den": 25000, "num": 1}, "width": 1920}, "rotation": {"Points": [{"co": {"X": 1.0, "Y": 0.0}, "interpolation": 2}]}, "scale": 1, "scale_x": {"Points": [{"co": {"X": 1.0, "Y": 1.0}, "interpolation": 2}]}, "scale_y": {"Points": [{"co": {"X": 1.0, "Y": 1.0}, "interpolation": 2}]}, "shear_x": {"Points": [{"co": {"X": 1.0, "Y": 0.0}, "interpolation": 2}]}, "shear_y": {"Points": [{"co": {"X": 1.0, "Y": 0.0}, "interpolation": 2}]}, "start": 84.28, "time": {"Points": [{"co": {"X": 1.0, "Y": 1.0}, "interpolation": 2}]}, "volume": {"Points": [{"co": {"X": 1.0, "Y": 1.0}, "interpolation": 2}]}, "wave_color": {"alpha": {"Points": [{"co": {"X": 1.0, "Y": 255.0}, "handle_left": {"X": 0.5, "Y": 1.0}, "handle_right": {"X": 0.5, "Y": 0.0}, "handle_type": 0, "interpolation": 0}]}, "blue": {"Points": [{"co": {"X": 1.0, "Y": 255.0}, "handle_left": {"X": 0.5, "Y": 1.0}, "handle_right": {"X": 0.5, "Y": 0.0}, "handle_type": 0, "interpolation": 0}]}, "green": {"Points": [{"co": {"X": 1.0, "Y": 123.0}, "handle_left": {"X": 0.5, "Y": 1.0}, "handle_right": {"X": 0.5, "Y": 0.0}, "handle_type": 0, "interpolation": 0}]}, "red": {"Points": [{"co": {"X": 1.0, "Y": 0.0}, "handle_left": {"X": 0.5, "Y": 1.0}, "handle_right": {"X": 0.5, "Y": 0.0}, "handle_type": 0, "interpolation": 0}]}}, "waveform": false, "file_id": "GKPXCFB7UV", "title": "MVI_1096.MOV", "image": "C:\\Users\\jcrem\\.openshot_qt\\thumbnail\\GKPXCFB7UV.png"}}, {"type": "insert", "key": ["files"], "value": {"acodec": "pcm_s16le", "audio_bit_rate": 1536000, "audio_stream_index": 1, "audio_timebase": {"den": 48000, "num": 1}, "channel_layout": 3, "channels": 2, "display_ratio": {"den": 9, "num": 16}, "duration": 19.92000007629395, "file_size": "115743512", "fps": {"den": 1, "num": 25}, "has_audio": true, "has_single_image": false, "has_video": true, "height": 1080, "interlaced_frame": false, "metadata": {"com.apple.quicktime.make": "Canon", "com.apple.quicktime.model": "Canon EOS 700D", "com.apple.quicktime.rating.user": "0.000000", "compatible_brands": "qt  CAEP", "creation_time": "2018-09-19T18:31:27.000000Z", "language": "eng", "major_brand": "qt", "minor_version": "537331968"}, "path": "C:/Users/jcrem/Desktop/MVI_1104.MOV", "pixel_format": 12, "pixel_ratio": {"den": 1, "num": 1}, "sample_rate": 48000, "top_field_first": true, "type": "FFmpegReader", "vcodec": "h264", "video_bit_rate": 46483338, "video_length": "498", "video_stream_index": 0, "video_timebase": {"den": 25000, "num": 1}, "width": 1920, "media_type": "video", "id": "8MNNJXP0NJ"}, "partial": false, "old_values": [{"acodec": "pcm_s16le", "audio_bit_rate": 1536000, "audio_stream_index": 1, "audio_timebase": {"den": 48000, "num": 1}, "channel_layout": 3, "channels": 2, "display_ratio": {"den": 9, "num": 16}, "duration": 169.1199951171875, "file_size": "964560360", "fps": {"den": 1, "num": 25}, "has_audio": true, "has_single_image": false, "has_video": true, "height": 1080, "interlaced_frame": false, "metadata": {"com.apple.quicktime.make": "Canon", "com.apple.quicktime.model": "Canon EOS 700D", "com.apple.quicktime.rating.user": "0.000000", "compatible_brands": "qt  CAEP", "creation_time": "2018-09-19T17:53:38.000000Z", "language": "eng", "major_brand": "qt", "minor_version": "537331968"}, "path": "C:/Users/jcrem/Desktop/MVI_1094.MOV", "pixel_format": 12, "pixel_ratio": {"den": 1, "num": 1}, "sample_rate": 48000, "top_field_first": true, "type": "FFmpegReader", "vcodec": "h264", "video_bit_rate": 45627263, "video_length": "4228", "video_stream_index": 0, "video_timebase": {"den": 25000, "num": 1}, "width": 1920, "media_type": "video", "id": "QID10QKEBS"}, {"acodec": "pcm_s16le", "audio_bit_rate": 1536000, "audio_stream_index": 1, "audio_timebase": {"den": 48000, "num": 1}, "channel_layout": 3, "channels": 2, "display_ratio": {"den": 9, "num": 16}, "duration": 169.1199951171875, "file_size": "964560360", "fps": {"den": 1, "num": 25}, "has_audio": true, "has_single_image": false, "has_video": true, "height": 1080, "interlaced_frame": false, "metadata": {"com.apple.quicktime.make": "Canon", "com.apple.quicktime.model": "Canon EOS 700D", "com.apple.quicktime.rating.user": "0.000000", "compatible_brands": "qt  CAEP", "creation_time": "2018-09-19T17:53:38.000000Z", "language": "eng", "major_brand": "qt", "minor_version": "537331968"}, "path": "C:/Users/jcrem/Desktop/MVI_1094.MOV", "pixel_format": 12, "pixel_ratio": {"den": 1, "num": 1}, "sample_rate": 48000, "top_field_first": true, "type": "FFmpegReader", "vcodec": "h264", "video_bit_rate": 45627263, "video_length": "4228", "video_stream_index": 0, "video_timebase": {"den": 25000, "num": 1}, "width": 1920, "media_type": "video", "id": "G9CEIUAJTC", "start": 94.0, "end": 150.6, "name": "Configuration"}, {"acodec": "pcm_s16le", "audio_bit_rate": 1536000, "audio_stream_index": 1, "audio_timebase": {"den": 48000, "num": 1}, "channel_layout": 3, "channels": 2, "display_ratio": {"den": 9, "num": 16}, "duration": 126.2399978637695, "file_size": "717454036", "fps": {"den": 1, "num": 25}, "has_audio": true, "has_single_image": false, "has_video": true, "height": 1080, "interlaced_frame": false, "metadata": {"com.apple.quicktime.make": "Canon", "com.apple.quicktime.model": "Canon EOS 700D", "com.apple.quicktime.rating.user": "0.000000", "compatible_brands": "qt  CAEP", "creation_time": "2018-09-19T18:12:35.000000Z", "language": "eng", "major_brand": "qt", "minor_version": "537331968"}, "path": "C:/Users/jcrem/Desktop/MVI_1100.MOV", "pixel_format": 12, "pixel_ratio": {"den": 1, "num": 1}, "sample_rate": 48000, "top_field_first": true, "type": "FFmpegReader", "vcodec": "h264", "video_bit_rate": 45466035, "video_length": "3156", "video_stream_index": 0, "video_timebase": {"den": 25000, "num": 1}, "width": 1920, "media_type": "video", "id": "0CAS2RD4ZH"}, {"acodec": "pcm_s16le", "audio_bit_rate": 1536000, "audio_stream_index": 1, "audio_timebase": {"den": 48000, "num": 1}, "channel_layout": 3, "channels": 2, "display_ratio": {"den": 9, "num": 16}, "duration": 126.2399978637695, "file_size": "717454036", "fps": {"den": 1, "num": 25}, "has_audio": true, "has_single_image": false, "has_video": true, "height": 1080, "interlaced_frame": false, "metadata": {"com.apple.quicktime.make": "Canon", "com.apple.quicktime.model": "Canon EOS 700D", "com.apple.quicktime.rating.user": "0.000000", "compatible_brands": "qt  CAEP", "creation_time": "2018-09-19T18:12:35.000000Z", "language": "eng", "major_brand": "qt", "minor_version": "537331968"}, "path": "C:/Users/jcrem/Desktop/MVI_1100.MOV", "pixel_format": 12, "pixel_ratio": {"den": 1, "num": 1}, "sample_rate": 48000, "top_field_first": true, "type": "FFmpegReader", "vcodec": "h264", "video_bit_rate": 45466035, "video_length": "3156", "video_stream_index": 0, "video_timebase": {"den": 25000, "num": 1}, "width": 1920, "media_type": "video", "id": "QUUHNKYT4W", "start": 52.92, "end": 71.92, "name": "Analyse_01"}, {"acodec": "pcm_s16le", "audio_bit_rate": 1536000, "audio_stream_index": 1, "audio_timebase": {"den": 48000, "num": 1}, "channel_layout": 3, "channels": 2, "display_ratio": {"den": 9, "num": 16}, "duration": 199.7200012207031, "file_size": "1134495908", "fps": {"den": 1, "num": 25}, "has_audio": true, "has_single_image": false, "has_video": true, "height": 1080, "interlaced_frame": false, "metadata": {"com.apple.quicktime.make": "Canon", "com.apple.quicktime.model": "Canon EOS 700D", "com.apple.quicktime.rating.user": "0.000000", "compatible_brands": "qt  CAEP", "creation_time": "2018-09-19T18:07:25.000000Z", "language": "eng", "major_brand": "qt", "minor_version": "537331968"}, "path": "C:/Users/jcrem/Desktop/MVI_1099.MOV", "pixel_format": 12, "pixel_ratio": {"den": 1, "num": 1}, "sample_rate": 48000, "top_field_first": true, "type": "FFmpegReader", "vcodec": "h264", "video_bit_rate": 45443457, "video_length": "4993", "video_stream_index": 0, "video_timebase": {"den": 25000, "num": 1}, "width": 1920, "media_type": "video", "id": "064I6PNM96"}, {"acodec": "pcm_s16le", "audio_bit_rate": 1536000, "audio_stream_index": 1, "audio_timebase": {"den": 48000, "num": 1}, "channel_layout": 3, "channels": 2, "display_ratio": {"den": 9, "num": 16}, "duration": 199.7200012207031, "file_size": "1134495908", "fps": {"den": 1, "num": 25}, "has_audio": true, "has_single_image": false, "has_video": true, "height": 1080, "interlaced_frame": false, "metadata": {"com.apple.quicktime.make": "Canon", "com.apple.quicktime.model": "Canon EOS 700D", "com.apple.quicktime.rating.user": "0.000000", "compatible_brands": "qt  CAEP", "creation_time": "2018-09-19T18:07:25.000000Z", "language": "eng", "major_brand": "qt", "minor_version": "537331968"}, "path": "C:/Users/jcrem/Desktop/MVI_1099.MOV", "pixel_format": 12, "pixel_ratio": {"den": 1, "num": 1}, "sample_rate": 48000, "top_field_first": true, "type": "FFmpegReader", "vcodec": "h264", "video_bit_rate": 45443457, "video_length": "4993", "video_stream_index": 0, "video_timebase": {"den": 25000, "num": 1}, "width": 1920, "media_type": "video", "id": "DNDKK8784V", "start": 106.8, "end": 122.88, "name": "Nounours"}, {"acodec": "pcm_s16le", "audio_bit_rate": 1536000, "audio_stream_index": 1, "audio_timebase": {"den": 48000, "num": 1}, "channel_layout": 3, "channels": 2, "display_ratio": {"den": 9, "num": 16}, "duration": 97.68000030517578, "file_size": "553430096", "fps": {"den": 1, "num": 25}, "has_audio": true, "has_single_image": false, "has_video": true, "height": 1080, "interlaced_frame": false, "metadata": {"com.apple.quicktime.make": "Canon", "com.apple.quicktime.model": "Canon EOS 700D", "com.apple.quicktime.rating.user": "0.000000", "compatible_brands": "qt  CAEP", "creation_time": "2018-09-19T18:15:00.000000Z", "language": "eng", "major_brand": "qt", "minor_version": "537331968"}, "path": "C:/Users/jcrem/Desktop/MVI_1101.MOV", "pixel_format": 12, "pixel_ratio": {"den": 1, "num": 1}, "sample_rate": 48000, "top_field_first": true, "type": "FFmpegReader", "vcodec": "h264", "video_bit_rate": 45325970, "video_length": "2442", "video_stream_index": 0, "video_timebase": {"den": 25000, "num": 1}, "width": 1920, "media_type": "video", "id": "AQJTZ7FVMD"}, {"acodec": "pcm_s16le", "audio_bit_rate": 1536000, "audio_stream_index": 1, "audio_timebase": {"den": 48000, "num": 1}, "channel_layout": 3, "channels": 2, "display_ratio": {"den": 9, "num": 16}, "duration": 97.68000030517578, "file_size": "553430096", "fps": {"den": 1, "num": 25}, "has_audio": true, "has_single_image": false, "has_video": true, "height": 1080, "interlaced_frame": false, "metadata": {"com.apple.quicktime.make": "Canon", "com.apple.quicktime.model": "Canon EOS 700D", "com.apple.quicktime.rating.user": "0.000000", "compatible_brands": "qt  CAEP", "creation_time": "2018-09-19T18:15:00.000000Z", "language": "eng", "major_brand": "qt", "minor_version": "537331968"}, "path": "C:/Users/jcrem/Desktop/MVI_1101.MOV", "pixel_format": 12, "pixel_ratio": {"den": 1, "num": 1}, "sample_rate": 48000, "top_field_first": true, "type": "FFmpegReader", "vcodec": "h264", "video_bit_rate": 45325970, "video_length": "2442", "video_stream_index": 0, "video_timebase": {"den": 25000, "num": 1}, "width": 1920, "media_type": "video", "id": "Z21W6844ZK", "start": 45.4, "end": 59.32, "name": "Analyse_3"}, {"acodec": "pcm_s16le", "audio_bit_rate": 1536000, "audio_stream_index": 1, "audio_timebase": {"den": 48000, "num": 1}, "channel_layout": 3, "channels": 2, "display_ratio": {"den": 9, "num": 16}, "duration": 189.5599975585938, "file_size": "1086576176", "fps": {"den": 1, "num": 25}, "has_audio": true, "has_single_image": false, "has_video": true, "height": 1080, "interlaced_frame": false, "metadata": {"com.apple.quicktime.make": "Canon", "com.apple.quicktime.model": "Canon EOS 700D", "com.apple.quicktime.rating.user": "0.000000", "compatible_brands": "qt  CAEP", "creation_time": "2018-09-19T17:59:33.000000Z", "language": "eng", "major_brand": "qt", "minor_version": "537331968"}, "path": "C:/Users/jcrem/Desktop/MVI_1096.MOV", "pixel_format": 12, "pixel_ratio": {"den": 1, "num": 1}, "sample_rate": 48000, "top_field_first": true, "type": "FFmpegReader", "vcodec": "h264", "video_bit_rate": 45856770, "video_length": "4739", "video_stream_index": 0, "video_timebase": {"den": 25000, "num": 1}, "width": 1920, "media_type": "video", "id": "G80KP7BOGP"}, {"acodec": "pcm_s16le", "audio_bit_rate": 1536000, "audio_stream_index": 1, "audio_timebase": {"den": 48000, "num": 1}, "channel_layout": 3, "channels": 2, "display_ratio": {"den": 9, "num": 16}, "duration": 189.5599975585938, "file_size": "1086576176", "fps": {"den": 1, "num": 25}, "has_audio": true, "has_single_image": false, "has_video": true, "height": 1080, "interlaced_frame": false, "metadata": {"com.apple.quicktime.make": "Canon", "com.apple.quicktime.model": "Canon EOS 700D", "com.apple.quicktime.rating.user": "0.000000", "compatible_brands": "qt  CAEP", "creation_time": "2018-09-19T17:59:33.000000Z", "language": "eng", "major_brand": "qt", "minor_version": "537331968"}, "path": "C:/Users/jcrem/Desktop/MVI_1096.MOV", "pixel_format": 12, "pixel_ratio": {"den": 1, "num": 1}, "sample_rate": 48000, "top_field_first": true, "type": "FFmpegReader", "vcodec": "h264", "video_bit_rate": 45856770, "video_length": "4739", "video_stream_index": 0, "video_timebase": {"den": 25000, "num": 1}, "width": 1920, "media_type": "video", "id": "GKPXCFB7UV", "start": 84.28, "end": 105.24, "name": "Analyse_4"}]}, {"type": "update", "key": ["import_path"], "value": "C:/Users/jcrem/Desktop", "partial": false, "old_values": "C:/Users/jcrem/Desktop"}, {"type": "insert", "key": ["files"], "value": {"acodec": "pcm_s16le", "audio_bit_rate": 1536000, "audio_stream_index": 1, "audio_timebase": {"den": 48000, "num": 1}, "channel_layout": 3, "channels": 2, "display_ratio": {"den": 9, "num": 16}, "duration": 19.92000007629395, "file_size": "115743512", "fps": {"den": 1, "num": 25}, "has_audio": true, "has_single_image": false, "has_video": true, "height": 1080, "interlaced_frame": false, "metadata": {"com.apple.quicktime.make": "Canon", "com.apple.quicktime.model": "Canon EOS 700D", "com.apple.quicktime.rating.user": "0.000000", "compatible_brands": "qt  CAEP", "creation_time": "2018-09-19T18:31:27.000000Z", "language": "eng", "major_brand": "qt", "minor_version": "537331968"}, "path": "C:/Users/jcrem/Desktop/MVI_1104.MOV", "pixel_format": 12, "pixel_ratio": {"den": 1, "num": 1}, "sample_rate": 48000, "top_field_first": true, "type": "FFmpegReader", "vcodec": "h264", "video_bit_rate": 46483338, "video_length": "498", "video_stream_index": 0, "video_timebase": {"den": 25000, "num": 1}, "width": 1920, "media_type": "video", "id": "2NNMP6SN00", "start": 2.76, "end": 18.16, "name": "Analyse_5"}, "partial": false, "old_values": [{"acodec": "pcm_s16le", "audio_bit_rate": 1536000, "audio_stream_index": 1, "audio_timebase": {"den": 48000, "num": 1}, "channel_layout": 3, "channels": 2, "display_ratio": {"den": 9, "num": 16}, "duration": 169.1199951171875, "file_size": "964560360", "fps": {"den": 1, "num": 25}, "has_audio": true, "has_single_image": false, "has_video": true, "height": 1080, "interlaced_frame": false, "metadata": {"com.apple.quicktime.make": "Canon", "com.apple.quicktime.model": "Canon EOS 700D", "com.apple.quicktime.rating.user": "0.000000", "compatible_brands": "qt  CAEP", "creation_time": "2018-09-19T17:53:38.000000Z", "language": "eng", "major_brand": "qt", "minor_version": "537331968"}, "path": "C:/Users/jcrem/Desktop/MVI_1094.MOV", "pixel_format": 12, "pixel_ratio": {"den": 1, "num": 1}, "sample_rate": 48000, "top_field_first": true, "type": "FFmpegReader", "vcodec": "h264", "video_bit_rate": 45627263, "video_length": "4228", "video_stream_index": 0, "video_timebase": {"den": 25000, "num": 1}, "width": 1920, "media_type": "video", "id": "QID10QKEBS"}, {"acodec": "pcm_s16le", "audio_bit_rate": 1536000, "audio_stream_index": 1, "audio_timebase": {"den": 48000, "num": 1}, "channel_layout": 3, "channels": 2, "display_ratio": {"den": 9, "num": 16}, "duration": 169.1199951171875, "file_size": "964560360", "fps": {"den": 1, "num": 25}, "has_audio": true, "has_single_image": false, "has_video": true, "height": 1080, "interlaced_frame": false, "metadata": {"com.apple.quicktime.make": "Canon", "com.apple.quicktime.model": "Canon EOS 700D", "com.apple.quicktime.rating.user": "0.000000", "compatible_brands": "qt  CAEP", "creation_time": "2018-09-19T17:53:38.000000Z", "language": "eng", "major_brand": "qt", "minor_version": "537331968"}, "path": "C:/Users/jcrem/Desktop/MVI_1094.MOV", "pixel_format": 12, "pixel_ratio": {"den": 1, "num": 1}, "sample_rate": 48000, "top_field_first": true, "type": "FFmpegReader", "vcodec": "h264", "video_bit_rate": 45627263, "video_length": "4228", "video_stream_index": 0, "video_timebase": {"den": 25000, "num": 1}, "width": 1920, "media_type": "video", "id": "G9CEIUAJTC", "start": 94.0, "end": 150.6, "name": "Configuration"}, {"acodec": "pcm_s16le", "audio_bit_rate": 1536000, "audio_stream_index": 1, "audio_timebase": {"den": 48000, "num": 1}, "channel_layout": 3, "channels": 2, "display_ratio": {"den": 9, "num": 16}, "duration": 126.2399978637695, "file_size": "717454036", "fps": {"den": 1, "num": 25}, "has_audio": true, "has_single_image": false, "has_video": true, "height": 1080, "interlaced_frame": false, "metadata": {"com.apple.quicktime.make": "Canon", "com.apple.quicktime.model": "Canon EOS 700D", "com.apple.quicktime.rating.user": "0.000000", "compatible_brands": "qt  CAEP", "creation_time": "2018-09-19T18:12:35.000000Z", "language": "eng", "major_brand": "qt", "minor_version": "537331968"}, "path": "C:/Users/jcrem/Desktop/MVI_1100.MOV", "pixel_format": 12, "pixel_ratio": {"den": 1, "num": 1}, "sample_rate": 48000, "top_field_first": true, "type": "FFmpegReader", "vcodec": "h264", "video_bit_rate": 45466035, "video_length": "3156", "video_stream_index": 0, "video_timebase": {"den": 25000, "num": 1}, "width": 1920, "media_type": "video", "id": "0CAS2RD4ZH"}, {"acodec": "pcm_s16le", "audio_bit_rate": 1536000, "audio_stream_index": 1, "audio_timebase": {"den": 48000, "num": 1}, "channel_layout": 3, "channels": 2, "display_ratio": {"den": 9, "num": 16}, "duration": 126.2399978637695, "file_size": "717454036", "fps": {"den": 1, "num": 25}, "has_audio": true, "has_single_image": false, "has_video": true, "height": 1080, "interlaced_frame": false, "metadata": {"com.apple.quicktime.make": "Canon", "com.apple.quicktime.model": "Canon EOS 700D", "com.apple.quicktime.rating.user": "0.000000", "compatible_brands": "qt  CAEP", "creation_time": "2018-09-19T18:12:35.000000Z", "language": "eng", "major_brand": "qt", "minor_version": "537331968"}, "path": "C:/Users/jcrem/Desktop/MVI_1100.MOV", "pixel_format": 12, "pixel_ratio": {"den": 1, "num": 1}, "sample_rate": 48000, "top_field_first": true, "type": "FFmpegReader", "vcodec": "h264", "video_bit_rate": 45466035, "video_length": "3156", "video_stream_index": 0, "video_timebase": {"den": 25000, "num": 1}, "width": 1920, "media_type": "video", "id": "QUUHNKYT4W", "start": 52.92, "end": 71.92, "name": "Analyse_01"}, {"acodec": "pcm_s16le", "audio_bit_rate": 1536000, "audio_stream_index": 1, "audio_timebase": {"den": 48000, "num": 1}, "channel_layout": 3, "channels": 2, "display_ratio": {"den": 9, "num": 16}, "duration": 199.7200012207031, "file_size": "1134495908", "fps": {"den": 1, "num": 25}, "has_audio": true, "has_single_image": false, "has_video": true, "height": 1080, "interlaced_frame": false, "metadata": {"com.apple.quicktime.make": "Canon", "com.apple.quicktime.model": "Canon EOS 700D", "com.apple.quicktime.rating.user": "0.000000", "compatible_brands": "qt  CAEP", "creation_time": "2018-09-19T18:07:25.000000Z", "language": "eng", "major_brand": "qt", "minor_version": "537331968"}, "path": "C:/Users/jcrem/Desktop/MVI_1099.MOV", "pixel_format": 12, "pixel_ratio": {"den": 1, "num": 1}, "sample_rate": 48000, "top_field_first": true, "type": "FFmpegReader", "vcodec": "h264", "video_bit_rate": 45443457, "video_length": "4993", "video_stream_index": 0, "video_timebase": {"den": 25000, "num": 1}, "width": 1920, "media_type": "video", "id": "064I6PNM96"}, {"acodec": "pcm_s16le", "audio_bit_rate": 1536000, "audio_stream_index": 1, "audio_timebase": {"den": 48000, "num": 1}, "channel_layout": 3, "channels": 2, "display_ratio": {"den": 9, "num": 16}, "duration": 199.7200012207031, "file_size": "1134495908", "fps": {"den": 1, "num": 25}, "has_audio": true, "has_single_image": false, "has_video": true, "height": 1080, "interlaced_frame": false, "metadata": {"com.apple.quicktime.make": "Canon", "com.apple.quicktime.model": "Canon EOS 700D", "com.apple.quicktime.rating.user": "0.000000", "compatible_brands": "qt  CAEP", "creation_time": "2018-09-19T18:07:25.000000Z", "language": "eng", "major_brand": "qt", "minor_version": "537331968"}, "path": "C:/Users/jcrem/Desktop/MVI_1099.MOV", "pixel_format": 12, "pixel_ratio": {"den": 1, "num": 1}, "sample_rate": 48000, "top_field_first": true, "type": "FFmpegReader", "vcodec": "h264", "video_bit_rate": 45443457, "video_length": "4993", "video_stream_index": 0, "video_timebase": {"den": 25000, "num": 1}, "width": 1920, "media_type": "video", "id": "DNDKK8784V", "start": 106.8, "end": 122.88, "name": "Nounours"}, {"acodec": "pcm_s16le", "audio_bit_rate": 1536000, "audio_stream_index": 1, "audio_timebase": {"den": 48000, "num": 1}, "channel_layout": 3, "channels": 2, "display_ratio": {"den": 9, "num": 16}, "duration": 97.68000030517578, "file_size": "553430096", "fps": {"den": 1, "num": 25}, "has_audio": true, "has_single_image": false, "has_video": true, "height": 1080, "interlaced_frame": false, "metadata": {"com.apple.quicktime.make": "Canon", "com.apple.quicktime.model": "Canon EOS 700D", "com.apple.quicktime.rating.user": "0.000000", "compatible_brands": "qt  CAEP", "creation_time": "2018-09-19T18:15:00.000000Z", "language": "eng", "major_brand": "qt", "minor_version": "537331968"}, "path": "C:/Users/jcrem/Desktop/MVI_1101.MOV", "pixel_format": 12, "pixel_ratio": {"den": 1, "num": 1}, "sample_rate": 48000, "top_field_first": true, "type": "FFmpegReader", "vcodec": "h264", "video_bit_rate": 45325970, "video_length": "2442", "video_stream_index": 0, "video_timebase": {"den": 25000, "num": 1}, "width": 1920, "media_type": "video", "id": "AQJTZ7FVMD"}, {"acodec": "pcm_s16le", "audio_bit_rate": 1536000, "audio_stream_index": 1, "audio_timebase": {"den": 48000, "num": 1}, "channel_layout": 3, "channels": 2, "display_ratio": {"den": 9, "num": 16}, "duration": 97.68000030517578, "file_size": "553430096", "fps": {"den": 1, "num": 25}, "has_audio": true, "has_single_image": false, "has_video": true, "height": 1080, "interlaced_frame": false, "metadata": {"com.apple.quicktime.make": "Canon", "com.apple.quicktime.model": "Canon EOS 700D", "com.apple.quicktime.rating.user": "0.000000", "compatible_brands": "qt  CAEP", "creation_time": "2018-09-19T18:15:00.000000Z", "language": "eng", "major_brand": "qt", "minor_version": "537331968"}, "path": "C:/Users/jcrem/Desktop/MVI_1101.MOV", "pixel_format": 12, "pixel_ratio": {"den": 1, "num": 1}, "sample_rate": 48000, "top_field_first": true, "type": "FFmpegReader", "vcodec": "h264", "video_bit_rate": 45325970, "video_length": "2442", "video_stream_index": 0, "video_timebase": {"den": 25000, "num": 1}, "width": 1920, "media_type": "video", "id": "Z21W6844ZK", "start": 45.4, "end": 59.32, "name": "Analyse_3"}, {"acodec": "pcm_s16le", "audio_bit_rate": 1536000, "audio_stream_index": 1, "audio_timebase": {"den": 48000, "num": 1}, "channel_layout": 3, "channels": 2, "display_ratio": {"den": 9, "num": 16}, "duration": 189.5599975585938, "file_size": "1086576176", "fps": {"den": 1, "num": 25}, "has_audio": true, "has_single_image": false, "has_video": true, "height": 1080, "interlaced_frame": false, "metadata": {"com.apple.quicktime.make": "Canon", "com.apple.quicktime.model": "Canon EOS 700D", "com.apple.quicktime.rating.user": "0.000000", "compatible_brands": "qt  CAEP", "creation_time": "2018-09-19T17:59:33.000000Z", "language": "eng", "major_brand": "qt", "minor_version": "537331968"}, "path": "C:/Users/jcrem/Desktop/MVI_1096.MOV", "pixel_format": 12, "pixel_ratio": {"den": 1, "num": 1}, "sample_rate": 48000, "top_field_first": true, "type": "FFmpegReader", "vcodec": "h264", "video_bit_rate": 45856770, "video_length": "4739", "video_stream_index": 0, "video_timebase": {"den": 25000, "num": 1}, "width": 1920, "media_type": "video", "id": "G80KP7BOGP"}, {"acodec": "pcm_s16le", "audio_bit_rate": 1536000, "audio_stream_index": 1, "audio_timebase": {"den": 48000, "num": 1}, "channel_layout": 3, "channels": 2, "display_ratio": {"den": 9, "num": 16}, "duration": 189.5599975585938, "file_size": "1086576176", "fps": {"den": 1, "num": 25}, "has_audio": true, "has_single_image": false, "has_video": true, "height": 1080, "interlaced_frame": false, "metadata": {"com.apple.quicktime.make": "Canon", "com.apple.quicktime.model": "Canon EOS 700D", "com.apple.quicktime.rating.user": "0.000000", "compatible_brands": "qt  CAEP", "creation_time": "2018-09-19T17:59:33.000000Z", "language": "eng", "major_brand": "qt", "minor_version": "537331968"}, "path": "C:/Users/jcrem/Desktop/MVI_1096.MOV", "pixel_format": 12, "pixel_ratio": {"den": 1, "num": 1}, "sample_rate": 48000, "top_field_first": true, "type": "FFmpegReader", "vcodec": "h264", "video_bit_rate": 45856770, "video_length": "4739", "video_stream_index": 0, "video_timebase": {"den": 25000, "num": 1}, "width": 1920, "media_type": "video", "id": "GKPXCFB7UV", "start": 84.28, "end": 105.24, "name": "Analyse_4"}, {"acodec": "pcm_s16le", "audio_bit_rate": 1536000, "audio_stream_index": 1, "audio_timebase": {"den": 48000, "num": 1}, "channel_layout": 3, "channels": 2, "display_ratio": {"den": 9, "num": 16}, "duration": 19.92000007629395, "file_size": "115743512", "fps": {"den": 1, "num": 25}, "has_audio": true, "has_single_image": false, "has_video": true, "height": 1080, "interlaced_frame": false, "metadata": {"com.apple.quicktime.make": "Canon", "com.apple.quicktime.model": "Canon EOS 700D", "com.apple.quicktime.rating.user": "0.000000", "compatible_brands": "qt  CAEP", "creation_time": "2018-09-19T18:31:27.000000Z", "language": "eng", "major_brand": "qt", "minor_version": "537331968"}, "path": "C:/Users/jcrem/Desktop/MVI_1104.MOV", "pixel_format": 12, "pixel_ratio": {"den": 1, "num": 1}, "sample_rate": 48000, "top_field_first": true, "type": "FFmpegReader", "vcodec": "h264", "video_bit_rate": 46483338, "video_length": "498", "video_stream_index": 0, "video_timebase": {"den": 25000, "num": 1}, "width": 1920, "media_type": "video", "id": "8MNNJXP0NJ"}]}, {"type": "insert", "key": ["clips"], "value": {"alpha": {"Points": [{"co": {"X": 1.0, "Y": 1.0}, "interpolation": 2}]}, "anchor": 0, "channel_filter": {"Points": [{"co": {"X": 1.0, "Y": -1.0}, "interpolation": 2}]}, "channel_mapping": {"Points": [{"co": {"X": 1.0, "Y": -1.0}, "interpolation": 2}]}, "crop_height": {"Points": [{"co": {"X": 1.0, "Y": -1.0}, "interpolation": 2}]}, "crop_width": {"Points": [{"co": {"X": 1.0, "Y": -1.0}, "interpolation": 2}]}, "crop_x": {"Points": [{"co": {"X": 1.0, "Y": 0.0}, "interpolation": 2}]}, "crop_y": {"Points": [{"co": {"X": 1.0, "Y": 0.0}, "interpolation": 2}]}, "display": 0, "duration": 19.92000007629395, "effects": [], "end": 18.16, "gravity": 4, "has_audio": {"Points": [{"co": {"X": 1.0, "Y": -1.0}, "interpolation": 2}]}, "has_video": {"Points": [{"co": {"X": 1.0, "Y": -1.0}, "interpolation": 2}]}, "id": "6STXBLLU22", "layer": 1, "location_x": {"Points": [{"co": {"X": 1.0, "Y": 0.0}, "interpolation": 2}]}, "location_y": {"Points": [{"co": {"X": 1.0, "Y": 0.0}, "interpolation": 2}]}, "mixing": 0, "perspective_c1_x": {"Points": [{"co": {"X": 1.0, "Y": -1.0}, "interpolation": 2}]}, "perspective_c1_y": {"Points": [{"co": {"X": 1.0, "Y": -1.0}, "interpolation": 2}]}, "perspective_c2_x": {"Points": [{"co": {"X": 1.0, "Y": -1.0}, "interpolation": 2}]}, "perspective_c2_y": {"Points": [{"co": {"X": 1.0, "Y": -1.0}, "interpolation": 2}]}, "perspective_c3_x": {"Points": [{"co": {"X": 1.0, "Y": -1.0}, "interpolation": 2}]}, "perspective_c3_y": {"Points": [{"co": {"X": 1.0, "Y": -1.0}, "interpolation": 2}]}, "perspective_c4_x": {"Points": [{"co": {"X": 1.0, "Y": -1.0}, "interpolation": 2}]}, "perspective_c4_y": {"Points": [{"co": {"X": 1.0, "Y": -1.0}, "interpolation": 2}]}, "position": 126.25, "reader": {"acodec": "pcm_s16le", "audio_bit_rate": 1536000, "audio_stream_index": 1, "audio_timebase": {"den": 48000, "num": 1}, "channel_layout": 3, "channels": 2, "display_ratio": {"den": 9, "num": 16}, "duration": 19.92000007629395, "file_size": "115743512", "fps": {"den": 1, "num": 25}, "has_audio": true, "has_single_image": false, "has_video": true, "height": 1080, "interlaced_frame": false, "metadata": {"com.apple.quicktime.make": "Canon", "com.apple.quicktime.model": "Canon EOS 700D", "com.apple.quicktime.rating.user": "0.000000", "compatible_brands": "qt  CAEP", "creation_time": "2018-09-19T18:31:27.000000Z", "language": "eng", "major_brand": "qt", "minor_version": "537331968"}, "path": "C:/Users/jcrem/Desktop/MVI_1104.MOV", "pixel_format": 12, "pixel_ratio": {"den": 1, "num": 1}, "sample_rate": 48000, "top_field_first": true, "type": "FFmpegReader", "vcodec": "h264", "video_bit_rate": 46483338, "video_length": "498", "video_stream_index": 0, "video_timebase": {"den": 25000, "num": 1}, "width": 1920}, "rotation": {"Points": [{"co": {"X": 1.0, "Y": 0.0}, "interpolation": 2}]}, "scale": 1, "scale_x": {"Points": [{"co": {"X": 1.0, "Y": 1.0}, "interpolation": 2}]}, "scale_y": {"Points": [{"co": {"X": 1.0, "Y": 1.0}, "interpolation": 2}]}, "shear_x": {"Points": [{"co": {"X": 1.0, "Y": 0.0}, "interpolation": 2}]}, "shear_y": {"Points": [{"co": {"X": 1.0, "Y": 0.0}, "interpolation": 2}]}, "start": 2.76, "time": {"Points": [{"co": {"X": 1.0, "Y": 1.0}, "interpolation": 2}]}, "volume": {"Points": [{"co": {"X": 1.0, "Y": 1.0}, "interpolation": 2}]}, "wave_color": {"alpha": {"Points": [{"co": {"X": 1.0, "Y": 255.0}, "handle_left": {"X": 0.5, "Y": 1.0}, "handle_right": {"X": 0.5, "Y": 0.0}, "handle_type": 0, "interpolation": 0}]}, "blue": {"Points": [{"co": {"X": 1.0, "Y": 255.0}, "handle_left": {"X": 0.5, "Y": 1.0}, "handle_right": {"X": 0.5, "Y": 0.0}, "handle_type": 0, "interpolation": 0}]}, "green": {"Points": [{"co": {"X": 1.0, "Y": 123.0}, "handle_left": {"X": 0.5, "Y": 1.0}, "handle_right": {"X": 0.5, "Y": 0.0}, "handle_type": 0, "interpolation": 0}]}, "red": {"Points": [{"co": {"X": 1.0, "Y": 0.0}, "handle_left": {"X": 0.5, "Y": 1.0}, "handle_right": {"X": 0.5, "Y": 0.0}, "handle_type": 0, "interpolation": 0}]}}, "waveform": false, "file_id": "2NNMP6SN00", "title": "MVI_1104.MOV", "image": "C:\\Users\\jcrem\\.openshot_qt\\thumbnail\\2NNMP6SN00.png"}, "partial": false, "old_values": [{"alpha": {"Points": [{"co": {"X": 1.0, "Y": 1.0}, "interpolation": 2}]}, "anchor": 0, "channel_filter": {"Points": [{"co": {"X": 1.0, "Y": -1.0}, "interpolation": 2}]}, "channel_mapping": {"Points": [{"co": {"X": 1.0, "Y": -1.0}, "interpolation": 2}]}, "crop_height": {"Points": [{"co": {"X": 1.0, "Y": -1.0}, "interpolation": 2}]}, "crop_width": {"Points": [{"co": {"X": 1.0, "Y": -1.0}, "interpolation": 2}]}, "crop_x": {"Points": [{"co": {"X": 1.0, "Y": 0.0}, "interpolation": 2}]}, "crop_y": {"Points": [{"co": {"X": 1.0, "Y": 0.0}, "interpolation": 2}]}, "display": 0, "duration": 169.1199951171875, "effects": [], "end": 150.6, "gravity": 4, "has_audio": {"Points": [{"co": {"X": 1.0, "Y": -1.0}, "interpolation": 2}]}, "has_video": {"Points": [{"co": {"X": 1.0, "Y": -1.0}, "interpolation": 2}]}, "id": "Z8W6Z4YAV4", "layer": 0, "location_x": {"Points": [{"co": {"X": 1.0, "Y": 0.0}, "interpolation": 2}]}, "location_y": {"Points": [{"co": {"X": 1.0, "Y": 0.0}, "interpolation": 2}]}, "mixing": 0, "perspective_c1_x": {"Points": [{"co": {"X": 1.0, "Y": -1.0}, "interpolation": 2}]}, "perspective_c1_y": {"Points": [{"co": {"X": 1.0, "Y": -1.0}, "interpolation": 2}]}, "perspective_c2_x": {"Points": [{"co": {"X": 1.0, "Y": -1.0}, "interpolation": 2}]}, "perspective_c2_y": {"Points": [{"co": {"X": 1.0, "Y": -1.0}, "interpolation": 2}]}, "perspective_c3_x": {"Points": [{"co": {"X": 1.0, "Y": -1.0}, "interpolation": 2}]}, "perspective_c3_y": {"Points": [{"co": {"X": 1.0, "Y": -1.0}, "interpolation": 2}]}, "perspective_c4_x": {"Points": [{"co": {"X": 1.0, "Y": -1.0}, "interpolation": 2}]}, "perspective_c4_y": {"Points": [{"co": {"X": 1.0, "Y": -1.0}, "interpolation": 2}]}, "position": 0, "reader": {"acodec": "pcm_s16le", "audio_bit_rate": 1536000, "audio_stream_index": 1, "audio_timebase": {"den": 48000, "num": 1}, "channel_layout": 3, "channels": 2, "display_ratio": {"den": 9, "num": 16}, "duration": 169.1199951171875, "file_size": "964560360", "fps": {"den": 1, "num": 25}, "has_audio": true, "has_single_image": false, "has_video": true, "height": 1080, "interlaced_frame": false, "metadata": {"com.apple.quicktime.make": "Canon", "com.apple.quicktime.model": "Canon EOS 700D", "com.apple.quicktime.rating.user": "0.000000", "compatible_brands": "qt  CAEP", "creation_time": "2018-09-19T17:53:38.000000Z", "language": "eng", "major_brand": "qt", "minor_version": "537331968"}, "path": "C:/Users/jcrem/Desktop/MVI_1094.MOV", "pixel_format": 12, "pixel_ratio": {"den": 1, "num": 1}, "sample_rate": 48000, "top_field_first": true, "type": "FFmpegReader", "vcodec": "h264", "video_bit_rate": 45627263, "video_length": "4228", "video_stream_index": 0, "video_timebase": {"den": 25000, "num": 1}, "width": 1920}, "rotation": {"Points": [{"co": {"X": 1.0, "Y": 0.0}, "interpolation": 2}]}, "scale": 1, "scale_x": {"Points": [{"co": {"X": 1.0, "Y": 1.0}, "interpolation": 2}]}, "scale_y": {"Points": [{"co": {"X": 1.0, "Y": 1.0}, "interpolation": 2}]}, "shear_x": {"Points": [{"co": {"X": 1.0, "Y": 0.0}, "interpolation": 2}]}, "shear_y": {"Points": [{"co": {"X": 1.0, "Y": 0.0}, "interpolation": 2}]}, "start": 94, "time": {"Points": [{"co": {"X": 1.0, "Y": 1.0}, "interpolation": 2}]}, "volume": {"Points": [{"co": {"X": 1.0, "Y": 1.0}, "interpolation": 2}]}, "wave_color": {"alpha": {"Points": [{"co": {"X": 1.0, "Y": 255.0}, "handle_left": {"X": 0.5, "Y": 1.0}, "handle_right": {"X": 0.5, "Y": 0.0}, "handle_type": 0, "interpolation": 0}]}, "blue": {"Points": [{"co": {"X": 1.0, "Y": 255.0}, "handle_left": {"X": 0.5, "Y": 1.0}, "handle_right": {"X": 0.5, "Y": 0.0}, "handle_type": 0, "interpolation": 0}]}, "green": {"Points": [{"co": {"X": 1.0, "Y": 123.0}, "handle_left": {"X": 0.5, "Y": 1.0}, "handle_right": {"X": 0.5, "Y": 0.0}, "handle_type": 0, "interpolation": 0}]}, "red": {"Points": [{"co": {"X": 1.0, "Y": 0.0}, "handle_left": {"X": 0.5, "Y": 1.0}, "handle_right": {"X": 0.5, "Y": 0.0}, "handle_type": 0, "interpolation": 0}]}}, "waveform": false, "file_id": "G9CEIUAJTC", "title": "MVI_1094.MOV", "image": "C:\\Users\\jcrem\\.openshot_qt\\thumbnail\\G9CEIUAJTC.png"}, {"alpha": {"Points": [{"co": {"X": 1.0, "Y": 1.0}, "interpolation": 2}]}, "anchor": 0, "channel_filter": {"Points": [{"co": {"X": 1.0, "Y": -1.0}, "interpolation": 2}]}, "channel_mapping": {"Points": [{"co": {"X": 1.0, "Y": -1.0}, "interpolation": 2}]}, "crop_height": {"Points": [{"co": {"X": 1.0, "Y": -1.0}, "interpolation": 2}]}, "crop_width": {"Points": [{"co": {"X": 1.0, "Y": -1.0}, "interpolation": 2}]}, "crop_x": {"Points": [{"co": {"X": 1.0, "Y": 0.0}, "interpolation": 2}]}, "crop_y": {"Points": [{"co": {"X": 1.0, "Y": 0.0}, "interpolation": 2}]}, "display": 0, "duration": 126.2399978637695, "effects": [], "end": 71.92, "gravity": 4, "has_audio": {"Points": [{"co": {"X": 1.0, "Y": -1.0}, "interpolation": 2}]}, "has_video": {"Points": [{"co": {"X": 1.0, "Y": -1.0}, "interpolation": 2}]}, "id": "UH27R29ADE", "layer": 1, "location_x": {"Points": [{"co": {"X": 1.0, "Y": 0.0}, "interpolation": 2}]}, "location_y": {"Points": [{"co": {"X": 1.0, "Y": 0.0}, "interpolation": 2}]}, "mixing": 0, "perspective_c1_x": {"Points": [{"co": {"X": 1.0, "Y": -1.0}, "interpolation": 2}]}, "perspective_c1_y": {"Points": [{"co": {"X": 1.0, "Y": -1.0}, "interpolation": 2}]}, "perspective_c2_x": {"Points": [{"co": {"X": 1.0, "Y": -1.0}, "interpolation": 2}]}, "perspective_c2_y": {"Points": [{"co": {"X": 1.0, "Y": -1.0}, "interpolation": 2}]}, "perspective_c3_x": {"Points": [{"co": {"X": 1.0, "Y": -1.0}, "interpolation": 2}]}, "perspective_c3_y": {"Points": [{"co": {"X": 1.0, "Y": -1.0}, "interpolation": 2}]}, "perspective_c4_x": {"Points": [{"co": {"X": 1.0, "Y": -1.0}, "interpolation": 2}]}, "perspective_c4_y": {"Points": [{"co": {"X": 1.0, "Y": -1.0}, "interpolation": 2}]}, "position": 56.6, "reader": {"acodec": "pcm_s16le", "audio_bit_rate": 1536000, "audio_stream_index": 1, "audio_timebase": {"den": 48000, "num": 1}, "channel_layout": 3, "channels": 2, "display_ratio": {"den": 9, "num": 16}, "duration": 126.2399978637695, "file_size": "717454036", "fps": {"den": 1, "num": 25}, "has_audio": true, "has_single_image": false, "has_video": true, "height": 1080, "interlaced_frame": false, "metadata": {"com.apple.quicktime.make": "Canon", "com.apple.quicktime.model": "Canon EOS 700D", "com.apple.quicktime.rating.user": "0.000000", "compatible_brands": "qt  CAEP", "creation_time": "2018-09-19T18:12:35.000000Z", "language": "eng", "major_brand": "qt", "minor_version": "537331968"}, "path": "C:/Users/jcrem/Desktop/MVI_1100.MOV", "pixel_format": 12, "pixel_ratio": {"den": 1, "num": 1}, "sample_rate": 48000, "top_field_first": true, "type": "FFmpegReader", "vcodec": "h264", "video_bit_rate": 45466035, "video_length": "3156", "video_stream_index": 0, "video_timebase": {"den": 25000, "num": 1}, "width": 1920}, "rotation": {"Points": [{"co": {"X": 1.0, "Y": 0.0}, "interpolation": 2}]}, "scale": 1, "scale_x": {"Points": [{"co": {"X": 1.0, "Y": 1.0}, "interpolation": 2}]}, "scale_y": {"Points": [{"co": {"X": 1.0, "Y": 1.0}, "interpolation": 2}]}, "shear_x": {"Points": [{"co": {"X": 1.0, "Y": 0.0}, "interpolation": 2}]}, "shear_y": {"Points": [{"co": {"X": 1.0, "Y": 0.0}, "interpolation": 2}]}, "start": 52.92, "time": {"Points": [{"co": {"X": 1.0, "Y": 1.0}, "interpolation": 2}]}, "volume": {"Points": [{"co": {"X": 1.0, "Y": 1.0}, "interpolation": 2}]}, "wave_color": {"alpha": {"Points": [{"co": {"X": 1.0, "Y": 255.0}, "handle_left": {"X": 0.5, "Y": 1.0}, "handle_right": {"X": 0.5, "Y": 0.0}, "handle_type": 0, "interpolation": 0}]}, "blue": {"Points": [{"co": {"X": 1.0, "Y": 255.0}, "handle_left": {"X": 0.5, "Y": 1.0}, "handle_right": {"X": 0.5, "Y": 0.0}, "handle_type": 0, "interpolation": 0}]}, "green": {"Points": [{"co": {"X": 1.0, "Y": 123.0}, "handle_left": {"X": 0.5, "Y": 1.0}, "handle_right": {"X": 0.5, "Y": 0.0}, "handle_type": 0, "interpolation": 0}]}, "red": {"Points": [{"co": {"X": 1.0, "Y": 0.0}, "handle_left": {"X": 0.5, "Y": 1.0}, "handle_right": {"X": 0.5, "Y": 0.0}, "handle_type": 0, "interpolation": 0}]}}, "waveform": false, "file_id": "QUUHNKYT4W", "title": "MVI_1100.MOV", "image": "C:\\Users\\jcrem\\.openshot_qt\\thumbnail\\QUUHNKYT4W.png"}, {"alpha": {"Points": [{"co": {"X": 1.0, "Y": 1.0}, "interpolation": 2}]}, "anchor": 0, "channel_filter": {"Points": [{"co": {"X": 1.0, "Y": -1.0}, "interpolation": 2}]}, "channel_mapping": {"Points": [{"co": {"X": 1.0, "Y": -1.0}, "interpolation": 2}]}, "crop_height": {"Points": [{"co": {"X": 1.0, "Y": -1.0}, "interpolation": 2}]}, "crop_width": {"Points": [{"co": {"X": 1.0, "Y": -1.0}, "interpolation": 2}]}, "crop_x": {"Points": [{"co": {"X": 1.0, "Y": 0.0}, "interpolation": 2}]}, "crop_y": {"Points": [{"co": {"X": 1.0, "Y": 0.0}, "interpolation": 2}]}, "display": 0, "duration": 199.7200012207031, "effects": [], "end": 122.88, "gravity": 4, "has_audio": {"Points": [{"co": {"X": 1.0, "Y": -1.0}, "interpolation": 2}]}, "has_video": {"Points": [{"co": {"X": 1.0, "Y": -1.0}, "interpolation": 2}]}, "id": "24RIOWUAHO", "layer": 0, "location_x": {"Points": [{"co": {"X": 1.0, "Y": 0.0}, "interpolation": 2}]}, "location_y": {"Points": [{"co": {"X": 1.0, "Y": 0.0}, "interpolation": 2}]}, "mixing": 0, "perspective_c1_x": {"Points": [{"co": {"X": 1.0, "Y": -1.0}, "interpolation": 2}]}, "perspective_c1_y": {"Points": [{"co": {"X": 1.0, "Y": -1.0}, "interpolation": 2}]}, "perspective_c2_x": {"Points": [{"co": {"X": 1.0, "Y": -1.0}, "interpolation": 2}]}, "perspective_c2_y": {"Points": [{"co": {"X": 1.0, "Y": -1.0}, "interpolation": 2}]}, "perspective_c3_x": {"Points": [{"co": {"X": 1.0, "Y": -1.0}, "interpolation": 2}]}, "perspective_c3_y": {"Points": [{"co": {"X": 1.0, "Y": -1.0}, "interpolation": 2}]}, "perspective_c4_x": {"Points": [{"co": {"X": 1.0, "Y": -1.0}, "interpolation": 2}]}, "perspective_c4_y": {"Points": [{"co": {"X": 1.0, "Y": -1.0}, "interpolation": 2}]}, "position": 75.6, "reader": {"acodec": "pcm_s16le", "audio_bit_rate": 1536000, "audio_stream_index": 1, "audio_timebase": {"den": 48000, "num": 1}, "channel_layout": 3, "channels": 2, "display_ratio": {"den": 9, "num": 16}, "duration": 199.7200012207031, "file_size": "1134495908", "fps": {"den": 1, "num": 25}, "has_audio": true, "has_single_image": false, "has_video": true, "height": 1080, "interlaced_frame": false, "metadata": {"com.apple.quicktime.make": "Canon", "com.apple.quicktime.model": "Canon EOS 700D", "com.apple.quicktime.rating.user": "0.000000", "compatible_brands": "qt  CAEP", "creation_time": "2018-09-19T18:07:25.000000Z", "language": "eng", "major_brand": "qt", "minor_version": "537331968"}, "path": "C:/Users/jcrem/Desktop/MVI_1099.MOV", "pixel_format": 12, "pixel_ratio": {"den": 1, "num": 1}, "sample_rate": 48000, "top_field_first": true, "type": "FFmpegReader", "vcodec": "h264", "video_bit_rate": 45443457, "video_length": "4993", "video_stream_index": 0, "video_timebase": {"den": 25000, "num": 1}, "width": 1920}, "rotation": {"Points": [{"co": {"X": 1.0, "Y": 0.0}, "interpolation": 2}]}, "scale": 1, "scale_x": {"Points": [{"co": {"X": 1.0, "Y": 1.0}, "interpolation": 2}]}, "scale_y": {"Points": [{"co": {"X": 1.0, "Y": 1.0}, "interpolation": 2}]}, "shear_x": {"Points": [{"co": {"X": 1.0, "Y": 0.0}, "interpolation": 2}]}, "shear_y": {"Points": [{"co": {"X": 1.0, "Y": 0.0}, "interpolation": 2}]}, "start": 106.8, "time": {"Points": [{"co": {"X": 1.0, "Y": 1.0}, "interpolation": 2}]}, "volume": {"Points": [{"co": {"X": 1.0, "Y": 1.0}, "interpolation": 2}]}, "wave_color": {"alpha": {"Points": [{"co": {"X": 1.0, "Y": 255.0}, "handle_left": {"X": 0.5, "Y": 1.0}, "handle_right": {"X": 0.5, "Y": 0.0}, "handle_type": 0, "interpolation": 0}]}, "blue": {"Points": [{"co": {"X": 1.0, "Y": 255.0}, "handle_left": {"X": 0.5, "Y": 1.0}, "handle_right": {"X": 0.5, "Y": 0.0}, "handle_type": 0, "interpolation": 0}]}, "green": {"Points": [{"co": {"X": 1.0, "Y": 123.0}, "handle_left": {"X": 0.5, "Y": 1.0}, "handle_right": {"X": 0.5, "Y": 0.0}, "handle_type": 0, "interpolation": 0}]}, "red": {"Points": [{"co": {"X": 1.0, "Y": 0.0}, "handle_left": {"X": 0.5, "Y": 1.0}, "handle_right": {"X": 0.5, "Y": 0.0}, "handle_type": 0, "interpolation": 0}]}}, "waveform": false, "file_id": "DNDKK8784V", "title": "MVI_1099.MOV", "image": "C:\\Users\\jcrem\\.openshot_qt\\thumbnail\\DNDKK8784V.png"}, {"alpha": {"Points": [{"co": {"X": 1.0, "Y": 1.0}, "interpolation": 2}]}, "anchor": 0, "channel_filter": {"Points": [{"co": {"X": 1.0, "Y": -1.0}, "interpolation": 2}]}, "channel_mapping": {"Points": [{"co": {"X": 1.0, "Y": -1.0}, "interpolation": 2}]}, "crop_height": {"Points": [{"co": {"X": 1.0, "Y": -1.0}, "interpolation": 2}]}, "crop_width": {"Points": [{"co": {"X": 1.0, "Y": -1.0}, "interpolation": 2}]}, "crop_x": {"Points": [{"co": {"X": 1.0, "Y": 0.0}, "interpolation": 2}]}, "crop_y": {"Points": [{"co": {"X": 1.0, "Y": 0.0}, "interpolation": 2}]}, "display": 0, "duration": 97.68000030517578, "effects": [], "end": 59.32, "gravity": 4, "has_audio": {"Points": [{"co": {"X": 1.0, "Y": -1.0}, "interpolation": 2}]}, "has_video": {"Points": [{"co": {"X": 1.0, "Y": -1.0}, "interpolation": 2}]}, "id": "NREVZV5KE4", "layer": 1, "location_x": {"Points": [{"co": {"X": 1.0, "Y": 0.0}, "interpolation": 2}]}, "location_y": {"Points": [{"co": {"X": 1.0, "Y": 0.0}, "interpolation": 2}]}, "mixing": 0, "perspective_c1_x": {"Points": [{"co": {"X": 1.0, "Y": -1.0}, "interpolation": 2}]}, "perspective_c1_y": {"Points": [{"co": {"X": 1.0, "Y": -1.0}, "interpolation": 2}]}, "perspective_c2_x": {"Points": [{"co": {"X": 1.0, "Y": -1.0}, "interpolation": 2}]}, "perspective_c2_y": {"Points": [{"co": {"X": 1.0, "Y": -1.0}, "interpolation": 2}]}, "perspective_c3_x": {"Points": [{"co": {"X": 1.0, "Y": -1.0}, "interpolation": 2}]}, "perspective_c3_y": {"Points": [{"co": {"X": 1.0, "Y": -1.0}, "interpolation": 2}]}, "perspective_c4_x": {"Points": [{"co": {"X": 1.0, "Y": -1.0}, "interpolation": 2}]}, "perspective_c4_y": {"Points": [{"co": {"X": 1.0, "Y": -1.0}, "interpolation": 2}]}, "position": 91.68, "reader": {"acodec": "pcm_s16le", "audio_bit_rate": 1536000, "audio_stream_index": 1, "audio_timebase": {"den": 48000, "num": 1}, "channel_layout": 3, "channels": 2, "display_ratio": {"den": 9, "num": 16}, "duration": 97.68000030517578, "file_size": "553430096", "fps": {"den": 1, "num": 25}, "has_audio": true, "has_single_image": false, "has_video": true, "height": 1080, "interlaced_frame": false, "metadata": {"com.apple.quicktime.make": "Canon", "com.apple.quicktime.model": "Canon EOS 700D", "com.apple.quicktime.rating.user": "0.000000", "compatible_brands": "qt  CAEP", "creation_time": "2018-09-19T18:15:00.000000Z", "language": "eng", "major_brand": "qt", "minor_version": "537331968"}, "path": "C:/Users/jcrem/Desktop/MVI_1101.MOV", "pixel_format": 12, "pixel_ratio": {"den": 1, "num": 1}, "sample_rate": 48000, "top_field_first": true, "type": "FFmpegReader", "vcodec": "h264", "video_bit_rate": 45325970, "video_length": "2442", "video_stream_index": 0, "video_timebase": {"den": 25000, "num": 1}, "width": 1920}, "rotation": {"Points": [{"co": {"X": 1.0, "Y": 0.0}, "interpolation": 2}]}, "scale": 1, "scale_x": {"Points": [{"co": {"X": 1.0, "Y": 1.0}, "interpolation": 2}]}, "scale_y": {"Points": [{"co": {"X": 1.0, "Y": 1.0}, "interpolation": 2}]}, "shear_x": {"Points": [{"co": {"X": 1.0, "Y": 0.0}, "interpolation": 2}]}, "shear_y": {"Points": [{"co": {"X": 1.0, "Y": 0.0}, "interpolation": 2}]}, "start": 45.4, "time": {"Points": [{"co": {"X": 1.0, "Y": 1.0}, "interpolation": 2}]}, "volume": {"Points": [{"co": {"X": 1.0, "Y": 1.0}, "interpolation": 2}]}, "wave_color": {"alpha": {"Points": [{"co": {"X": 1.0, "Y": 255.0}, "handle_left": {"X": 0.5, "Y": 1.0}, "handle_right": {"X": 0.5, "Y": 0.0}, "handle_type": 0, "interpolation": 0}]}, "blue": {"Points": [{"co": {"X": 1.0, "Y": 255.0}, "handle_left": {"X": 0.5, "Y": 1.0}, "handle_right": {"X": 0.5, "Y": 0.0}, "handle_type": 0, "interpolation": 0}]}, "green": {"Points": [{"co": {"X": 1.0, "Y": 123.0}, "handle_left": {"X": 0.5, "Y": 1.0}, "handle_right": {"X": 0.5, "Y": 0.0}, "handle_type": 0, "interpolation": 0}]}, "red": {"Points": [{"co": {"X": 1.0, "Y": 0.0}, "handle_left": {"X": 0.5, "Y": 1.0}, "handle_right": {"X": 0.5, "Y": 0.0}, "handle_type": 0, "interpolation": 0}]}}, "waveform": false, "file_id": "Z21W6844ZK", "title": "MVI_1101.MOV", "image": "C:\\Users\\jcrem\\.openshot_qt\\thumbnail\\Z21W6844ZK.png"}, {"alpha": {"Points": [{"co": {"X": 1.0, "Y": 1.0}, "interpolation": 2}]}, "anchor": 0, "channel_filter": {"Points": [{"co": {"X": 1.0, "Y": -1.0}, "interpolation": 2}]}, "channel_mapping": {"Points": [{"co": {"X": 1.0, "Y": -1.0}, "interpolation": 2}]}, "crop_height": {"Points": [{"co": {"X": 1.0, "Y": -1.0}, "interpolation": 2}]}, "crop_width": {"Points": [{"co": {"X": 1.0, "Y": -1.0}, "interpolation": 2}]}, "crop_x": {"Points": [{"co": {"X": 1.0, "Y": 0.0}, "interpolation": 2}]}, "crop_y": {"Points": [{"co": {"X": 1.0, "Y": 0.0}, "interpolation": 2}]}, "display": 0, "duration": 189.5599975585938, "effects": [], "end": 105.24, "gravity": 4, "has_audio": {"Points": [{"co": {"X": 1.0, "Y": -1.0}, "interpolation": 2}]}, "has_video": {"Points": [{"co": {"X": 1.0, "Y": -1.0}, "interpolation": 2}]}, "id": "YA4WC2YJB6", "layer": 0, "location_x": {"Points": [{"co": {"X": 1.0, "Y": 0.0}, "interpolation": 2}]}, "location_y": {"Points": [{"co": {"X": 1.0, "Y": 0.0}, "interpolation": 2}]}, "mixing": 0, "perspective_c1_x": {"Points": [{"co": {"X": 1.0, "Y": -1.0}, "interpolation": 2}]}, "perspective_c1_y": {"Points": [{"co": {"X": 1.0, "Y": -1.0}, "interpolation": 2}]}, "perspective_c2_x": {"Points": [{"co": {"X": 1.0, "Y": -1.0}, "interpolation": 2}]}, "perspective_c2_y": {"Points": [{"co": {"X": 1.0, "Y": -1.0}, "interpolation": 2}]}, "perspective_c3_x": {"Points": [{"co": {"X": 1.0, "Y": -1.0}, "interpolation": 2}]}, "perspective_c3_y": {"Points": [{"co": {"X": 1.0, "Y": -1.0}, "interpolation": 2}]}, "perspective_c4_x": {"Points": [{"co": {"X": 1.0, "Y": -1.0}, "interpolation": 2}]}, "perspective_c4_y": {"Points": [{"co": {"X": 1.0, "Y": -1.0}, "interpolation": 2}]}, "position": 105.6, "reader": {"acodec": "pcm_s16le", "audio_bit_rate": 1536000, "audio_stream_index": 1, "audio_timebase": {"den": 48000, "num": 1}, "channel_layout": 3, "channels": 2, "display_ratio": {"den": 9, "num": 16}, "duration": 189.5599975585938, "file_size": "1086576176", "fps": {"den": 1, "num": 25}, "has_audio": true, "has_single_image": false, "has_video": true, "height": 1080, "interlaced_frame": false, "metadata": {"com.apple.quicktime.make": "Canon", "com.apple.quicktime.model": "Canon EOS 700D", "com.apple.quicktime.rating.user": "0.000000", "compatible_brands": "qt  CAEP", "creation_time": "2018-09-19T17:59:33.000000Z", "language": "eng", "major_brand": "qt", "minor_version": "537331968"}, "path": "C:/Users/jcrem/Desktop/MVI_1096.MOV", "pixel_format": 12, "pixel_ratio": {"den": 1, "num": 1}, "sample_rate": 48000, "top_field_first": true, "type": "FFmpegReader", "vcodec": "h264", "video_bit_rate": 45856770, "video_length": "4739", "video_stream_index": 0, "video_timebase": {"den": 25000, "num": 1}, "width": 1920}, "rotation": {"Points": [{"co": {"X": 1.0, "Y": 0.0}, "interpolation": 2}]}, "scale": 1, "scale_x": {"Points": [{"co": {"X": 1.0, "Y": 1.0}, "interpolation": 2}]}, "scale_y": {"Points": [{"co": {"X": 1.0, "Y": 1.0}, "interpolation": 2}]}, "shear_x": {"Points": [{"co": {"X": 1.0, "Y": 0.0}, "interpolation": 2}]}, "shear_y": {"Points": [{"co": {"X": 1.0, "Y": 0.0}, "interpolation": 2}]}, "start": 84.28, "time": {"Points": [{"co": {"X": 1.0, "Y": 1.0}, "interpolation": 2}]}, "volume": {"Points": [{"co": {"X": 1.0, "Y": 1.0}, "interpolation": 2}]}, "wave_color": {"alpha": {"Points": [{"co": {"X": 1.0, "Y": 255.0}, "handle_left": {"X": 0.5, "Y": 1.0}, "handle_right": {"X": 0.5, "Y": 0.0}, "handle_type": 0, "interpolation": 0}]}, "blue": {"Points": [{"co": {"X": 1.0, "Y": 255.0}, "handle_left": {"X": 0.5, "Y": 1.0}, "handle_right": {"X": 0.5, "Y": 0.0}, "handle_type": 0, "interpolation": 0}]}, "green": {"Points": [{"co": {"X": 1.0, "Y": 123.0}, "handle_left": {"X": 0.5, "Y": 1.0}, "handle_right": {"X": 0.5, "Y": 0.0}, "handle_type": 0, "interpolation": 0}]}, "red": {"Points": [{"co": {"X": 1.0, "Y": 0.0}, "handle_left": {"X": 0.5, "Y": 1.0}, "handle_right": {"X": 0.5, "Y": 0.0}, "handle_type": 0, "interpolation": 0}]}}, "waveform": false, "file_id": "GKPXCFB7UV", "title": "MVI_1096.MOV", "image": "C:\\Users\\jcrem\\.openshot_qt\\thumbnail\\GKPXCFB7UV.png"}]}, {"type": "update", "key": ["clips", {"id": "6STXBLLU22"}], "value": {"id": "6STXBLLU22", "layer": 1, "position": 126.25, "image": "C:\\Users\\jcrem\\.openshot_qt\\thumbnail\\2NNMP6SN00.png", "start": 2.76, "end": 18.16}, "partial": false, "old_values": {"alpha": {"Points": [{"co": {"X": 1.0, "Y": 1.0}, "interpolation": 2}]}, "anchor": 0, "channel_filter": {"Points": [{"co": {"X": 1.0, "Y": -1.0}, "interpolation": 2}]}, "channel_mapping": {"Points": [{"co": {"X": 1.0, "Y": -1.0}, "interpolation": 2}]}, "crop_height": {"Points": [{"co": {"X": 1.0, "Y": -1.0}, "interpolation": 2}]}, "crop_width": {"Points": [{"co": {"X": 1.0, "Y": -1.0}, "interpolation": 2}]}, "crop_x": {"Points": [{"co": {"X": 1.0, "Y": 0.0}, "interpolation": 2}]}, "crop_y": {"Points": [{"co": {"X": 1.0, "Y": 0.0}, "interpolation": 2}]}, "display": 0, "duration": 19.92000007629395, "effects": [], "end": 18.16, "gravity": 4, "has_audio": {"Points": [{"co": {"X": 1.0, "Y": -1.0}, "interpolation": 2}]}, "has_video": {"Points": [{"co": {"X": 1.0, "Y": -1.0}, "interpolation": 2}]}, "id": "6STXBLLU22", "layer": 4, "location_x": {"Points": [{"co": {"X": 1.0, "Y": 0.0}, "interpolation": 2}]}, "location_y": {"Points": [{"co": {"X": 1.0, "Y": 0.0}, "interpolation": 2}]}, "mixing": 0, "perspective_c1_x": {"Points": [{"co": {"X": 1.0, "Y": -1.0}, "interpolation": 2}]}, "perspective_c1_y": {"Points": [{"co": {"X": 1.0, "Y": -1.0}, "interpolation": 2}]}, "perspective_c2_x": {"Points": [{"co": {"X": 1.0, "Y": -1.0}, "interpolation": 2}]}, "perspective_c2_y": {"Points": [{"co": {"X": 1.0, "Y": -1.0}, "interpolation": 2}]}, "perspective_c3_x": {"Points": [{"co": {"X": 1.0, "Y": -1.0}, "interpolation": 2}]}, "perspective_c3_y": {"Points": [{"co": {"X": 1.0, "Y": -1.0}, "interpolation": 2}]}, "perspective_c4_x": {"Points": [{"co": {"X": 1.0, "Y": -1.0}, "interpolation": 2}]}, "perspective_c4_y": {"Points": [{"co": {"X": 1.0, "Y": -1.0}, "interpolation": 2}]}, "position": 94.88, "reader": {"acodec": "pcm_s16le", "audio_bit_rate": 1536000, "audio_stream_index": 1, "audio_timebase": {"den": 48000, "num": 1}, "channel_layout": 3, "channels": 2, "display_ratio": {"den": 9, "num": 16}, "duration": 19.92000007629395, "file_size": "115743512", "fps": {"den": 1, "num": 25}, "has_audio": true, "has_single_image": false, "has_video": true, "height": 1080, "interlaced_frame": false, "metadata": {"com.apple.quicktime.make": "Canon", "com.apple.quicktime.model": "Canon EOS 700D", "com.apple.quicktime.rating.user": "0.000000", "compatible_brands": "qt  CAEP", "creation_time": "2018-09-19T18:31:27.000000Z", "language": "eng", "major_brand": "qt", "minor_version": "537331968"}, "path": "C:/Users/jcrem/Desktop/MVI_1104.MOV", "pixel_format": 12, "pixel_ratio": {"den": 1, "num": 1}, "sample_rate": 48000, "top_field_first": true, "type": "FFmpegReader", "vcodec": "h264", "video_bit_rate": 46483338, "video_length": "498", "video_stream_index": 0, "video_timebase": {"den": 25000, "num": 1}, "width": 1920}, "rotation": {"Points": [{"co": {"X": 1.0, "Y": 0.0}, "interpolation": 2}]}, "scale": 1, "scale_x": {"Points": [{"co": {"X": 1.0, "Y": 1.0}, "interpolation": 2}]}, "scale_y": {"Points": [{"co": {"X": 1.0, "Y": 1.0}, "interpolation": 2}]}, "shear_x": {"Points": [{"co": {"X": 1.0, "Y": 0.0}, "interpolation": 2}]}, "shear_y": {"Points": [{"co": {"X": 1.0, "Y": 0.0}, "interpolation": 2}]}, "start": 2.76, "time": {"Points": [{"co": {"X": 1.0, "Y": 1.0}, "interpolation": 2}]}, "volume": {"Points": [{"co": {"X": 1.0, "Y": 1.0}, "interpolation": 2}]}, "wave_color": {"alpha": {"Points": [{"co": {"X": 1.0, "Y": 255.0}, "handle_left": {"X": 0.5, "Y": 1.0}, "handle_right": {"X": 0.5, "Y": 0.0}, "handle_type": 0, "interpolation": 0}]}, "blue": {"Points": [{"co": {"X": 1.0, "Y": 255.0}, "handle_left": {"X": 0.5, "Y": 1.0}, "handle_right": {"X": 0.5, "Y": 0.0}, "handle_type": 0, "interpolation": 0}]}, "green": {"Points": [{"co": {"X": 1.0, "Y": 123.0}, "handle_left": {"X": 0.5, "Y": 1.0}, "handle_right": {"X": 0.5, "Y": 0.0}, "handle_type": 0, "interpolation": 0}]}, "red": {"Points": [{"co": {"X": 1.0, "Y": 0.0}, "handle_left": {"X": 0.5, "Y": 1.0}, "handle_right": {"X": 0.5, "Y": 0.0}, "handle_type": 0, "interpolation": 0}]}}, "waveform": false, "file_id": "2NNMP6SN00", "title": "MVI_1104.MOV", "image": "C:\\Users\\jcrem\\.openshot_qt\\thumbnail\\2NNMP6SN00.png"}}, {"type": "insert", "key": ["effects"], "value": {"id": "PAUJT7OBDH", "layer": 0, "title": "Transition", "type": "Mask", "position": 53.24, "start": 0, "end": 7.4399999999999995, "brightness": {"Points": [{"co": {"X": 1, "Y": 1}, "handle_left": {"X": 0.5, "Y": 1}, "handle_right": {"X": 0.5, "Y": 0}, "handle_type": 0, "interpolation": 0}, {"co": {"X": 180, "Y": -1}, "handle_left": {"X": 0.5, "Y": 1}, "handle_right": {"X": 0.5, "Y": 0}, "handle_type": 0, "interpolation": 0}]}, "contrast": {"Points": [{"co": {"X": 1, "Y": 3}, "interpolation": 2}]}, "reader": {"acodec": "", "audio_bit_rate": 0, "audio_stream_index": -1, "audio_timebase": {"den": 1, "num": 1}, "channel_layout": 4, "channels": 0, "display_ratio": {"den": 9, "num": 16}, "duration": 86400.0, "file_size": "8294400", "fps": {"den": 1, "num": 30}, "has_audio": false, "has_single_image": true, "has_video": true, "height": 1080, "interlaced_frame": false, "metadata": {}, "path": "C:\\Program Files\\OpenShot Video Editor\\transitions\\extra\\distortion_20.jpg", "pixel_format": -1, "pixel_ratio": {"den": 1, "num": 1}, "sample_rate": 0, "top_field_first": true, "type": "QtImageReader", "vcodec": "", "video_bit_rate": 0, "video_length": "2592000", "video_stream_index": -1, "video_timebase": {"den": 30, "num": 1}, "width": 1920}, "replace_image": false}, "partial": false, "old_values": []}, {"type": "update", "key": ["effects", {"id": "PAUJT7OBDH"}], "value": {"id": "PAUJT7OBDH", "layer": 3, "position": 51.52, "start": 0, "end": 10, "brightness": {"Points": [{"co": {"X": 1, "Y": 1}, "handle_left": {"X": 0.5, "Y": 1}, "handle_right": {"X": 0.5, "Y": 0}, "handle_type": 0, "interpolation": 0}, {"co": {"X": 241, "Y": -1}, "handle_left": {"X": 0.5, "Y": 1}, "handle_right": {"X": 0.5, "Y": 0}, "handle_type": 0, "interpolation": 0}]}, "contrast": {"Points": [{"co": {"X": 1, "Y": 3}, "interpolation": 2}]}}, "partial": false, "old_values": {"id": "PAUJT7OBDH", "layer": 4, "title": "Transition", "type": "Mask", "position": 53.76, "start": 0, "end": 10, "brightness": {"Points": [{"co": {"X": 1.0, "Y": 1.0}, "handle_left": {"X": 0.5, "Y": 1.0}, "handle_right": {"X": 0.5, "Y": 0.0}, "handle_type": 0, "interpolation": 0}, {"co": {"X": 241.0, "Y": -1.0}, "handle_left": {"X": 0.5, "Y": 1.0}, "handle_right": {"X": 0.5, "Y": 0.0}, "handle_type": 0, "interpolation": 0}]}, "contrast": {"Points": [{"co": {"X": 1.0, "Y": 3.0}, "interpolation": 2}]}, "reader": {"acodec": "", "audio_bit_rate": 0, "audio_stream_index": -1, "audio_timebase": {"den": 1, "num": 1}, "channel_layout": 4, "channels": 0, "display_ratio": {"den": 9, "num": 16}, "duration": 86400.0, "file_size": "8294400", "fps": {"den": 1, "num": 30}, "has_audio": false, "has_single_image": true, "has_video": true, "height": 1080, "interlaced_frame": false, "metadata": {}, "path": "C:\\Program Files\\OpenShot Video Editor\\transitions\\extra\\distortion_20.jpg", "pixel_format": -1, "pixel_ratio": {"den": 1, "num": 1}, "sample_rate": 0, "top_field_first": true, "type": "QtImageReader", "vcodec": "", "video_bit_rate": 0, "video_length": "2592000", "video_stream_index": -1, "video_timebase": {"den": 30, "num": 1}, "width": 1920}, "replace_image": false}}, {"type": "update", "key": ["effects", {"id": "PAUJT7OBDH"}], "value": {"id": "PAUJT7OBDH", "layer": 3, "position": 54.080000000000005, "start": 0, "end": 7.4399999999999995, "brightness": {"Points": [{"co": {"X": 1, "Y": 1}, "handle_left": {"X": 0.5, "Y": 1}, "handle_right": {"X": 0.5, "Y": 0}, "handle_type": 0, "interpolation": 0}, {"co": {"X": 180, "Y": -1}, "handle_left": {"X": 0.5, "Y": 1}, "handle_right": {"X": 0.5, "Y": 0}, "handle_type": 0, "interpolation": 0}]}, "contrast": {"Points": [{"co": {"X": 1, "Y": 3}, "interpolation": 2}]}}, "partial": false, "old_values": {"id": "PAUJT7OBDH", "layer": 3, "title": "Transition", "type": "Mask", "position": 51.52, "start": 0, "end": 10, "brightness": {"Points": [{"co": {"X": 1, "Y": 1}, "handle_left": {"X": 0.5, "Y": 1}, "handle_right": {"X": 0.5, "Y": 0}, "handle_type": 0, "interpolation": 0}, {"co": {"X": 241, "Y": -1}, "handle_left": {"X": 0.5, "Y": 1}, "handle_right": {"X": 0.5, "Y": 0}, "handle_type": 0, "interpolation": 0}]}, "contrast": {"Points": [{"co": {"X": 1, "Y": 3}, "interpolation": 2}]}, "reader": {"acodec": "", "audio_bit_rate": 0, "audio_stream_index": -1, "audio_timebase": {"den": 1, "num": 1}, "channel_layout": 4, "channels": 0, "display_ratio": {"den": 9, "num": 16}, "duration": 86400.0, "file_size": "8294400", "fps": {"den": 1, "num": 30}, "has_audio": false, "has_single_image": true, "has_video": true, "height": 1080, "interlaced_frame": false, "metadata": {}, "path": "C:\\Program Files\\OpenShot Video Editor\\transitions\\extra\\distortion_20.jpg", "pixel_format": -1, "pixel_ratio": {"den": 1, "num": 1}, "sample_rate": 0, "top_field_first": true, "type": "QtImageReader", "vcodec": "", "video_bit_rate": 0, "video_length": "2592000", "video_stream_index": -1, "video_timebase": {"den": 30, "num": 1}, "width": 1920}, "replace_image": false}}, {"type": "update", "key": ["effects", {"id": "PAUJT7OBDH"}], "value": {"id": "PAUJT7OBDH", "layer": 3, "position": 52.96, "start": 0, "end": 7.4399999999999995, "brightness": {"Points": [{"co": {"X": 1, "Y": 1}, "handle_left": {"X": 0.5, "Y": 1}, "handle_right": {"X": 0.5, "Y": 0}, "handle_type": 0, "interpolation": 0}, {"co": {"X": 180, "Y": -1}, "handle_left": {"X": 0.5, "Y": 1}, "handle_right": {"X": 0.5, "Y": 0}, "handle_type": 0, "interpolation": 0}]}, "contrast": {"Points": [{"co": {"X": 1, "Y": 3}, "interpolation": 2}]}}, "partial": false, "old_values": {"id": "PAUJT7OBDH", "layer": 3, "title": "Transition", "type": "Mask", "position": 54.080000000000005, "start": 0, "end": 7.4399999999999995, "brightness": {"Points": [{"co": {"X": 1, "Y": 1}, "handle_left": {"X": 0.5, "Y": 1}, "handle_right": {"X": 0.5, "Y": 0}, "handle_type": 0, "interpolation": 0}, {"co": {"X": 180, "Y": -1}, "handle_left": {"X": 0.5, "Y": 1}, "handle_right": {"X": 0.5, "Y": 0}, "handle_type": 0, "interpolation": 0}]}, "contrast": {"Points": [{"co": {"X": 1, "Y": 3}, "interpolation": 2}]}, "reader": {"acodec": "", "audio_bit_rate": 0, "audio_stream_index": -1, "audio_timebase": {"den": 1, "num": 1}, "channel_layout": 4, "channels": 0, "display_ratio": {"den": 9, "num": 16}, "duration": 86400.0, "file_size": "8294400", "fps": {"den": 1, "num": 30}, "has_audio": false, "has_single_image": true, "has_video": true, "height": 1080, "interlaced_frame": false, "metadata": {}, "path": "C:\\Program Files\\OpenShot Video Editor\\transitions\\extra\\distortion_20.jpg", "pixel_format": -1, "pixel_ratio": {"den": 1, "num": 1}, "sample_rate": 0, "top_field_first": true, "type": "QtImageReader", "vcodec": "", "video_bit_rate": 0, "video_length": "2592000", "video_stream_index": -1, "video_timebase": {"den": 30, "num": 1}, "width": 1920}, "replace_image": false}}, {"type": "update", "key": ["effects", {"id": "PAUJT7OBDH"}], "value": {"id": "PAUJT7OBDH", "layer": 0, "position": 52.96, "start": 0, "end": 7.4399999999999995, "brightness": {"Points": [{"co": {"X": 1, "Y": 1}, "handle_left": {"X": 0.5, "Y": 1}, "handle_right": {"X": 0.5, "Y": 0}, "handle_type": 0, "interpolation": 0}, {"co": {"X": 180, "Y": -1}, "handle_left": {"X": 0.5, "Y": 1}, "handle_right": {"X": 0.5, "Y": 0}, "handle_type": 0, "interpolation": 0}]}, "contrast": {"Points": [{"co": {"X": 1, "Y": 3}, "interpolation": 2}]}}, "partial": false, "old_values": {"id": "PAUJT7OBDH", "layer": 3, "title": "Transition", "type": "Mask", "position": 52.96, "start": 0, "end": 7.4399999999999995, "brightness": {"Points": [{"co": {"X": 1, "Y": 1}, "handle_left": {"X": 0.5, "Y": 1}, "handle_right": {"X": 0.5, "Y": 0}, "handle_type": 0, "interpolation": 0}, {"co": {"X": 180, "Y": -1}, "handle_left": {"X": 0.5, "Y": 1}, "handle_right": {"X": 0.5, "Y": 0}, "handle_type": 0, "interpolation": 0}]}, "contrast": {"Points": [{"co": {"X": 1, "Y": 3}, "interpolation": 2}]}, "reader": {"acodec": "", "audio_bit_rate": 0, "audio_stream_index": -1, "audio_timebase": {"den": 1, "num": 1}, "channel_layout": 4, "channels": 0, "display_ratio": {"den": 9, "num": 16}, "duration": 86400.0, "file_size": "8294400", "fps": {"den": 1, "num": 30}, "has_audio": false, "has_single_image": true, "has_video": true, "height": 1080, "interlaced_frame": false, "metadata": {}, "path": "C:\\Program Files\\OpenShot Video Editor\\transitions\\extra\\distortion_20.jpg", "pixel_format": -1, "pixel_ratio": {"den": 1, "num": 1}, "sample_rate": 0, "top_field_first": true, "type": "QtImageReader", "vcodec": "", "video_bit_rate": 0, "video_length": "2592000", "video_stream_index": -1, "video_timebase": {"den": 30, "num": 1}, "width": 1920}, "replace_image": false}}, {"type": "update", "key": ["effects", {"id": "PAUJT7OBDH"}], "value": {"id": "PAUJT7OBDH", "layer": 0, "position": 56.6, "start": 0, "end": 7.4399999999999995, "brightness": {"Points": [{"co": {"X": 1, "Y": 1}, "handle_left": {"X": 0.5, "Y": 1}, "handle_right": {"X": 0.5, "Y": 0}, "handle_type": 0, "interpolation": 0}, {"co": {"X": 180, "Y": -1}, "handle_left": {"X": 0.5, "Y": 1}, "handle_right": {"X": 0.5, "Y": 0}, "handle_type": 0, "interpolation": 0}]}, "contrast": {"Points": [{"co": {"X": 1, "Y": 3}, "interpolation": 2}]}}, "partial": false, "old_values": {"id": "PAUJT7OBDH", "layer": 0, "title": "Transition", "type": "Mask", "position": 52.96, "start": 0, "end": 7.4399999999999995, "brightness": {"Points": [{"co": {"X": 1, "Y": 1}, "handle_left": {"X": 0.5, "Y": 1}, "handle_right": {"X": 0.5, "Y": 0}, "handle_type": 0, "interpolation": 0}, {"co": {"X": 180, "Y": -1}, "handle_left": {"X": 0.5, "Y": 1}, "handle_right": {"X": 0.5, "Y": 0}, "handle_type": 0, "interpolation": 0}]}, "contrast": {"Points": [{"co": {"X": 1, "Y": 3}, "interpolation": 2}]}, "reader": {"acodec": "", "audio_bit_rate": 0, "audio_stream_index": -1, "audio_timebase": {"den": 1, "num": 1}, "channel_layout": 4, "channels": 0, "display_ratio": {"den": 9, "num": 16}, "duration": 86400.0, "file_size": "8294400", "fps": {"den": 1, "num": 30}, "has_audio": false, "has_single_image": true, "has_video": true, "height": 1080, "interlaced_frame": false, "metadata": {}, "path": "C:\\Program Files\\OpenShot Video Editor\\transitions\\extra\\distortion_20.jpg", "pixel_format": -1, "pixel_ratio": {"den": 1, "num": 1}, "sample_rate": 0, "top_field_first": true, "type": "QtImageReader", "vcodec": "", "video_bit_rate": 0, "video_length": "2592000", "video_stream_index": -1, "video_timebase": {"den": 30, "num": 1}, "width": 1920}, "replace_image": false}}, {"type": "update", "key": ["clips", {"id": "UH27R29ADE"}], "value": {"id": "UH27R29ADE", "layer": 1, "position": 64.04, "image": "C:\\Users\\jcrem\\.openshot_qt\\thumbnail\\QUUHNKYT4W.png", "start": 52.92, "end": 71.92}, "partial": false, "old_values": {"alpha": {"Points": [{"co": {"X": 1.0, "Y": 1.0}, "interpolation": 2}]}, "anchor": 0, "channel_filter": {"Points": [{"co": {"X": 1.0, "Y": -1.0}, "interpolation": 2}]}, "channel_mapping": {"Points": [{"co": {"X": 1.0, "Y": -1.0}, "interpolation": 2}]}, "crop_height": {"Points": [{"co": {"X": 1.0, "Y": -1.0}, "interpolation": 2}]}, "crop_width": {"Points": [{"co": {"X": 1.0, "Y": -1.0}, "interpolation": 2}]}, "crop_x": {"Points": [{"co": {"X": 1.0, "Y": 0.0}, "interpolation": 2}]}, "crop_y": {"Points": [{"co": {"X": 1.0, "Y": 0.0}, "interpolation": 2}]}, "display": 0, "duration": 126.2399978637695, "effects": [], "end": 71.92, "gravity": 4, "has_audio": {"Points": [{"co": {"X": 1.0, "Y": -1.0}, "interpolation": 2}]}, "has_video": {"Points": [{"co": {"X": 1.0, "Y": -1.0}, "interpolation": 2}]}, "id": "UH27R29ADE", "layer": 1, "location_x": {"Points": [{"co": {"X": 1.0, "Y": 0.0}, "interpolation": 2}]}, "location_y": {"Points": [{"co": {"X": 1.0, "Y": 0.0}, "interpolation": 2}]}, "mixing": 0, "perspective_c1_x": {"Points": [{"co": {"X": 1.0, "Y": -1.0}, "interpolation": 2}]}, "perspective_c1_y": {"Points": [{"co": {"X": 1.0, "Y": -1.0}, "interpolation": 2}]}, "perspective_c2_x": {"Points": [{"co": {"X": 1.0, "Y": -1.0}, "interpolation": 2}]}, "perspective_c2_y": {"Points": [{"co": {"X": 1.0, "Y": -1.0}, "interpolation": 2}]}, "perspective_c3_x": {"Points": [{"co": {"X": 1.0, "Y": -1.0}, "interpolation": 2}]}, "perspective_c3_y": {"Points": [{"co": {"X": 1.0, "Y": -1.0}, "interpolation": 2}]}, "perspective_c4_x": {"Points": [{"co": {"X": 1.0, "Y": -1.0}, "interpolation": 2}]}, "perspective_c4_y": {"Points": [{"co": {"X": 1.0, "Y": -1.0}, "interpolation": 2}]}, "position": 56.6, "reader": {"acodec": "pcm_s16le", "audio_bit_rate": 1536000, "audio_stream_index": 1, "audio_timebase": {"den": 48000, "num": 1}, "channel_layout": 3, "channels": 2, "display_ratio": {"den": 9, "num": 16}, "duration": 126.2399978637695, "file_size": "717454036", "fps": {"den": 1, "num": 25}, "has_audio": true, "has_single_image": false, "has_video": true, "height": 1080, "interlaced_frame": false, "metadata": {"com.apple.quicktime.make": "Canon", "com.apple.quicktime.model": "Canon EOS 700D", "com.apple.quicktime.rating.user": "0.000000", "compatible_brands": "qt  CAEP", "creation_time": "2018-09-19T18:12:35.000000Z", "language": "eng", "major_brand": "qt", "minor_version": "537331968"}, "path": "C:/Users/jcrem/Desktop/MVI_1100.MOV", "pixel_format": 12, "pixel_ratio": {"den": 1, "num": 1}, "sample_rate": 48000, "top_field_first": true, "type": "FFmpegReader", "vcodec": "h264", "video_bit_rate": 45466035, "video_length": "3156", "video_stream_index": 0, "video_timebase": {"den": 25000, "num": 1}, "width": 1920}, "rotation": {"Points": [{"co": {"X": 1.0, "Y": 0.0}, "interpolation": 2}]}, "scale": 1, "scale_x": {"Points": [{"co": {"X": 1.0, "Y": 1.0}, "interpolation": 2}]}, "scale_y": {"Points": [{"co": {"X": 1.0, "Y": 1.0}, "interpolation": 2}]}, "shear_x": {"Points": [{"co": {"X": 1.0, "Y": 0.0}, "interpolation": 2}]}, "shear_y": {"Points": [{"co": {"X": 1.0, "Y": 0.0}, "interpolation": 2}]}, "start": 52.92, "time": {"Points": [{"co": {"X": 1.0, "Y": 1.0}, "interpolation": 2}]}, "volume": {"Points": [{"co": {"X": 1.0, "Y": 1.0}, "interpolation": 2}]}, "wave_color": {"alpha": {"Points": [{"co": {"X": 1.0, "Y": 255.0}, "handle_left": {"X": 0.5, "Y": 1.0}, "handle_right": {"X": 0.5, "Y": 0.0}, "handle_type": 0, "interpolation": 0}]}, "blue": {"Points": [{"co": {"X": 1.0, "Y": 255.0}, "handle_left": {"X": 0.5, "Y": 1.0}, "handle_right": {"X": 0.5, "Y": 0.0}, "handle_type": 0, "interpolation": 0}]}, "green": {"Points": [{"co": {"X": 1.0, "Y": 123.0}, "handle_left": {"X": 0.5, "Y": 1.0}, "handle_right": {"X": 0.5, "Y": 0.0}, "handle_type": 0, "interpolation": 0}]}, "red": {"Points": [{"co": {"X": 1.0, "Y": 0.0}, "handle_left": {"X": 0.5, "Y": 1.0}, "handle_right": {"X": 0.5, "Y": 0.0}, "handle_type": 0, "interpolation": 0}]}}, "waveform": false, "file_id": "QUUHNKYT4W", "title": "MVI_1100.MOV", "image": "C:\\Users\\jcrem\\.openshot_qt\\thumbnail\\QUUHNKYT4W.png"}}, {"type": "update", "key": ["effects", {"id": "PAUJT7OBDH"}], "value": {"id": "PAUJT7OBDH", "layer": 0, "position": 53.24, "start": 0, "end": 7.4399999999999995, "brightness": {"Points": [{"co": {"X": 1, "Y": 1}, "handle_left": {"X": 0.5, "Y": 1}, "handle_right": {"X": 0.5, "Y": 0}, "handle_type": 0, "interpolation": 0}, {"co": {"X": 180, "Y": -1}, "handle_left": {"X": 0.5, "Y": 1}, "handle_right": {"X": 0.5, "Y": 0}, "handle_type": 0, "interpolation": 0}]}, "contrast": {"Points": [{"co": {"X": 1, "Y": 3}, "interpolation": 2}]}}, "partial": false, "old_values": {"id": "PAUJT7OBDH", "layer": 0, "title": "Transition", "type": "Mask", "position": 56.6, "start": 0, "end": 7.4399999999999995, "brightness": {"Points": [{"co": {"X": 1, "Y": 1}, "handle_left": {"X": 0.5, "Y": 1}, "handle_right": {"X": 0.5, "Y": 0}, "handle_type": 0, "interpolation": 0}, {"co": {"X": 180, "Y": -1}, "handle_left": {"X": 0.5, "Y": 1}, "handle_right": {"X": 0.5, "Y": 0}, "handle_type": 0, "interpolation": 0}]}, "contrast": {"Points": [{"co": {"X": 1, "Y": 3}, "interpolation": 2}]}, "reader": {"acodec": "", "audio_bit_rate": 0, "audio_stream_index": -1, "audio_timebase": {"den": 1, "num": 1}, "channel_layout": 4, "channels": 0, "display_ratio": {"den": 9, "num": 16}, "duration": 86400.0, "file_size": "8294400", "fps": {"den": 1, "num": 30}, "has_audio": false, "has_single_image": true, "has_video": true, "height": 1080, "interlaced_frame": false, "metadata": {}, "path": "C:\\Program Files\\OpenShot Video Editor\\transitions\\extra\\distortion_20.jpg", "pixel_format": -1, "pixel_ratio": {"den": 1, "num": 1}, "sample_rate": 0, "top_field_first": true, "type": "QtImageReader", "vcodec": "", "video_bit_rate": 0, "video_length": "2592000", "video_stream_index": -1, "video_timebase": {"den": 30, "num": 1}, "width": 1920}, "replace_image": false}}, {"type": "delete", "key": ["effects", {"id": "PAUJT7OBDH"}], "value": null, "partial": false, "old_values": {"id": "PAUJT7OBDH", "layer": 0, "title": "Transition", "type": "Mask", "position": 53.24, "start": 0, "end": 7.4399999999999995, "brightness": {"Points": [{"co": {"X": 1, "Y": 1}, "handle_left": {"X": 0.5, "Y": 1}, "handle_right": {"X": 0.5, "Y": 0}, "handle_type": 0, "interpolation": 0}, {"co": {"X": 180, "Y": -1}, "handle_left": {"X": 0.5, "Y": 1}, "handle_right": {"X": 0.5, "Y": 0}, "handle_type": 0, "interpolation": 0}]}, "contrast": {"Points": [{"co": {"X": 1, "Y": 3}, "interpolation": 2}]}, "reader": {"acodec": "", "audio_bit_rate": 0, "audio_stream_index": -1, "audio_timebase": {"den": 1, "num": 1}, "channel_layout": 4, "channels": 0, "display_ratio": {"den": 9, "num": 16}, "duration": 86400.0, "file_size": "8294400", "fps": {"den": 1, "num": 30}, "has_audio": false, "has_single_image": true, "has_video": true, "height": 1080, "interlaced_frame": false, "metadata": {}, "path": "C:\\Program Files\\OpenShot Video Editor\\transitions\\extra\\distortion_20.jpg", "pixel_format": -1, "pixel_ratio": {"den": 1, "num": 1}, "sample_rate": 0, "top_field_first": true, "type": "QtImageReader", "vcodec": "", "video_bit_rate": 0, "video_length": "2592000", "video_stream_index": -1, "video_timebase": {"den": 30, "num": 1}, "width": 1920}, "replace_image": false}}, {"type": "update", "key": ["clips", {"id": "UH27R29ADE"}], "value": {"id": "UH27R29ADE", "layer": 1, "position": 56.6, "image": "C:\\Users\\jcrem\\.openshot_qt\\thumbnail\\QUUHNKYT4W.png", "start": 52.92, "end": 71.92}, "partial": false, "old_values": {"alpha": {"Points": [{"co": {"X": 1.0, "Y": 1.0}, "interpolation": 2}]}, "anchor": 0, "channel_filter": {"Points": [{"co": {"X": 1.0, "Y": -1.0}, "interpolation": 2}]}, "channel_mapping": {"Points": [{"co": {"X": 1.0, "Y": -1.0}, "interpolation": 2}]}, "crop_height": {"Points": [{"co": {"X": 1.0, "Y": -1.0}, "interpolation": 2}]}, "crop_width": {"Points": [{"co": {"X": 1.0, "Y": -1.0}, "interpolation": 2}]}, "crop_x": {"Points": [{"co": {"X": 1.0, "Y": 0.0}, "interpolation": 2}]}, "crop_y": {"Points": [{"co": {"X": 1.0, "Y": 0.0}, "interpolation": 2}]}, "display": 0, "duration": 126.2399978637695, "effects": [], "end": 71.92, "gravity": 4, "has_audio": {"Points": [{"co": {"X": 1.0, "Y": -1.0}, "interpolation": 2}]}, "has_video": {"Points": [{"co": {"X": 1.0, "Y": -1.0}, "interpolation": 2}]}, "id": "UH27R29ADE", "layer": 1, "location_x": {"Points": [{"co": {"X": 1.0, "Y": 0.0}, "interpolation": 2}]}, "location_y": {"Points": [{"co": {"X": 1.0, "Y": 0.0}, "interpolation": 2}]}, "mixing": 0, "perspective_c1_x": {"Points": [{"co": {"X": 1.0, "Y": -1.0}, "interpolation": 2}]}, "perspective_c1_y": {"Points": [{"co": {"X": 1.0, "Y": -1.0}, "interpolation": 2}]}, "perspective_c2_x": {"Points": [{"co": {"X": 1.0, "Y": -1.0}, "interpolation": 2}]}, "perspective_c2_y": {"Points": [{"co": {"X": 1.0, "Y": -1.0}, "interpolation": 2}]}, "perspective_c3_x": {"Points": [{"co": {"X": 1.0, "Y": -1.0}, "interpolation": 2}]}, "perspective_c3_y": {"Points": [{"co": {"X": 1.0, "Y": -1.0}, "interpolation": 2}]}, "perspective_c4_x": {"Points": [{"co": {"X": 1.0, "Y": -1.0}, "interpolation": 2}]}, "perspective_c4_y": {"Points": [{"co": {"X": 1.0, "Y": -1.0}, "interpolation": 2}]}, "position": 64.04, "reader": {"acodec": "pcm_s16le", "audio_bit_rate": 1536000, "audio_stream_index": 1, "audio_timebase": {"den": 48000, "num": 1}, "channel_layout": 3, "channels": 2, "display_ratio": {"den": 9, "num": 16}, "duration": 126.2399978637695, "file_size": "717454036", "fps": {"den": 1, "num": 25}, "has_audio": true, "has_single_image": false, "has_video": true, "height": 1080, "interlaced_frame": false, "metadata": {"com.apple.quicktime.make": "Canon", "com.apple.quicktime.model": "Canon EOS 700D", "com.apple.quicktime.rating.user": "0.000000", "compatible_brands": "qt  CAEP", "creation_time": "2018-09-19T18:12:35.000000Z", "language": "eng", "major_brand": "qt", "minor_version": "537331968"}, "path": "C:/Users/jcrem/Desktop/MVI_1100.MOV", "pixel_format": 12, "pixel_ratio": {"den": 1, "num": 1}, "sample_rate": 48000, "top_field_first": true, "type": "FFmpegReader", "vcodec": "h264", "video_bit_rate": 45466035, "video_length": "3156", "video_stream_index": 0, "video_timebase": {"den": 25000, "num": 1}, "width": 1920}, "rotation": {"Points": [{"co": {"X": 1.0, "Y": 0.0}, "interpolation": 2}]}, "scale": 1, "scale_x": {"Points": [{"co": {"X": 1.0, "Y": 1.0}, "interpolation": 2}]}, "scale_y": {"Points": [{"co": {"X": 1.0, "Y": 1.0}, "interpolation": 2}]}, "shear_x": {"Points": [{"co": {"X": 1.0, "Y": 0.0}, "interpolation": 2}]}, "shear_y": {"Points": [{"co": {"X": 1.0, "Y": 0.0}, "interpolation": 2}]}, "start": 52.92, "time": {"Points": [{"co": {"X": 1.0, "Y": 1.0}, "interpolation": 2}]}, "volume": {"Points": [{"co": {"X": 1.0, "Y": 1.0}, "interpolation": 2}]}, "wave_color": {"alpha": {"Points": [{"co": {"X": 1.0, "Y": 255.0}, "handle_left": {"X": 0.5, "Y": 1.0}, "handle_right": {"X": 0.5, "Y": 0.0}, "handle_type": 0, "interpolation": 0}]}, "blue": {"Points": [{"co": {"X": 1.0, "Y": 255.0}, "handle_left": {"X": 0.5, "Y": 1.0}, "handle_right": {"X": 0.5, "Y": 0.0}, "handle_type": 0, "interpolation": 0}]}, "green": {"Points": [{"co": {"X": 1.0, "Y": 123.0}, "handle_left": {"X": 0.5, "Y": 1.0}, "handle_right": {"X": 0.5, "Y": 0.0}, "handle_type": 0, "interpolation": 0}]}, "red": {"Points": [{"co": {"X": 1.0, "Y": 0.0}, "handle_left": {"X": 0.5, "Y": 1.0}, "handle_right": {"X": 0.5, "Y": 0.0}, "handle_type": 0, "interpolation": 0}]}}, "waveform": false, "file_id": "QUUHNKYT4W", "title": "MVI_1100.MOV", "image": "C:\\Users\\jcrem\\.openshot_qt\\thumbnail\\QUUHNKYT4W.png"}}], "redo": []}, "version": {"openshot-qt": "2.4.2", "libopenshot": "0.2.0"}}